<svg xmlns="http://www.w3.org/2000/svg" xmlns:xlink="http://www.w3.org/1999/xlink" width="164" height="52.344" viewBox="0 0 164 52.344"><defs><style>.a{fill:none;}.b{fill:#0069b5;}.c{clip-path:url(#a);}.d{fill:#fff;}</style><clipPath id="a"><rect class="a" width="164" height="52.344"/></clipPath></defs><g transform="translate(-0.06 -0.25)"><path class="b" d="M10.4,66.55h3.547V76.2a8.5,8.5,0,0,1,6.821-3.513,9.338,9.338,0,0,1,9.413,9.754c0,5.968-4.229,9.89-9.549,9.89a7.494,7.494,0,0,1-6.821-3.752v3.206H10.4V66.55M26.628,82.477a6.412,6.412,0,1,0-12.823,0,6.286,6.286,0,0,0,6.309,6.548,6.375,6.375,0,0,0,6.514-6.514Z" transform="translate(-7.375 -47.31)"/><path class="b" d="M102.142,107.082H98.6v-3.24a7.488,7.488,0,0,1-6.889,3.786c-5.968,0-9.515-4.638-9.515-9.822a9.445,9.445,0,0,1,9.515-9.822A7.48,7.48,0,0,1,98.6,91.8V88.529h3.547v18.553m-16.4-9.209a6.37,6.37,0,0,0,6.48,6.446,6.064,6.064,0,0,0,5.763-3.683,6.979,6.979,0,0,0,.648-2.763,5.894,5.894,0,0,0-.546-2.762,6.193,6.193,0,0,0-5.934-3.82,6.347,6.347,0,0,0-6.412,6.548Z" transform="translate(-58.607 -62.604)"/><path class="b" d="M174.371,100.568a9.891,9.891,0,1,1,0-5.389h-3.649a6.073,6.073,0,0,0-5.8-3.888,5.99,5.99,0,0,0-4.536,1.807,6.746,6.746,0,0,0-1.807,4.707,6.268,6.268,0,0,0,6.343,6.514,6.155,6.155,0,0,0,5.8-3.751h3.649" transform="translate(-110.585 -62.604)"/><path class="b" d="M226.655,66.55h3.581V80.567l7.264-7.332h4.3l-8.253,8.151,8.492,10.4H237.91l-7.674-9.549v9.549h-3.581V66.55" transform="translate(-161.692 -47.31)"/><path class="b" d="M287.106,93.371a2.373,2.373,0,0,0-2.694-2.489,2.408,2.408,0,0,0-2.66,2.387c.068,1.466,1.4,2.149,3.376,2.694,2.83.785,5.934,1.6,6.036,5.593.068,3.615-2.933,6.071-6.616,6.071-2.933,0-6.582-1.671-6.753-5.9h3.513a3.107,3.107,0,0,0,3.274,3,2.863,2.863,0,0,0,3.035-2.763c-.034-1.841-1.432-2.455-4.74-3.547-2.592-.784-4.638-2.012-4.672-4.809,0-3.512,2.865-5.627,6.241-5.627,2.558,0,5.9,1.262,6.173,5.388h-3.513" transform="translate(-198.185 -62.604)"/><path class="b" d="M327.573,76H324.23V73.235h3.343V66.55h3.547v6.685H334.7V76h-3.581v15.79h-3.547V76" transform="translate(-231.319 -47.31)"/><g transform="translate(0.06 0.25)"><g class="c" transform="translate(0)"><path class="b" d="M378.057,107.082H374.51v-3.24a7.487,7.487,0,0,1-6.889,3.786c-5.969,0-9.515-4.638-9.515-9.822a9.445,9.445,0,0,1,9.515-9.822,7.48,7.48,0,0,1,6.889,3.82V88.529h3.547v18.553m-16.4-9.209a6.37,6.37,0,0,0,6.48,6.446,6.065,6.065,0,0,0,5.764-3.683,6.988,6.988,0,0,0,.648-2.763A5.894,5.894,0,0,0,374,95.111a6.192,6.192,0,0,0-5.934-3.82,6.348,6.348,0,0,0-6.412,6.548Z" transform="translate(-255.552 -62.854)"/><path class="b" d="M451.923,104.933c0,3.239-.819,5.32-2.183,6.889a10.435,10.435,0,0,1-7.81,3.377c-5.252,0-8.322-3.07-9.209-6.173h4.093a5.574,5.574,0,0,0,2.046,2.148,6.028,6.028,0,0,0,3.206.989,6.233,6.233,0,0,0,6.309-6.446v-1.91a7.261,7.261,0,0,1-6.684,3.82,9.422,9.422,0,0,1-9.583-9.754c0-5.8,4.195-9.89,9.583-9.89a7.428,7.428,0,0,1,6.684,3.683V88.529h3.547v16.4m-16.268-7.128a6.439,6.439,0,0,0,10.982,4.638,6.661,6.661,0,0,0,1.807-4.536,7.155,7.155,0,0,0-1.5-4.4,5.932,5.932,0,0,0-4.877-2.183,6.286,6.286,0,0,0-6.412,6.446Z" transform="translate(-308.358 -62.854)"/><path class="b" d="M508.144,98.931a6.051,6.051,0,0,0,6.241,5.661,5.756,5.756,0,0,0,5.354-3.138h3.683a10.205,10.205,0,0,1-3.752,4.6,9.413,9.413,0,0,1-5.286,1.569,9.822,9.822,0,1,1,6.821-16.916,10,10,0,0,1,2.8,8.22H508.144m12.346-2.763a5.978,5.978,0,0,0-6.138-5.15,5.9,5.9,0,0,0-6.139,5.15Z" transform="translate(-360.06 -62.854)"/></g></g><path class="d" d="M203.063,23.9a4.485,4.485,0,0,0-1.593-.661l-.062-.016a2.987,2.987,0,0,1-1.137-.5,1.069,1.069,0,0,1-.353-.828,1.289,1.289,0,0,1,.072-.495,1.155,1.155,0,0,1,.249-.4,1.261,1.261,0,0,1,.459-.3,1.713,1.713,0,0,1,.631-.111,1.494,1.494,0,0,1,.559.088,1.147,1.147,0,0,1,.416.257,1.119,1.119,0,0,1,.254.4,1.636,1.636,0,0,1,.1.563l.006.37h1.073l0-.382a2.343,2.343,0,0,0-.683-1.688,2.47,2.47,0,0,0-1.73-.653,2.62,2.62,0,0,0-1.68.57,2.277,2.277,0,0,0-.793,1.821,2.029,2.029,0,0,0,.756,1.645,4.74,4.74,0,0,0,1.634.714,2.549,2.549,0,0,1,1.282.577,1.4,1.4,0,0,1,.365,1.008v.054a1.61,1.61,0,0,1-.11.6,1.48,1.48,0,0,1-.313.489,1.464,1.464,0,0,1-.5.335,1.709,1.709,0,0,1-.64.119,1.692,1.692,0,0,1-1.214-.445,1.658,1.658,0,0,1-.467-1.19l-.006-.371-1.055.006-.019.476a2.522,2.522,0,0,0,.169.916,2.454,2.454,0,0,0,.495.781,2.748,2.748,0,0,0,.944.648,3.04,3.04,0,0,0,1.154.227,2.747,2.747,0,0,0,1.069-.213,2.585,2.585,0,0,0,.88-.613,2.523,2.523,0,0,0,.54-.877,2.552,2.552,0,0,0,.147-1.023,2.356,2.356,0,0,0-.893-1.88" transform="translate(-141.643 -13.756)"/><path class="d" d="M194.736,1.575h-1.4l1.133.821-.424,1.324,1.119-.818,1.126.821L195.862,2.4l1.13-.821h-1.4L195.168.25l-.432,1.325" transform="translate(-137.918)"/><path class="d" d="M173.669,26.586l-2.808-7.058H169.7l.3.763c.024.063.8,2.026,1.57,3.972l1.483,3.748L171.5,31.548h1.2L177.54,20.3l.311-.771h-1.2l-2.98,7.058" transform="translate(-121.048 -13.756)"/><path class="d" d="M141.3,21.554a3.843,3.843,0,0,1,1.145-.747,3.637,3.637,0,0,1,1.346-.232,3.44,3.44,0,0,1,1.772.5,3.135,3.135,0,0,1,1.321,1.626l.089.249h1.155l-.176-.5a4.238,4.238,0,0,0-1.846-2.275,4.706,4.706,0,0,0-2.372-.651,4.4,4.4,0,0,0-4.486,4.5,4.585,4.585,0,0,0,1.161,3.065,4.7,4.7,0,0,0,5.936.634,4.252,4.252,0,0,0,1.591-2.075l.182-.5h-1.165l-.086.254a3,3,0,0,1-1.055,1.38,3.573,3.573,0,0,1-3.385.424,3.331,3.331,0,0,1-1.091-.705,3.259,3.259,0,0,1-.752-1.114,3.614,3.614,0,0,1-.262-1.375,3.768,3.768,0,0,1,.272-1.4,2.891,2.891,0,0,1,.705-1.063" transform="translate(-99.317 -13.756)"/><path class="d" d="M112.229,24.589a3.088,3.088,0,0,1-.164.617,3.448,3.448,0,0,1-5.728,1.18,3.615,3.615,0,0,1-.889-2.372,3.454,3.454,0,0,1,.974-2.459,3.4,3.4,0,0,1,2.437-.981,3.489,3.489,0,0,1,1.937.572,3.242,3.242,0,0,1,1.233,1.531,3.053,3.053,0,0,1,.179.593,3.482,3.482,0,0,1,.061.668,3.289,3.289,0,0,1-.04.651m0-5.062V21a4.183,4.183,0,0,0-.8-.7,4.573,4.573,0,0,0-2.566-.772,4.31,4.31,0,0,0-3.335,1.433,4.628,4.628,0,0,0,0,6.106,4.31,4.31,0,0,0,3.336,1.434,4.489,4.489,0,0,0,2.364-.628,4.134,4.134,0,0,0,1-.854V28.5H113.3V19.527Z" transform="translate(-74.436 -13.756)"/><g transform="translate(0.06 0.25)"><g class="c" transform="translate(0)"><path class="d" d="M68.48,20.416a2.865,2.865,0,0,0-1.056-.67,3.919,3.919,0,0,0-2.738.064,3.2,3.2,0,0,0-1.136.8,3.123,3.123,0,0,0-.326.425,2.275,2.275,0,0,0-.281-.412,2.893,2.893,0,0,0-1.12-.816,3.767,3.767,0,0,0-1.457-.276,3.349,3.349,0,0,0-1.385.3,3.1,3.1,0,0,0-.938.665v-.965H56.969V28.5h1.074V23.461a4.194,4.194,0,0,1,.163-1.253,2.426,2.426,0,0,1,.5-.9,1.854,1.854,0,0,1,.713-.547,2.041,2.041,0,0,1,.935-.188,2.866,2.866,0,0,1,1.094.23,1.942,1.942,0,0,1,.739.579,2.155,2.155,0,0,1,.367.711,4.2,4.2,0,0,1,.137,1.2l0,5.2h1.074V23.535a5.773,5.773,0,0,1,.1-1.306,2.24,2.24,0,0,1,.442-.872,1.891,1.891,0,0,1,.829-.6,2.852,2.852,0,0,1,1.9-.032,1.732,1.732,0,0,1,.664.427,2.188,2.188,0,0,1,.522.915,5.049,5.049,0,0,1,.186,1.469V28.5h1.074V23.535a6.135,6.135,0,0,0-.241-1.812,3.1,3.1,0,0,0-.764-1.308" transform="translate(-40.669 -14.006)"/><path class="d" d="M7.629.25,5.837,5.772H0L4.729,9.2,2.937,14.729l4.684-3.418,4.712,3.434L10.534,9.2l4.708-3.423H9.423L7.629.25" transform="translate(-0.017 -0.25)"/></g></g></g></svg>