<svg xmlns="http://www.w3.org/2000/svg" width="24px" height="24px" viewBox="0 0 25 25"><path fill="#228900" fill-rule="evenodd" d="M20.685 17.442l-7.695 3.736v-9.426l3.6-1.747 1.013-.494 3.082-1.495v9.426zm-8.202-6.572l-7.53-3.65L8.55 5.474l7.531 3.652-3.597 1.743zm-.506 10.308l-7.67-3.718V8.033l7.67 3.72v9.425zm.506-17.61l7.531 3.651-2.773 1.346-7.53-3.65 2.772-1.348zm9.215 3.646a.519.519 0 0 0-.05-.223.488.488 0 0 0-.343-.27l-8.599-4.17a.511.511 0 0 0-.442 0L3.581 6.757a.51.51 0 0 0-.288.44V17.78c0 .194.11.372.288.456l8.683 4.21c.004 0 .004 0 .008.003a.154.154 0 0 1 .038.016c.004 0 .008.004.017.004l.038.013c.004 0 .008.005.012.005.013.004.03.004.043.008h.013c.016 0 .038.005.054.005.017 0 .038 0 .055-.005h.013a.156.156 0 0 0 .042-.008c.004 0 .008-.005.013-.005l.038-.013c.004 0 .008-.004.016-.004a.129.129 0 0 0 .04-.016l.007-.004 8.708-4.222a.509.509 0 0 0 .287-.455V7.228c-.008-.005-.008-.01-.008-.014z"/></svg>
