<svg xmlns="http://www.w3.org/2000/svg" width="24" height="24" viewBox="0 0 32 32">
  <defs>
    <mask id="a">
      <path d="M4.198 1.591h10.429v28.817H4.198z"/>
      <path fill="#fff" d="M15.451 31.232H3.375V.768h12.076v30.464zm-10.43-1.646h8.783V2.415H5.021v27.171z"/>
      <path d="M17.372 1.591h10.429v28.817H17.372z"/>
      <path fill="#fff" d="M28.625 31.232H16.548V.768h12.077v30.464zm-10.43-1.646h8.782V2.415h-8.782v27.171z"/>
      <path d="M14.627 18.418a.824.824 0 0 1-.823.824h-1.235a.823.823 0 0 1-.823-.824v-4.425c0-.455.369-.823.823-.823h1.235c.455 0 .823.368.823.823v4.425z"/>
      <path fill="#fff" d="M13.804 20.064h-1.235a1.647 1.647 0 0 1-1.646-1.646v-4.425c0-.909.738-1.647 1.646-1.647h1.235c.908 0 1.646.738 1.646 1.647v4.425a1.647 1.647 0 0 1-1.646 1.646zm-1.235-6.071v4.425h1.236v-4.425h-1.236z"/>
      <path d="M20.254 18.418a.824.824 0 0 1-.824.824h-1.234a.824.824 0 0 1-.823-.824v-4.425c0-.455.369-.823.823-.823h1.234c.455 0 .824.368.824.823v4.425z"/>
      <path fill="#fff" d="M19.43 20.064h-1.234a1.648 1.648 0 0 1-1.647-1.646v-4.425c0-.909.739-1.647 1.647-1.647h1.234c.909 0 1.647.738 1.647 1.647v4.425c0 .908-.738 1.646-1.647 1.646zm-1.235-6.071v4.425h1.236l-.002-4.425h-1.234z"/>
    </mask>
  </defs>
  <path mask="url(#a)" d="M0 0h32v32H0z"/>
</svg>
