<svg xmlns="http://www.w3.org/2000/svg" id="Layer_1" x="0" y="0" version="1.1" width="24px" height="24px" viewBox="0 0 25 25" xml:space="preserve"><style>.st0{fill:#228900}</style><path d="M12.5 2C6.7 2 2 6.7 2 12.5S6.7 23 12.5 23 23 18.3 23 12.5 18.3 2 12.5 2zm0 19.8c-5.1 0-9.3-4.2-9.3-9.3s4.2-9.3 9.3-9.3 9.3 4.2 9.3 9.3-4.2 9.3-9.3 9.3z" class="st0"/><path d="M17.9 8.2c-.2 0-.3.1-.5.2l-6.2 6.4L7.7 12c-.1-.1-.2-.1-.4-.1s-.4.1-.5.2c-.1.3-.1.7.2.9l4 3.2c.1.1.2.1.4.1s.3-.1.5-.2l6.6-6.9c.1-.1.2-.3.2-.4 0-.2-.1-.3-.2-.4-.3-.2-.5-.2-.6-.2z" class="st0"/></svg>
