<svg xmlns="http://www.w3.org/2000/svg" width="24px" height="24px" viewBox="0 0 25 25"><path fill="#231F20" d="M19.202 16.107c-.812-.037-1.496.364-1.955.959-2.982-1.384-5.967-2.77-8.951-4.152.025-.132.049-.264.055-.398.006-.14-.01-.273-.028-.406l8.959-4.137a2.626 2.626 0 0 0 1.92.92c1.432.064 2.491-1.217 2.553-2.554.063-1.432-1.216-2.493-2.553-2.553-1.433-.064-2.493 1.216-2.556 2.553.009.171.031.336.066.495a14385.26 14385.26 0 0 1-8.916 4.118 2.81 2.81 0 0 0-2-.989C4.364 9.9 3.303 11.18 3.242 12.517c.064 1.435 1.12 2.489 2.554 2.554.827.037 1.522-.381 1.98-.993l8.93 4.144c-.03.146-.056.293-.062.44.063 1.434 1.119 2.489 2.555 2.553 1.432.063 2.492-1.216 2.553-2.553.066-1.433-1.213-2.495-2.55-2.555z"/></svg>
