<svg xmlns="http://www.w3.org/2000/svg" id="Layer_1" x="0" y="0" version="1.1" width="24px" height="24px" viewBox="0 0 25 25" xml:space="preserve"><style>.st0{fill:#231f20}</style><path d="M19.2 7.7c0-1.6.3-3.6-.9-4.9-.6-.6-1.4-1-2.3-1h-6c-.9 0-1.9-.1-2.7.4-1 .7-1.5 1.8-1.5 3v14.7c0 1.3.7 2.5 2 3 .8.3 1.7.3 2.6.3h3.7c.8 0 1.6.1 2.4 0 1.6-.2 2.7-1.6 2.7-3.1V7.7zm-12.1-1h10.7v10.7H7.1V6.7zm2.2-3.5H16c1.4.1 1.8 1 1.8 2.1H7.1V5c.1-1.3 1.1-1.8 2.2-1.8zm8.1 17.9c-.6.7-1.5.6-2.3.6h-6c-1.1 0-1.9-.7-2-1.8v-1.2h10.7v.6c0 .7.1 1.3-.4 1.8z" class="st0"/><path d="M10.4 4.9h4.1c.9 0 .9-1.4 0-1.4h-4.1c-.9.1-.9 1.4 0 1.4zm2.1 14.2c-.6 0-1.2.5-1.2 1.2 0 .6.5 1.2 1.1 1.2.6 0 1-.4 1.1-.9 0-.1.1-.2.1-.3 0-.1 0-.2-.1-.3 0-.5-.5-.9-1-.9zm-.2 1.2z" class="st0"/></svg>
