<svg xmlns="http://www.w3.org/2000/svg" width="24px" height="24px" viewBox="0 0 25 25"><g fill="#231F20"><path d="M12.626 10.678c-1.938 0-3.517 1.577-3.517 3.5 0 1.939 1.578 3.518 3.501 3.518 1.938 0 3.517-1.576 3.517-3.499 0-1.942-1.576-3.519-3.501-3.519z"/><path d="M14.572 2.633s.033 2.117-2.116 2.117c-1.99 0-1.987-2.117-1.987-2.117H4.334v19.734h16.332V2.633h-6.094zm-1.946 16.215c-2.58 0-4.668-2.09-4.668-4.651V6.684h1.151v4.438a4.659 4.659 0 0 1 8.168 3.056c0 2.58-2.088 4.67-4.651 4.67z"/></g></svg>
