<svg xmlns="http://www.w3.org/2000/svg" width="24px" height="24px" viewBox="0 0 25 25"><g fill="#231F20"><path d="M12.5 2C6.71 2 2 6.71 2 12.5S6.71 23 12.5 23 23 18.29 23 12.5 18.29 2 12.5 2zm0 19.763c-5.107 0-9.263-4.155-9.263-9.263S7.393 3.237 12.5 3.237s9.263 4.155 9.263 9.263-4.156 9.263-9.263 9.263z"/><path d="M10.33 8.195a.575.575 0 0 0-.556-.028.582.582 0 0 0-.405.579v7.672c0 .485.542.793.961.551l6.644-3.836c.414-.238.414-.863 0-1.102L10.33 8.195zm.316 1.658l4.729 2.729-4.729 2.729V9.853z"/></g></svg>
