<svg xmlns="http://www.w3.org/2000/svg" width="24px" height="24px" viewBox="0 0 25 25"><path fill="#228900" d="M22.748 12.61l-3.312-4.26c-.241-.308-.54-.35-.831-.35-.046 0-.093 0-.145.002a7.506 7.506 0 0 1-.148.002h-1.211V4.723a.64.64 0 0 0-.64-.638H2.693a.638.638 0 0 0-.638.638V17.46a.64.64 0 0 0 .638.639h1.47c-.01.073-.016.146-.019.216-.054 1.189.916 2.521 2.575 2.598 1.477.063 2.479-1.219 2.587-2.449a.695.695 0 0 0 .01-.134.706.706 0 0 0-.008-.129l-.011-.102h6.639a2.055 2.055 0 0 0-.021.215c-.054 1.19.916 2.521 2.576 2.599l.104.002c1.416 0 2.375-1.25 2.481-2.451a.625.625 0 0 0 .009-.134.662.662 0 0 0-.007-.13.94.94 0 0 0-.014-.101h1.221a.64.64 0 0 0 .639-.639v-3.622c0-.065.005-.139.009-.223.019-.337.04-.717-.185-1.005zm-1.101.655v3.559h-1.068c-.473-.651-1.225-1.046-2.067-1.084a2.285 2.285 0 0 0-1.412.409V9.283h1.451l3.096 3.982zm-4.365 4.545c.018-.026.031-.058.042-.079.216-.405.692-.692 1.188-.716.019-.002.035-.002.053-.002.73 0 1.218.685 1.248 1.308-.043.867-.709 1.264-1.311 1.264-.604 0-1.271-.396-1.312-1.27a1.19 1.19 0 0 1 .092-.505zm-11.772 0c.018-.027.031-.058.04-.079.216-.405.693-.692 1.188-.716.758-.03 1.268.666 1.299 1.306-.041.867-.708 1.264-1.31 1.264-.603 0-1.271-.396-1.31-1.27a1.182 1.182 0 0 1 .093-.505zm-2.178-.989V5.363h12.492v11.458H8.807c-.473-.651-1.223-1.047-2.067-1.084-.034-.002-.068-.002-.102-.002-.784 0-1.504.396-1.982 1.086H3.332z"/></svg>
