<svg xmlns="http://www.w3.org/2000/svg" width="24px" height="24px" viewBox="0 0 25 25"><path fill="#231F20" d="M12.5 2c-.317 0-.639.214-.639.625v3.851c0 .41.321.625.639.625.316 0 .639-.215.639-.625V2.625c0-.411-.323-.625-.639-.625zm0 15.898c-.317 0-.639.216-.639.625v3.852c0 .41.321.625.639.625.316 0 .639-.215.639-.625v-3.852c0-.409-.323-.625-.639-.625zm9.875-6.037h-3.852c-.41 0-.625.321-.625.639 0 .317.215.639.625.639h3.852c.41 0 .625-.322.625-.639s-.215-.639-.625-.639zm-15.899 0H2.624c-.41 0-.624.322-.624.639s.214.639.624.639h3.852c.41 0 .624-.322.624-.639s-.214-.639-.624-.639zm10.735-3.17l2.723-2.723c.291-.29.215-.669-.01-.893-.224-.224-.604-.3-.893-.009l-2.725 2.723c-.289.29-.214.668.01.893.226.224.605.299.895.009zm0 7.618c-.29-.289-.669-.215-.893.01-.226.225-.301.604-.01.894l2.723 2.724c.289.289.669.215.893-.01.225-.225.301-.604.01-.894l-2.723-2.724zM5.968 5.066c-.29-.29-.669-.215-.893.009-.225.224-.3.603-.01.893l2.724 2.723c.289.29.668.214.893-.01s.3-.603.01-.893L5.968 5.066z"/></svg>
