<svg xmlns="http://www.w3.org/2000/svg" id="Layer_1" x="0" y="0" version="1.1" width="24px" height="24px" viewBox="0 0 25 25" xml:space="preserve"><style>.st0{fill:#de3412}</style><path d="M12.5 14.7c.4 0 .6-.3.6-.6V6.4c0-.3-.3-.6-.6-.6-.4 0-.6.3-.6.6V14c0 .4.2.7.6.7z" class="st0"/><circle cx="12.5" cy="18" r="1.2" class="st0"/><path d="M12.5 2C6.7 2 2 6.7 2 12.5S6.7 23 12.5 23 23 18.3 23 12.5 18.3 2 12.5 2zm0 19.8c-5.1 0-9.3-4.2-9.3-9.3s4.2-9.3 9.3-9.3 9.3 4.2 9.3 9.3-4.2 9.3-9.3 9.3z" class="st0"/></svg>
