<svg xmlns="http://www.w3.org/2000/svg" id="Layer_1" x="0" y="0" version="1.1" width="24px" height="24px" viewBox="0 0 25 25" xml:space="preserve"><style>.st0{display:none}.st1{fill:#231f20}.st1,.st2{display:inline}.st3{fill:#231f20}</style><g id="Layer_1_1_" class="st0"><path d="M22.3 4.1H2.7c-.4 0-.7.2-.7.6v15.6c0 .4.3.6.6.6h19.7c.2 0 .3-.1.4-.2s.2-.3.2-.5V4.7c.1-.4-.2-.6-.6-.6zm-.6 2.3v12.4l-6.8-6.5 6.8-5.9zm-10.6 6.8c.5.3 1 .5 1.4.5.5 0 .9-.2 1.4-.5l6.8 6.5H4.3l6.8-6.5zm1.4-.8c-.2 0-.5-.1-.8-.3L4 5.3h17l-7.9 6.9c-.2.2-.4.2-.6.2zm-2.4 0l-6.8 6.4V6.4l6.8 6z" class="st1"/></g><g id="Layer_2" class="st0"><g class="st2"><path d="M19 7.8c0-1.6.3-3.5-.9-4.8-.6-.6-1.4-1-2.3-1H10c-.8 0-1.8-.1-2.6.4-1 .7-1.5 1.8-1.5 2.9v14.4c0 1.3.7 2.4 2 2.9.8.4 1.6.4 2.5.4H14c.8 0 1.6.1 2.3 0 1.6-.2 2.6-1.6 2.6-3v-4.6c.1-2.7.1-5.2.1-7.6zm-11.8-1h10.5v10.5H7.2V6.8zm2.2-3.4H16c1.4.1 1.8 1 1.8 2.1H7.3v-.3c0-1.3 1-1.8 2.1-1.8zm7.9 17.5c-.6.7-1.5.6-2.3.6H9.1c-1.1 0-1.9-.7-2-1.8v-1.2h10.5v.6c.1.7.2 1.3-.3 1.8z" class="st3"/><path d="M10.4 5h4c.9 0 .9-1.4 0-1.4h-4c-.9.2-.9 1.4 0 1.4zm1.9 15.1zm1.4 0c0 .6-.5 1.2-1.2 1.2s-1.2-.5-1.2-1.2c0-.6.5-1.2 1.2-1.2s1.2.6 1.2 1.2z" class="st3"/></g></g><g id="Layer_3"><path d="M19.1 2.3H5.9c-.7 0-1.2.5-1.2 1.2v18.1c0 .6.4 1 .9 1 .2 0 .3 0 .5-.1l.7-.3c.1-.1.6-.1.7 0l.7.3c.3.1.6.2.8.2s.5 0 .8-.2l.7-.3c.1-.1.6-.1.7 0l.7.3c.3.1.6.2.8.2s.5 0 .8-.2l.7-.3c.1-.1.6-.1.7 0l.7.3c.3.1.6.2.8.2s.5 0 .8-.2l.7-.3c.1-.1.6-.1.7 0l.7.3c.2.1.3.1.5.1.3 0 .5-.1.7-.3.2-.2.3-.4.3-.7V3.5c0-1.2-1-1.2-1.7-1.2zm.1 18.9l-.5-.2c-.3-.1-.6-.2-.8-.2-.2 0-.5 0-.8.2l-.7.3c-.1.1-.6.1-.7 0l-.6-.3c-.3-.1-.6-.2-.8-.2s-.5 0-.8.2l-.7.3c-.1.1-.6.1-.7 0l-.6-.3c-.3-.1-.6-.2-.8-.2s-.5 0-.8.2l-.7.3c-.1.1-.6.1-.7 0l-.6-.3c-.3-.1-.6-.2-.8-.2-.2 0-.5 0-.8.2l-.4.2V3.6h13.4l-.1 17.6z" class="st3"/><path d="M17.2 14.8H16c-.8.1-.8 1.3 0 1.3h1.2c.8 0 .8-1.3 0-1.3zm-9.3-1.2H13c.8 0 .8-1.3 0-1.3H7.9c-.8 0-.8 1.3 0 1.3zm0 2.5h3.2c.8 0 .8-1.3 0-1.3H7.9c-.8.1-.8 1.3 0 1.3zm0 2.6h4.4c.8 0 .8-1.3 0-1.3H7.9c-.8 0-.8 1.3 0 1.3zm9.3-6.4H16c-.8.1-.8 1.3 0 1.3h1.2c.8 0 .8-1.3 0-1.3zm0 5.1H16c-.8.1-.8 1.3 0 1.3h1.2c.8 0 .8-1.3 0-1.3zm-4.7-7.6c.8 0 1.5-.7 1.5-1.5s-.7-1.5-1.5-1.5-1.5.7-1.5 1.5c0 .9.7 1.5 1.5 1.5m-1.8-1.4v-3h.3v1.8c.4-.4.9-.7 1.5-.7 1 0 1.8.8 1.8 1.8s-.8 1.8-1.8 1.8c-1 .1-1.8-.7-1.8-1.7" class="st3"/></g></svg>
