<svg xmlns="http://www.w3.org/2000/svg" width="24px" height="24px" viewBox="0 0 25 25"><g fill="#231F20"><path d="M19.651 8.468l1.171-1.171c.596-.596-.327-1.52-.923-.924l-1.114 1.115a9.997 9.997 0 0 0-1.052-.896 8.494 8.494 0 0 0-3.079-1.409V3.352a.36.36 0 0 0-.003-.047h.66c.842 0 .842-1.306 0-1.306H9.688c-.842 0-.842 1.306 0 1.306h.509l-.002.047v1.876a8.997 8.997 0 0 0-.813.251c-2.715.985-4.778 3.275-5.588 6.03-.84 2.856-.094 5.936 1.742 8.229 2.369 2.96 6.562 4.003 10.086 2.724 3.55-1.289 5.887-4.745 5.927-8.491a9.139 9.139 0 0 0-1.898-5.503zm-8.153-5.162h1.853l-.002.047v1.619a9.215 9.215 0 0 0-1.849.018V3.353a.68.68 0 0 0-.002-.047zm4.409 17.621c-2.635 1.345-5.961.919-8.25-.913-2.323-1.859-3.347-4.932-2.692-7.818.646-2.855 2.95-5.062 5.761-5.762 4.823-1.2 9.466 2.676 9.518 7.538-.033 2.971-1.696 5.606-4.337 6.955z"/><path d="M16.228 11.389L13.13 13.16V8.655c0-.843-1.306-.843-1.306 0v5.596a.59.59 0 0 0 .275.524.598.598 0 0 0 .724.064l4.062-2.324c.731-.417.074-1.545-.657-1.126z"/></g></svg>
