<svg xmlns="http://www.w3.org/2000/svg" width="24" height="24" viewBox="0 0 27 35">
  <defs>
    <mask id="a">
      <g fill="none" fill-rule="evenodd">
        <path fill="#fff" d="M13.492.964c2.25 0 4.094 2.064 4.258 4.67H9.234c.164-2.606 2.009-4.67 4.258-4.67zm4.992 4.67c-.17-3.016-2.34-5.413-4.992-5.413-2.651 0-4.822 2.397-4.991 5.414H0v29.14h26.985V5.636h-8.501z" mask="url(#b)"/>
        <path fill="#000" d="M15.234 9.15a7.534 7.534 0 0 0-1.734-.146 7.548 7.548 0 0 0-1.733.146c-3.14.632-5.728 3.822-5.766 7.11a8.482 8.482 0 0 0 .948 4.011c.69 1.345 1.446 2.655 2.183 3.974C10.518 26.73 13.5 32 13.5 32s2.982-5.27 4.369-7.755c.736-1.319 1.492-2.629 2.18-3.974A8.47 8.47 0 0 0 21 16.26c-.037-3.288-2.625-6.477-5.765-7.11"/>
        <path fill="#fff" d="M13.5 20.168c1.45 0 2.625-1.12 2.625-2.499 0-1.38-1.176-2.497-2.625-2.497-1.45 0-2.624 1.116-2.624 2.497 0 1.38 1.174 2.499 2.624 2.499M10 17.669V12h.876v3.456c.64-.684 1.503-1.116 2.624-1.116 1.931 0 3.502 1.49 3.5 3.33-.001 1.839-1.57 3.33-3.5 3.33S10 19.506 10 17.67"/>
      </g>
    </mask>
  </defs>
  <path mask="url(#a)" d="M0 0h27v35H0z"/>
</svg>
