<svg xmlns="http://www.w3.org/2000/svg" width="24px" height="24px" viewBox="0 0 25 25"><path fill="#231F20" d="M21.073 17.061a.646.646 0 0 0-.098-.123l-3.074-3.073a.635.635 0 0 0-.902 0l-1.561 1.561-6.067-6.07 1.561-1.561a.645.645 0 0 0 0-.902L8.075 4.037a.672.672 0 0 0-.122-.098.662.662 0 0 0-.45-.189.599.599 0 0 0-.43.188L5.282 5.73c-.652.645-1.266 1.256-1.469 2.215-.313 1.479.447 3.042 1.232 4.376.681 1.156 1.586 2.322 2.849 3.666 1.736 1.851 4.407 4.396 7.541 5.152.307.074.611.111.908.111.924 0 1.779-.369 2.479-1.066l2.25-2.25c.29-.293.206-.655.001-.873zM8.017 8.905a.647.647 0 0 0 0 .902l6.97 6.97c.119.119.279.186.451.186s.332-.066.451-.186l1.561-1.562 2.266 2.267-1.014 1.014c-.098.098-.193.197-.289.297-.502.523-.977 1.02-1.678 1.168a2.292 2.292 0 0 1-.451.045c-1.199 0-2.555-.879-3.454-1.461-1.063-.693-2.126-1.566-3.342-2.754a22.786 22.786 0 0 1-2.877-3.386C5.87 11.321 5.018 9.894 5.03 8.471c.007-.751.57-1.288 1.115-1.807.096-.091.189-.182.279-.271l1.102-1.101 2.052 2.052-1.561 1.561z"/></svg>
