<svg xmlns="http://www.w3.org/2000/svg" width="24px" height="24px" viewBox="0 0 25 25"><path fill="#231F20" d="M12.5 2C6.711 2 2 6.71 2 12.5 2 18.289 6.711 23 12.5 23 18.29 23 23 18.289 23 12.5 23 6.71 18.29 2 12.5 2zm6.503 13.785c-.133.311-.694.538-1.719.697-.034.045-.069.209-.091.308a4.974 4.974 0 0 1-.075.304.296.296 0 0 1-.302.228h-.018c-.07 0-.171-.013-.295-.036a3.408 3.408 0 0 0-.695-.074c-.162 0-.33.015-.498.043-.33.056-.61.253-.938.481-.465.329-.991.7-1.793.7-.036 0-.069 0-.096-.002-.021.002-.044.002-.065.002-.802 0-1.328-.371-1.794-.7-.325-.229-.605-.429-.936-.481a3.077 3.077 0 0 0-.499-.043c-.293 0-.526.046-.696.079-.113.021-.211.041-.294.041a.304.304 0 0 1-.317-.23 4.134 4.134 0 0 1-.075-.307c-.021-.1-.058-.264-.092-.311-1.023-.158-1.585-.389-1.719-.697a.355.355 0 0 1-.028-.122.27.27 0 0 1 .226-.282c1.776-.293 2.576-2.115 2.609-2.193l.006-.013c.095-.191.115-.354.062-.479-.103-.242-.48-.362-.729-.441a2.645 2.645 0 0 1-.19-.063c-.605-.239-.689-.515-.654-.702.05-.263.368-.438.635-.438.077 0 .146.015.207.042.228.107.43.161.602.161a.517.517 0 0 0 .254-.056 31.697 31.697 0 0 1-.02-.317c-.056-.889-.125-1.993.164-2.643.862-1.933 2.688-2.082 3.228-2.082l.227-.002h.032c.54 0 2.371.149 3.23 2.083.291.649.223 1.755.166 2.643l-.003.037-.018.28c.04.021.111.049.221.054.162-.007.354-.061.562-.16a.599.599 0 0 1 .25-.05c.094 0 .189.018.271.052.241.086.396.262.397.456.005.249-.22.463-.661.638a2.713 2.713 0 0 1-.188.064c-.25.079-.629.199-.73.441-.053.125-.031.285.062.478l.006.015c.033.078.832 1.899 2.608 2.192a.272.272 0 0 1 .228.281.278.278 0 0 1-.025.124z"/></svg>
