<svg xmlns="http://www.w3.org/2000/svg" width="24" height="24" viewBox="0 0 25 25">
  <defs>
    <mask id="a">
      <path fill="#fff" d="m19.652 8.468 1.171-1.171c.596-.596-.327-1.52-.924-.924l-1.114 1.115a9.885 9.885 0 0 0-1.051-.896 8.491 8.491 0 0 0-3.08-1.409V3.351c0-.016 0-.03-.002-.046h.66c.842 0 .842-1.306 0-1.306H9.688c-.842 0-.842 1.306 0 1.306h.51l-.002.046v1.877c-.275.07-.547.154-.814.251-2.714.985-4.777 3.275-5.587 6.03-.84 2.856-.094 5.936 1.742 8.229 2.368 2.96 6.562 4.003 10.086 2.724 3.55-1.289 5.887-4.745 5.926-8.492a9.137 9.137 0 0 0-1.897-5.502z"/>
      <path d="m16.228 11.389-3.097 1.771V8.655c0-.842-1.306-.842-1.306 0v5.596c0 .248.114.423.274.524a.601.601 0 0 0 .725.064l4.062-2.324c.731-.417.074-1.545-.658-1.126z"/>
    </mask>
  </defs>
  <path mask="url(#a)" d="M0 0h24v24H0z"/>
</svg>
