<svg xmlns="http://www.w3.org/2000/svg" width="24px" height="24px" viewBox="0 0 25 25"><path fill="#231F20" d="M20.926 7.171l-3.097-3.097a.66.66 0 0 0-.923 0c-2.09 2.091-4.181 4.182-6.272 6.271l-4.025 4.027c-.537.537-1.425 1.154-1.632 1.93l-1.069 3.986a.66.66 0 0 0 .803.803c1.369-.367 2.738-.732 4.107-1.1.037-.01.061-.033.093-.047.021-.01.042-.008.063-.02.022-.012.043-.031.065-.045.013-.01.027-.018.04-.027.685-.412 1.251-1.164 1.802-1.715l4.048-4.049 5.996-5.996a.655.655 0 0 0 .001-.921zM6.25 16.592a.508.508 0 0 0 .028-.051l-.029.055.001-.004zm7.849-3.516l-4.007 4.008-1.282 1.283c-.113.111-.226.225-.339.338-.024.023-.024.027-.035.039l-2.976.797.273-1.021.368-1.373.12-.447c.008-.031.017-.062.024-.094.018-.025.054-.08.09-.115l.418-.418 1.44-1.441 8.306-8.306.867-.867 2.176 2.175-5.443 5.442z"/><path fill="#231F20" d="M5.698 16.295l3.008 3.008c.595.596 1.518-.328.922-.922-1.002-1.004-2.005-2.006-3.007-3.008-.596-.596-1.518.326-.923.922z"/></svg>
