<svg xmlns="http://www.w3.org/2000/svg" width="24px" height="24px" viewBox="0 0 65 62"><g fill="none" fill-rule="evenodd" transform="translate(1 1)"><circle cx="30" cy="30" r="30" stroke="#000" stroke-width="1.2"/><rect width="28.8" height="22.8" x="15.6" y="18.6" stroke="#000" stroke-width="1.2" rx="3"/><path stroke="#000" stroke-linecap="square" stroke-width="1.2" d="M16.5 24.5h27.019m-27.019 4h28"/><path stroke="#000" stroke-linecap="round" stroke-width="1.2" d="M19.5 36.5h3.162m3.838 0h7.071"/><g transform="translate(44 1)"><circle cx="10" cy="10" r="10" fill="#FFF"/><path fill="#000" fill-rule="nonzero" d="M10 1.176c-4.866 0-8.824 3.958-8.824 8.824S5.134 18.824 10 18.824c4.865 0 8.824-3.958 8.824-8.824S14.864 1.176 10 1.176zm4.9 9.367h-4.367v4.367a.534.534 0 0 1-1.067 0v-4.367H5.1a.533.533 0 0 1 0-1.065h4.367V5.112a.534.534 0 0 1 1.067 0v4.367H14.9a.532.532 0 1 1 0 1.064z"/></g></g></svg>
