<svg xmlns="http://www.w3.org/2000/svg" width="24px" height="24px" viewBox="0 0 25 25"><g fill="#231F20"><path d="M12.5 2C6.711 2 2 6.709 2 12.5 2 18.289 6.711 23 12.5 23 18.291 23 23 18.289 23 12.5 23 6.709 18.291 2 12.5 2zm0 19.762c-5.106 0-9.263-4.154-9.263-9.262 0-5.106 4.155-9.263 9.263-9.263s9.264 4.155 9.264 9.263-4.157 9.262-9.264 9.262z"/><path d="M13.135 12.104V5.963a.635.635 0 0 0-1.268 0v6.406c.003.166.068.32.182.437l4.129 4.267a.631.631 0 0 0 .896 0 .637.637 0 0 0 .002-.895l-3.941-4.074z"/></g></svg>
