<svg xmlns="http://www.w3.org/2000/svg" width="24px" height="24px" viewBox="0 0 25 25"><g fill="#231F20"><path d="M12.5 2C6.71 2 2 6.71 2 12.5S6.71 23 12.5 23 23 18.29 23 12.5 18.29 2 12.5 2zm3.688 15.518c0 .875-.696 1.586-1.56 1.586h-4.384c-.86 0-1.559-.711-1.559-1.586V7.862c0-.875.698-1.585 1.559-1.585h4.384c.86 0 1.56.71 1.56 1.586v9.655z"/><circle cx="12.5" cy="17.904" r=".66"/><path d="M9.196 8.039h6.541v8.709H9.196zm2.187-.581h2.233a.158.158 0 0 0 .159-.16c0-.088-.07-.16-.159-.16h-2.233a.16.16 0 1 0 0 .32z"/></g></svg>
