<svg xmlns="http://www.w3.org/2000/svg" width="24px" height="24px" viewBox="0 0 25 25"><path fill="#231F20" d="M21.343 4.978h-4.119V3.701c0-.41-.32-.625-.639-.625s-.639.215-.639.625v1.276H9.053V3.701c0-.41-.321-.625-.638-.625s-.639.215-.639.625v1.276H3.659a.639.639 0 0 0-.638.639v15.669c0 .354.286.639.638.639h17.684a.594.594 0 0 0 .449-.184.61.61 0 0 0 .188-.455V5.616a.64.64 0 0 0-.637-.638zM8.926 20.646H4.297v-4.133h4.629v4.133zm0-5.408H4.297v-4.134h4.629v4.134zm.127-7.708c0 .41-.321.625-.638.625s-.639-.216-.639-.625V6.062h1.276l.001 1.468zm5.745 13.116h-4.595v-4.133h4.595v4.133zm0-5.408h-4.595v-4.134h4.595v4.134zm1.148-9.176h1.277V7.53c0 .41-.322.625-.641.625s-.637-.215-.637-.625V6.062zm4.758 14.584h-4.629v-4.133h4.629v4.133zm0-5.408h-4.629v-4.134h4.629v4.134z"/></svg>
