<svg xmlns="http://www.w3.org/2000/svg" width="24px" height="24px" viewBox="0 0 25 25"><path fill="#231F20" d="M19.414 16.026c-.718-.869-1.892-1.341-2.835-1.718-.159-.063-.32-.123-.479-.185-.509-.188-.984-.363-1.419-.668-.023-.021-.048-.037-.07-.058h-.002c-.002-.013-.006-.022-.008-.039l-.006-.024c1.396-.932 2.281-2.68 2.313-4.58.025-1.56-.631-3.251-1.672-4.31-.765-.778-1.699-1.19-2.704-1.19h-.041c-1.258.017-2.348.617-3.154 1.738-.677.942-1.108 2.213-1.186 3.484-.119 1.97.79 3.892 2.319 4.917l-.006.024-.948.489c-.399.207-.821.373-1.229.533-.665.261-1.353.528-1.962.987-1.945 1.461-2.145 4.111-1.724 5.939.05.215.262.379.493.379h14.901a.47.47 0 0 0 .477-.367.566.566 0 0 0 .034-.133c.149-1.272.204-3.647-1.092-5.218z"/></svg>
