<svg xmlns="http://www.w3.org/2000/svg" width="24px" height="24px" viewBox="0 0 25 25"><g fill="#231F20"><path d="M12.484 14.68c.35 0 .634-.285.634-.635v-7.6a.634.634 0 0 0-1.269 0v7.6c.001.35.285.635.635.635z"/><circle cx="12.5" cy="17.95" r="1.239"/></g><path fill="#231F20" d="M12.5 2C6.71 2 2 6.711 2 12.5 2 18.29 6.71 23 12.5 23S23 18.29 23 12.5C23 6.711 18.29 2 12.5 2zm0 19.764c-5.107 0-9.263-4.156-9.263-9.264S7.393 3.237 12.5 3.237s9.264 4.155 9.264 9.263c0 5.107-4.157 9.264-9.264 9.264z"/></svg>
