<svg xmlns="http://www.w3.org/2000/svg" width="24px" height="24px" viewBox="0 0 25 25"><path fill="#231F20" d="M21.605 7.285c-1.295-1.297-2.593-2.594-3.891-3.892a.643.643 0 0 0-.9 0L3.822 16.385l-.43.432a.643.643 0 0 0 0 .9l3.891 3.891a.645.645 0 0 0 .902 0l1.911-1.91-1.379-1.379c-.582-.582.32-1.484.903-.902l1.378 1.379 1.265-1.266-2.46-2.459c-.583-.584.32-1.485.902-.902.82.818 1.641 1.641 2.458 2.46l1.266-1.265-1.406-1.407c-.582-.582.319-1.485.901-.902l1.407 1.406 1.266-1.265-2.459-2.46c-.584-.582.317-1.485.9-.902l2.46 2.46c.452-.452.902-.903 1.355-1.354l-1.379-1.379c-.584-.583.318-1.484.9-.902l1.379 1.379 1.418-1.418.43-.43a.592.592 0 0 0 .188-.45.563.563 0 0 0-.184-.455z"/></svg>
