<svg xmlns="http://www.w3.org/2000/svg" id="Layer_1" x="0" y="0" version="1.1" width="24px" height="24px" viewBox="0 0 25 25" xml:space="preserve"><style>.st0{fill:#231f20}</style><path d="M21.8 7.7c0-.1-.1-.3-.2-.4l-3.9-3.9c-.2-.2-.7-.2-.9 0l-13 13-.4.4c-.2.2-.2.7 0 .9l3.9 3.9c.2.2.7.2.9 0l13-13 .4-.4c.1-.1.2-.3.2-.4v-.1zm-2.9 1.4l-.8-.8c-.2-.2-.7-.2-.9 0-.2.2-.2.7 0 .9l.8.8-1.4 1.4L15 9.8c-.6-.6-1.5.3-.9.9l1.6 1.6-1.3 1.3-.8-.8c-.6-.6-1.5.3-.9.9l.8.8-1.3 1.3-1.6-1.6c-.6-.6-1.5.3-.9.9l1.6 1.6L10 18l-.8-.8c-.6-.6-1.5.3-.9.9l.8.8-1.5 1.5-3-3L17.1 4.9l3 3-1.2 1.2z" class="st0"/></svg>
