<svg xmlns="http://www.w3.org/2000/svg" width="24px" height="24px" viewBox="0 0 25 25"><g fill="#231F20"><path d="M20.27 8.085c-.317 0-.64.214-.64.625v12.958H5.368V8.709c0-.41-.321-.625-.639-.625s-.637.215-.637.625v13.597c0 .353.286.64.638.64h15.54a.64.64 0 0 0 .639-.64V8.709c-.002-.41-.324-.624-.639-.624z"/><path d="M8.732 7.038a.616.616 0 0 0 .452-.197l2.676-2.667v12.451c0 .41.321.625.639.625s.64-.215.64-.625V4.161l2.729 2.758.015.013a.618.618 0 0 0 .866-.095.616.616 0 0 0-.083-.854l-3.8-3.78-.014-.013a.615.615 0 0 0-.838.063l-3.739 3.76a.611.611 0 0 0 .05.868.612.612 0 0 0 .407.157z"/></g></svg>
