<svg xmlns="http://www.w3.org/2000/svg" width="24px" height="24px" viewBox="0 0 25 25"><path fill="#231F20" d="M12.5 2C6.71 2 2 6.71 2 12.5 2 18.291 6.71 23 12.5 23 18.289 23 23 18.291 23 12.5 23 6.71 18.289 2 12.5 2zm5.288 8.261c.004.104.007.209.007.316 0 3.23-2.459 6.958-6.957 6.958a6.89 6.89 0 0 1-3.747-1.103 4.905 4.905 0 0 0 3.619-1.012 2.45 2.45 0 0 1-2.284-1.697c.149.029.303.043.461.043.222 0 .438-.026.645-.086a2.443 2.443 0 0 1-1.962-2.395v-.031c.329.185.706.293 1.107.306a2.442 2.442 0 0 1-.757-3.263 6.94 6.94 0 0 0 5.04 2.555 2.445 2.445 0 0 1 4.166-2.231 4.896 4.896 0 0 0 1.554-.593 2.451 2.451 0 0 1-1.076 1.352 4.825 4.825 0 0 0 1.404-.384c-.328.49-.742.921-1.22 1.265z"/></svg>
