<svg xmlns="http://www.w3.org/2000/svg" width="24px" height="24px" viewBox="0 0 25 25"><path fill="#231F20" d="M22.334 4.059H2.667a.64.64 0 0 0-.64.638v15.605a.64.64 0 0 0 .64.639h19.667a.591.591 0 0 0 .449-.185.603.603 0 0 0 .189-.454V4.696a.638.638 0 0 0-.638-.637zm-.639 2.379v12.373l-6.805-6.457 6.805-5.916zM11.05 13.197c.499.344.974.511 1.449.511.461 0 .909-.151 1.374-.472l.049-.041 6.82 6.47H4.253l6.797-6.468zm1.45-.765c-.229 0-.478-.103-.772-.317L4 5.335h17.035l-7.904 6.864c-.234.156-.44.233-.631.233zm-2.423-.071l-6.771 6.444V6.413l6.771 5.948z"/></svg>
