<svg xmlns="http://www.w3.org/2000/svg" width="24px" height="24px" viewBox="0 0 25 25"><g fill="#231F20"><path d="M17.413 5.055c-1.182-1.393-2.961-2.189-4.885-2.189-.974 0-1.954.209-2.836.604-2.645 1.19-4.13 4.144-3.611 7.182.271 1.594 1.324 2.917 2.342 4.197.296.371.575.725.835 1.08 1.143 1.566 2.563 3.517 2.605 5.582a.594.594 0 0 0 .163.438.66.66 0 0 0 .474.186h.014c.18 0 .35-.066.464-.186a.59.59 0 0 0 .163-.436c.032-1.569.881-3.014 1.676-4.243.584-.903 1.244-1.778 1.883-2.628.351-.465.714-.945 1.06-1.428 1.802-2.507 1.665-5.786-.347-8.159zm-9.695 6.543c-.378-.759-.537-1.702-.463-2.73.096-1.318.802-2.627 1.938-3.59.894-.757 2.01-1.157 3.229-1.157 1.698 0 3.307.784 4.301 2.099.907 1.2 1.244 2.772.924 4.313-.25 1.205-1.051 2.218-1.828 3.198-.185.231-.375.476-.553.711l-.127.171c-.931 1.238-1.979 2.637-2.627 4.141-.691-1.635-1.828-3.11-2.929-4.541-.279-.36-.542-.703-.796-1.045l-.207-.275c-.313-.412-.635-.838-.862-1.295zm4.796 10.436v.004-.004z"/><path d="M12.501 12.098c1.576 0 2.857-1.281 2.857-2.857s-1.281-2.857-2.857-2.857-2.858 1.28-2.858 2.856 1.282 2.858 2.858 2.858zm0-4.439c.872 0 1.582.709 1.582 1.581 0 .873-.71 1.582-1.582 1.582s-1.582-.709-1.582-1.582c0-.872.71-1.581 1.582-1.581z"/></g></svg>
