<svg xmlns="http://www.w3.org/2000/svg" width="24px" height="24px" viewBox="0 0 25 25"><g fill="#231F20"><path d="M9.062 16.247h6.812a.636.636 0 0 0 0-1.269H9.062a.634.634 0 0 0 0 1.269zm0 2.679h6.812a.635.635 0 0 0 0-1.269H9.062a.635.635 0 0 0 0 1.269z"/><path d="M19.458 7.025h-.118V3.77a.645.645 0 0 0-.639-.639H6.233a.645.645 0 0 0-.639.639v3.255h-.051a2.557 2.557 0 0 0-2.554 2.554v6.255a2.557 2.557 0 0 0 2.554 2.554h.085v2.842c0 .349.29.639.639.639h12.468a.585.585 0 0 0 .45-.187.59.59 0 0 0 .188-.452v-2.842h.085a2.557 2.557 0 0 0 2.553-2.554V9.579a2.557 2.557 0 0 0-2.553-2.554zM6.872 4.408h11.191v2.617H6.872V4.408zm11.224 16.184H6.905v-7.404h11.191v7.404z"/></g></svg>
