<svg xmlns="http://www.w3.org/2000/svg" id="Layer_1" x="0" y="0" version="1.1" width="24px" height="24px" viewBox="0 0 25 25" xml:space="preserve"><style>.st0{fill:#231f20}</style><path d="M12.5 2C6.7 2 2 6.7 2 12.5S6.7 23 12.5 23 23 18.3 23 12.5 18.3 2 12.5 2zm0 19.8c-5.1 0-9.3-4.2-9.3-9.3s4.2-9.3 9.3-9.3 9.3 4.2 9.3 9.3-4.2 9.3-9.3 9.3z" class="st0"/><path d="M10.3 8.2c-.2-.1-.4-.1-.6 0-.2 0-.3.2-.3.5v7.7c0 .5.5.8 1 .6 2.2-1.3 4.4-2.6 6.6-3.8.4-.2.4-.9 0-1.1-2.2-1.3-4.5-2.6-6.7-3.9z" class="st0"/></svg>
