<svg xmlns="http://www.w3.org/2000/svg" width="24px" height="24px" viewBox="0 0 25 25"><path fill="#231F20" d="M19.201 16.105c-.812-.035-1.496.366-1.955.961-2.982-1.384-5.968-2.77-8.951-4.152.025-.132.049-.265.055-.399.006-.14-.01-.273-.028-.405 2.986-1.379 5.973-2.757 8.959-4.137a2.632 2.632 0 0 0 1.92.921c1.432.062 2.492-1.218 2.553-2.555.064-1.432-1.216-2.493-2.553-2.553-1.432-.064-2.493 1.216-2.555 2.553.009.171.03.336.065.495-2.971 1.374-5.941 2.746-8.915 4.118a2.814 2.814 0 0 0-2-.989c-1.432-.064-2.493 1.217-2.554 2.554.064 1.435 1.12 2.489 2.554 2.554.827.037 1.522-.381 1.98-.993 2.977 1.381 5.955 2.762 8.931 4.144a3.003 3.003 0 0 0-.061.44c.062 1.434 1.119 2.487 2.554 2.553 1.432.063 2.493-1.216 2.553-2.553.064-1.433-1.215-2.495-2.552-2.557zm1.278-9.765c.073 1.649-2.479 1.643-2.555 0 .074-1.647 2.479-1.647 2.555 0zM4.521 12.516c.074-1.646 2.479-1.646 2.554 0 .072 1.649-2.481 1.642-2.554 0zm13.403 6.144c.074-1.646 2.479-1.646 2.555 0 .073 1.651-2.481 1.642-2.555 0z"/></svg>
