<svg xmlns="http://www.w3.org/2000/svg" width="24px" height="24px" viewBox="0 0 25 25"><g fill="#231F20"><path d="M21.264 11.881c-.315 0-.639.213-.639.621l-.012 8.148-16.264-.011.013-16.264h8.189c.19 0 .352-.07.467-.203a.664.664 0 0 0 .153-.436c0-.317-.213-.638-.621-.638H3.724a.648.648 0 0 0-.639.638l-.014 17.48v.06c0 .168.067.328.188.449a.627.627 0 0 0 .45.188l17.48.014h.06c.347 0 .64-.293.64-.639l.014-8.788a.61.61 0 0 0-.17-.437.673.673 0 0 0-.469-.182z"/><path d="M16.066 4.349h3.643l-7.743 7.729a.586.586 0 0 0-.141.663.688.688 0 0 0 .613.428.597.597 0 0 0 .431-.188l7.783-7.77v3.723c0 .408.32.621.637.621.318 0 .639-.213.639-.621V3.71a.646.646 0 0 0-.639-.638h-5.223c-.406 0-.619.321-.619.638 0 .318.213.639.619.639z"/></g></svg>
