<svg xmlns="http://www.w3.org/2000/svg" width="24px" height="24px" viewBox="0 0 25 25"><path fill="#231F20" d="M20.98 17.121l-2.049-2.051-1.119-1.117a.503.503 0 0 0-.359-.148.505.505 0 0 0-.361.148l-1.65 1.65-6.248-6.248 1.65-1.65a.506.506 0 0 0 .148-.362.504.504 0 0 0-.148-.361l-.886-.886c-.689-.689-1.378-1.38-2.069-2.068a.468.468 0 0 0-.335-.149l-.024-.001h-.018a.482.482 0 0 0-.345.149L5.365 5.83c-.632.626-1.229 1.216-1.426 2.148-.303 1.43.447 2.965 1.22 4.277.676 1.149 1.574 2.306 2.828 3.642 1.727 1.838 4.381 4.369 7.484 5.117.297.071.592.106.875.106.889 0 1.713-.354 2.387-1.029l2.25-2.25a.502.502 0 0 0 .147-.36.498.498 0 0 0-.15-.36z"/></svg>
