<svg xmlns="http://www.w3.org/2000/svg" width="24px" height="24px" viewBox="0 0 30 30"><g fill-rule="evenodd"><path d="M22.583 24.991c0 1.813-1.442 3.286-3.232 3.286h-9.08c-1.782 0-3.23-1.473-3.23-3.286V4.99c0-1.813 1.446-3.284 3.23-3.284h9.08c1.782 0 3.232 1.471 3.232 3.286v20zm-7.771 1.964a1.367 1.367 0 1 0 0-2.734 1.367 1.367 0 0 0 0 2.734zM8.037 5.153v18.04h13.55V5.153H8.036zM12.5 3.95h4.626a.328.328 0 0 0 .329-.332.33.33 0 0 0-.33-.331H12.5a.331.331 0 1 0 0 .663z"/><path fill-rule="nonzero" d="M13.62 16.838c.3.2.7.3.9 0 1.5-1.6 3-3.1 4.4-4.7.6-.6-.3-1.5-.9-.9-1.3 1.4-2.7 2.8-4 4.2-.7-.6-1.4-1.1-2-1.7-.6-.5-1.6.4-.9.9.8.8 1.6 1.5 2.5 2.2z"/></g></svg>
