<svg xmlns="http://www.w3.org/2000/svg" width="24px" height="24px" viewBox="0 0 25 25"><path fill="#231F20" d="M21.574 20.616l-5.126-5.127a7.45 7.45 0 0 0 1.703-4.735c0-4.11-3.344-7.454-7.456-7.454-4.11 0-7.454 3.344-7.454 7.454s3.344 7.456 7.454 7.456a7.451 7.451 0 0 0 4.866-1.813l5.114 5.116c.12.119.279.188.448.188a.62.62 0 0 0 .448-.188.63.63 0 0 0 .186-.448.615.615 0 0 0-.183-.449zm-10.878-3.683a6.185 6.185 0 0 1-6.178-6.178 6.185 6.185 0 0 1 6.178-6.178 6.184 6.184 0 0 1 6.178 6.178 6.184 6.184 0 0 1-6.178 6.178z"/></svg>
