<svg xmlns="http://www.w3.org/2000/svg" width="24px" height="24px" viewBox="0 0 25 25"><path fill="#231F20" d="M12.5 2C6.71 2 2 6.71 2 12.5 2 18.289 6.71 23 12.5 23S23 18.289 23 12.5C23 6.71 18.29 2 12.5 2zm.816 13.589c-.767-.06-1.086-.438-1.688-.804-.33 1.73-.733 3.391-1.929 4.258-.369-2.616.542-4.582.965-6.669-.72-1.212.087-3.654 1.607-3.053 1.872.74-1.62 4.511.723 4.981 2.445.492 3.445-4.244 1.929-5.785-2.191-2.225-6.38-.051-5.865 3.134.125.779.93 1.015.321 2.09-1.403-.312-1.821-1.418-1.768-2.894.087-2.415 2.17-4.104 4.259-4.339 2.644-.296 5.122.97 5.464 3.456.387 2.805-1.191 5.843-4.018 5.625z"/></svg>
