<svg xmlns="http://www.w3.org/2000/svg" width="24px" height="24px" viewBox="0 0 25 25"><g fill="#231F20"><path d="M17.988 12.5a.568.568 0 0 0-.002-.083c-.096-2.93-2.379-5.244-5.311-5.402-2.972-.161-5.395 2.271-5.653 5.132-.269 2.976 2.104 5.455 4.948 5.814 2.899.367 5.608-1.92 5.968-4.76.024-.205.039-.408.045-.615a.344.344 0 0 0 .005-.086zM12.5 16.713c-2.329.043-4.172-1.945-4.213-4.212-.042-2.329 1.947-4.172 4.213-4.213 2.329-.041 4.172 1.947 4.213 4.213a4.263 4.263 0 0 1-4.213 4.212z"/><path d="M22.361 9.898H20.56a9.09 9.09 0 0 0-.521-1.257l1.273-1.273a.643.643 0 0 0 0-.902l-2.778-2.778a.645.645 0 0 0-.902 0L16.36 4.961a8.882 8.882 0 0 0-1.258-.521V2.638A.644.644 0 0 0 14.464 2h-3.93a.646.646 0 0 0-.637.639v1.802a8.925 8.925 0 0 0-1.256.519L7.367 3.687a.645.645 0 0 0-.902 0L3.687 6.465a.643.643 0 0 0 0 .902L4.96 8.642a9.128 9.128 0 0 0-.521 1.256H2.638a.644.644 0 0 0-.638.639v3.928c0 .348.29.639.639.639h1.802c.141.434.314.854.521 1.258-.425.424-.85.85-1.274 1.271a.646.646 0 0 0 0 .904l2.778 2.777a.643.643 0 0 0 .902 0l1.274-1.275a8.77 8.77 0 0 0 1.256.521v1.803a.642.642 0 0 0 .637.637h3.93a.644.644 0 0 0 .639-.639v-1.803a8.452 8.452 0 0 0 1.256-.52c.426.424.851.85 1.273 1.273a.647.647 0 0 0 .902 0l2.777-2.777a.646.646 0 0 0 0-.904l-1.273-1.273c.205-.404.38-.822.521-1.254h1.801a.645.645 0 0 0 .639-.641v-3.928a.643.643 0 0 0-.639-.636zm-5.293 9.047c-.151-.295-.502-.488-.871-.271a7.632 7.632 0 0 1-1.902.797.584.584 0 0 0-.449.654.701.701 0 0 0-.02.164v1.436h-2.652v-1.436a.728.728 0 0 0-.015-.146c.035-.279-.094-.574-.447-.672a7.697 7.697 0 0 1-1.814-.738.585.585 0 0 0-.689.049.602.602 0 0 0-.277.166l-1.015 1.016c-.625-.625-1.251-1.25-1.876-1.877.336-.334.671-.67 1.006-1.006.301-.148.502-.504.282-.877a7.615 7.615 0 0 1-.805-1.934c-.1-.379-.432-.5-.729-.438-.027-.004-.055-.004-.084-.004H3.276v-2.654h1.435a.662.662 0 0 0 .236-.042.581.581 0 0 0 .589-.452c.175-.64.421-1.235.751-1.812a.591.591 0 0 0-.097-.745.689.689 0 0 0-.136-.191c-.337-.339-.676-.678-1.014-1.015l1.876-1.876 1.015 1.015.007.006c.155.289.502.478.868.263a7.559 7.559 0 0 1 1.899-.795c.347-.093.478-.379.449-.655a.642.642 0 0 0 .02-.162V3.278h2.652v1.435c0 .06.008.114.021.166-.027.274.104.56.447.652a7.71 7.71 0 0 1 1.87.775c.327.189.639.061.812-.175a.576.576 0 0 0 .09-.077c.341-.338.679-.676 1.017-1.015l1.876 1.876-1.016 1.015a.74.74 0 0 0-.086.104c-.229.175-.351.48-.164.803.34.585.592 1.19.77 1.842a.582.582 0 0 0 .588.452.668.668 0 0 0 .237.042h1.437v2.653h-1.437a.58.58 0 0 0-.086.006c-.296-.062-.627.061-.728.438a7.641 7.641 0 0 1-.75 1.836.588.588 0 0 0 .056.695.625.625 0 0 0 .163.27l1.016 1.014c-.625.627-1.251 1.252-1.876 1.877l-1.015-1.017z"/></g></svg>
