<svg xmlns="http://www.w3.org/2000/svg" width="24px" height="24px" viewBox="0 0 25 25"><g fill="#231F20"><path d="M15.907 5.095a.648.648 0 0 0-.64-.639H2.687a.647.647 0 0 0-.639.639v12.736c0 .347.292.64.639.64h.908c.166-1.636 1.475-2.935 3.03-2.935h.102a3.22 3.22 0 0 1 3.13 2.935h5.413c.035 0 .066-.017.102-.021a3.39 3.39 0 0 1 .539-1.525V5.095h-.004zm6.989 8.158c-.067-.246-.287-.494-.48-.711-.068-.077-.133-.149-.182-.213L19.762 9.15a2.553 2.553 0 0 1-.119-.165c-.188-.271-.426-.609-.791-.609h-1.666v7.439a2.827 2.827 0 0 1 1.315-.277c1.666.06 2.967 1.287 3.13 2.933h.652a.646.646 0 0 0 .639-.64v-3.303c0-.11.009-.233.017-.362.015-.313.036-.636-.043-.913z"/><path d="M8.541 18.47c-.136-.91-.878-1.623-1.754-1.623-.021 0-.04 0-.061.002-1.075.037-1.744.826-1.833 1.609-.009.078-.019.155-.016.231.036 1.043.864 1.888 1.843 1.853 1.036-.037 1.814-.814 1.851-1.853-.006-.075-.02-.147-.03-.219zm11.773 0c-.139-.91-.879-1.623-1.756-1.623-.021 0-.041 0-.062.002a2.04 2.04 0 0 0-1.312.551c-.002 0-.002.002-.004.006a1.682 1.682 0 0 0-.537 1.285c.035 1.021.836 1.854 1.785 1.854.021 0 .039 0 .061-.002 1.035-.035 1.812-.813 1.851-1.852 0-.077-.015-.149-.026-.221z"/></g></svg>
