<svg xmlns="http://www.w3.org/2000/svg" width="24px" height="24px" viewBox="0 0 25 25"><g fill="#231F20"><path d="M17.377 8.811c-.113-.292-.25-.5-.469-.719s-.428-.354-.719-.468c-.221-.085-.553-.188-1.162-.215-.658-.03-.857-.037-2.527-.037s-1.867.006-2.527.036c-.609.027-.94.13-1.161.215a1.93 1.93 0 0 0-.72.468 1.947 1.947 0 0 0-.468.72c-.085.22-.188.55-.215 1.161-.03.66-.037.857-.037 2.528 0 1.67.007 1.867.037 2.527.027.609.13.939.215 1.16.114.293.249.502.468.721.22.219.428.354.72.467.221.086.552.189 1.161.215.659.031.857.037 2.527.037s1.869-.006 2.527-.037c.609-.025.941-.129 1.162-.215.291-.111.5-.248.719-.467s.354-.428.469-.721c.086-.221.188-.551.215-1.16.029-.66.037-.857.037-2.527 0-1.671-.008-1.868-.037-2.528-.03-.611-.129-.941-.215-1.161zm-4.877 6.9a3.212 3.212 0 1 1 0-6.425 3.212 3.212 0 0 1 0 6.425zm3.34-5.8a.752.752 0 0 1-.752-.75.752.752 0 0 1 1.502 0 .75.75 0 0 1-.75.75z"/><circle cx="12.5" cy="12.499" r="2.085"/><path d="M12.5 2C6.711 2 2 6.709 2 12.5 2 18.289 6.711 23 12.5 23 18.291 23 23 18.289 23 12.5 23 6.709 18.291 2 12.5 2zm6.217 13.078c-.029.666-.135 1.119-.289 1.518-.16.412-.375.762-.723 1.107a3.076 3.076 0 0 1-1.107.723c-.396.154-.852.26-1.518.291-.668.029-.881.037-2.58.037-1.698 0-1.911-.008-2.578-.037-.666-.031-1.121-.137-1.519-.291-.411-.16-.76-.375-1.108-.723s-.562-.695-.721-1.107c-.155-.396-.261-.852-.291-1.518-.03-.668-.037-.881-.037-2.579 0-1.699.007-1.912.037-2.579.03-.666.136-1.12.291-1.519.159-.411.373-.76.721-1.107a3.067 3.067 0 0 1 1.108-.722c.397-.154.853-.26 1.519-.291.667-.03.88-.038 2.578-.038 1.699 0 1.912.007 2.58.038.666.029 1.119.136 1.518.291.412.159.76.373 1.107.722.348.348.562.696.723 1.107.154.398.26.854.289 1.519.031.667.039.88.039 2.579 0 1.698-.008 1.911-.039 2.579z"/></g></svg>
