<svg xmlns="http://www.w3.org/2000/svg" width="24px" height="24px" viewBox="0 0 25 25"><g fill="#231F20"><path d="M17.484 5.581c-.764-1.308-2.188-2.282-3.719-2.543a6.967 6.967 0 0 0-1.164-.1c-2.114 0-3.872.964-4.823 2.646a6.8 6.8 0 0 0-.856 3.378c.008.406.332.619.648.619.181 0 .35-.066.465-.184a.596.596 0 0 0 .163-.438 5.684 5.684 0 0 1 .59-2.557c.681-1.389 2.075-2.186 3.824-2.186a6 6 0 0 1 1.2.124c1.162.238 2.09.93 2.61 1.947.625 1.22.361 2.694-.687 3.851-.305.334-.627.656-.938.969-.709.709-1.442 1.441-1.982 2.352-.522.879-.825 1.971-.808 2.92.007.406.331.619.647.619.181 0 .35-.068.465-.186a.6.6 0 0 0 .164-.438c-.033-1.86 1.123-3.029 2.347-4.268.873-.883 1.774-1.795 2.2-2.98.425-1.18.302-2.439-.346-3.545z"/><circle cx="12.603" cy="20.777" r="1.284"/></g></svg>
