<svg xmlns="http://www.w3.org/2000/svg" width="24px" height="24px" viewBox="0 0 25 25"><path fill="#231F20" d="M3.819 4.055a.634.634 0 0 0-.634.634V20.31a.634.634 0 1 0 1.268 0V4.688a.634.634 0 0 0-.634-.633zm17.361 0a.633.633 0 0 0-.633.634V20.31a.633.633 0 1 0 1.268 0V4.688a.636.636 0 0 0-.635-.633zm-9.701 0c-.35 0-.634.239-.634.532v12.25c0 .293.284.532.634.532.355 0 .635-.234.635-.532V4.587c-.001-.298-.281-.532-.635-.532zm5.574 0c-.35 0-.635.239-.635.532v12.25c0 .293.285.532.635.532s.635-.239.635-.532V4.587c0-.293-.286-.532-.635-.532zm2.119 0c-.355 0-.635.234-.635.532v12.25c0 .298.279.532.635.532s.635-.234.635-.532V4.587c0-.298-.28-.532-.635-.532zm-13.353 0c-.35 0-.634.239-.634.532v12.25c0 .293.284.532.634.532.35 0 .634-.239.634-.532V4.587c.001-.293-.285-.532-.634-.532zm3.611 0c-.35 0-.634.239-.634.532v12.25c0 .293.284.532.634.532.355 0 .635-.234.635-.532V4.587c-.001-.298-.279-.532-.635-.532zm4.214 0c-.351 0-.636.239-.636.532v12.25c0 .293.285.532.636.532.354 0 .635-.234.635-.532V4.587c-.002-.298-.281-.532-.635-.532z"/></svg>
