<svg xmlns="http://www.w3.org/2000/svg" width="24px" height="24px" viewBox="0 0 20 20"><path fill="#767676" d="M17.42 3.89c-1-.91-2.16-1.41-3.48-1.41s-2.57.5-3.48 1.41l-.42.41-.41-.41c-.92-.92-2.16-1.41-3.49-1.41s-2.49.5-3.48 1.41c-.83.91-1.33 2.15-1.33 3.48s.5 2.49 1.41 3.48l6.05 6.05c.33.33.83.5 1.24.5.41 0 .91-.17 1.24-.5l6.05-6.05c.91-1 1.41-2.16 1.41-3.48s-.48-2.57-1.31-3.48zm-.83 6.3l-6.05 6.05c-.17.17-.33.25-.5.25-.17 0-.33-.08-.5-.25l-6.05-6.05c-.75-.75-1.16-1.74-1.16-2.82s.41-2.07 1.16-2.82 1.74-1.16 2.82-1.16c1.58 0 3.07 1.16 3.23 2.24 0 .25.08.5.5.5.25 0 .5-.17.5-.5.25-1.58 2.32-2.24 3.23-2.24 1.08 0 2.07.41 2.82 1.16s1.16 1.74 1.16 2.82-.41 2.07-1.16 2.82z"/></svg>
