<svg xmlns="http://www.w3.org/2000/svg" width="24px" height="24px" viewBox="0 0 25 25"><g fill="#231F20"><path d="M4.88 17.171h2.344a.636.636 0 0 0 0-1.27H4.88a.635.635 0 0 0 0 1.27zm4.979 0h4.643a.636.636 0 0 0 0-1.27H9.859a.636.636 0 0 0 0 1.27z"/><path d="M20.445 4.009H4.554A2.557 2.557 0 0 0 2 6.563v11.872a2.56 2.56 0 0 0 2.554 2.557h15.894a2.557 2.557 0 0 0 2.553-2.557V6.563a2.559 2.559 0 0 0-2.556-2.554zM3.309 10.124V8.911h18.385v1.213H3.309zm0 1.275h18.445v6.924c0 .705-.57 1.277-1.275 1.277H4.585a1.278 1.278 0 0 1-1.277-1.277v-6.924zm1.276-6.225h15.893c.705 0 1.275.572 1.275 1.275v1.184H3.309V6.45c0-.703.572-1.276 1.276-1.276z"/></g></svg>
