<svg xmlns="http://www.w3.org/2000/svg" width="24px" height="24px" viewBox="0 0 25 25"><path fill="#231F20" d="M12.5 2C6.71 2 2 6.71 2 12.5S6.71 23 12.5 23C18.289 23 23 18.29 23 12.5S18.289 2 12.5 2zm.016 18.152c-.916 0-1.66-.745-1.66-1.66s.745-1.66 1.66-1.66c.916 0 1.66.745 1.66 1.66s-.744 1.66-1.66 1.66zm3.716-9.216c-.299.453-.856 1.078-1.662 1.858a3.53 3.53 0 0 0-.842 1.208c-.113.256-.113.256-.166.634l-.033.247c-.006.521-.459.967-1.029.967a1.036 1.036 0 0 1-1.035-1.035l.007-.271c.106-.795.119-.849.325-1.376.234-.604.732-1.282 1.479-2.015l.72-.708c.18-.168.315-.338.422-.512.192-.318.358-.589.368-.852.01-.558-.141-1.028-.438-1.396-.231-.288-.963-.83-2.062-.83-1.143 0-1.976.713-2.267 1.376-.185.425-.291.95-.313 1.557l-.046.247-.063.129c-.173.352-.536.579-.926.579s-.754-.227-.926-.577l-.108-.377.401-.158-.4-.007c.026-1.39.446-2.534 1.25-3.398.849-.914 2.013-1.377 3.46-1.377 1.335 0 2.431.397 3.257 1.18.834.792 1.256 1.811 1.256 3.029 0 .817-.336 1.433-.629 1.878z"/></svg>
