<svg xmlns="http://www.w3.org/2000/svg" width="24px" height="24px" viewBox="0 0 25 25"><path fill="#231F20" d="M21.207 4a.64.64 0 0 0-.551-.3.679.679 0 0 0-.291.064l-.062.028-.105.049-16.665 8.208c-.236.109-.363.363-.326.647.038.282.227.493.479.538l7.173.898.852 7.049c.04.336.353.619.682.617.219.002.406-.121.514-.336L21.139 4.81l.062-.118.025-.057A.643.643 0 0 0 21.207 4zM19.33 5.665l-6.64 13.38-.629-5.488-.003-.018a.613.613 0 0 0-.054-.264c-.021-.033-.07-.115-.103-.15-.025-.027-.092-.07-.124-.094a.626.626 0 0 0-.206-.069l-5.576-.612L19.33 5.665z"/></svg>
