<svg xmlns="http://www.w3.org/2000/svg" version="1.0" width="24px" height="24px" viewBox="0 0 25 25"><path d="M21.4 5.8c-1.2-1.1-2.6-1.7-4.2-1.7s-3.1.6-4.2 1.7l-.5.5-.5-.5c-1.1-1.1-2.6-1.7-4.2-1.7s-3 .6-4.2 1.7C2.6 6.9 2 8.4 2 10s.6 3 1.7 4.2l7.3 7.3c.4.4 1 .6 1.5.6s1.1-.2 1.5-.6l7.3-7.3C22.4 13 23 11.6 23 10s-.6-3.1-1.6-4.2zm-1 7.6l-7.3 7.3c-.2.2-.4.3-.6.3-.2 0-.4-.1-.6-.3l-7.3-7.3c-.9-.9-1.4-2.1-1.4-3.4s.5-2.5 1.4-3.4c.9-.9 2.1-1.4 3.4-1.4 1.9 0 3.7 1.4 3.9 2.7 0 .3.1.6.6.6.3 0 .6-.2.6-.6.3-1.9 2.8-2.7 3.9-2.7 1.3 0 2.5.5 3.4 1.4s1.4 2.1 1.4 3.4-.5 2.5-1.4 3.4z"/></svg>
