<svg xmlns="http://www.w3.org/2000/svg" width="24px" height="24px" viewBox="0 0 25 25"><path fill="#231F20" d="M22.359 9.896h-1.801a8.85 8.85 0 0 0-.521-1.257c.425-.425.851-.849 1.272-1.272a.645.645 0 0 0 0-.903c-.926-.926-1.853-1.852-2.777-2.778a.643.643 0 0 0-.902 0L16.359 4.96a8.746 8.746 0 0 0-1.258-.521V2.638A.64.64 0 0 0 14.464 2h-3.93a.644.644 0 0 0-.638.638v1.801a8.93 8.93 0 0 0-1.256.52L7.366 3.686a.643.643 0 0 0-.902 0L3.686 6.464a.645.645 0 0 0 0 .903c.423.425.848.85 1.273 1.274a9.22 9.22 0 0 0-.521 1.255H2.637a.645.645 0 0 0-.638.64v3.93c0 .348.29.639.639.639H4.44c.141.433.314.851.521 1.257l-1.274 1.272a.643.643 0 0 0 0 .902c.926.926 1.852 1.854 2.778 2.776a.643.643 0 0 0 .902 0l1.274-1.272c.405.203.824.379 1.256.521v1.802c0 .348.29.639.638.639h3.93c.35 0 .639-.291.639-.639v-1.802a8.906 8.906 0 0 0 1.256-.521c.426.424.851.85 1.273 1.272a.643.643 0 0 0 .902 0l2.777-2.776a.643.643 0 0 0 0-.902l-1.273-1.274c.205-.404.38-.822.521-1.255h1.801c.35 0 .64-.291.64-.639v-3.93a.649.649 0 0 0-.642-.64zm-4.377 2.689a7.115 7.115 0 0 1-.045.616c-.358 2.838-3.067 5.125-5.967 4.76-2.845-.359-5.217-2.84-4.948-5.814.258-2.862 2.682-5.294 5.654-5.133 2.932.158 5.215 2.474 5.311 5.402a.582.582 0 0 1 .002.084.48.48 0 0 1-.007.085z"/></svg>
