<svg xmlns="http://www.w3.org/2000/svg" width="24px" height="24px" viewBox="0 0 25 25"><path fill="#231F20" d="M21.342 4.978h-4.119V3.701c0-.41-.32-.625-.637-.625-.318 0-.639.215-.639.625v1.276H9.053V3.701c0-.41-.321-.625-.639-.625-.316 0-.638.215-.638.625v1.276H3.659a.64.64 0 0 0-.639.639v15.669c0 .354.287.639.639.639h17.683a.594.594 0 0 0 .449-.184.61.61 0 0 0 .189-.455V5.616a.64.64 0 0 0-.638-.638zm-.639 11.538v4.133h-4.629v-4.133h4.629zm0-5.411v4.133h-4.629v-4.133h4.629zm-5.904 5.411v4.133h-4.596v-4.133h4.596zm0-5.411v4.133h-4.596v-4.133h4.596zm-5.874 5.411v4.133H4.297v-4.133h4.628zm0-5.411v4.133H4.297v-4.133h4.628zm-.51-2.95c.317 0 .639-.215.639-.625V6.254h6.894V7.53c0 .41.319.625.639.625.315 0 .638-.215.638-.625V6.254h3.479v3.574H4.297V6.254h3.479V7.53c.001.41.322.625.639.625z"/></svg>
