<svg xmlns="http://www.w3.org/2000/svg" width="24px" height="24px" viewBox="0 0 25 25"><path fill="#231F20" d="M22.383 11.861h-2.092c-.238-2.61-1.712-4.945-4.025-6.241a7.541 7.541 0 0 0-3.126-.925V2.617c0-.823-1.277-.823-1.277 0v2.094a7.972 7.972 0 0 0-3.695 1.253c-2.014 1.319-3.256 3.539-3.46 5.897H2.617c-.823 0-.823 1.277 0 1.277h2.075c.001.021-.001.043.001.064.238 2.818 2.067 5.326 4.643 6.469a7.715 7.715 0 0 0 2.526.622v2.089c0 .823 1.278.823 1.278 0v-2.08a7.937 7.937 0 0 0 3.691-1.268c2.015-1.319 3.247-3.53 3.463-5.896h2.088c.824.001.824-1.277.001-1.277zm-8.002 6.93a6.216 6.216 0 0 1-1.241.236v-2.123c0-.823-1.277-.823-1.277 0v2.109c-1.951-.207-3.781-1.279-4.886-2.967a6.333 6.333 0 0 1-.998-2.909h2.117c.823 0 .823-1.278 0-1.278H5.99a6.664 6.664 0 0 1 1.585-3.704c1.108-1.272 2.666-2 4.287-2.16v2.098c0 .823 1.278.823 1.278 0v-2.11a6.547 6.547 0 0 1 2.186.584c2.092.987 3.444 3.033 3.688 5.292h-2.107c-.823 0-.823 1.278 0 1.278h2.102c-.284 2.625-2.064 4.861-4.628 5.654z"/></svg>
