<svg xmlns="http://www.w3.org/2000/svg" width="24px" height="24px" viewBox="0 0 25 25"><g fill="#231F20"><path d="M12.516 10.321a.635.635 0 0 0-.634.635v7.599a.634.634 0 1 0 1.268 0v-7.599a.636.636 0 0 0-.634-.635z"/><circle cx="12.5" cy="7.05" r="1.238"/><path d="M12.5 2C6.71 2 2 6.71 2 12.5 2 18.291 6.71 23 12.5 23 18.289 23 23 18.291 23 12.5 23 6.71 18.289 2 12.5 2zm0 19.764c-5.107 0-9.263-4.156-9.263-9.264 0-5.107 4.156-9.263 9.263-9.263s9.264 4.155 9.264 9.263c0 5.107-4.157 9.264-9.264 9.264z"/></g></svg>
