<svg xmlns="http://www.w3.org/2000/svg" width="24px" height="24px" viewBox="0 0 25 25"><path fill="#231F20" d="M21.315 7.798h-4.28a2.958 2.958 0 0 0 .963-2.659c-.212-1.436-1.513-2.089-2.63-2.089-.406 0-.811.083-1.166.238-1.01.441-1.418 1.354-1.632 2.194l-.018-.088a2.947 2.947 0 0 0-3.339-2.337 2.332 2.332 0 0 0-1.73 1.213 2.978 2.978 0 0 0-.12 2.584c.162.37.402.687.716.942H3.687a.647.647 0 0 0-.638.64v3.51c0 .346.292.638.638.638h1.028v8.752a.64.64 0 0 0 .638.639H19.65a.59.59 0 0 0 .449-.184.599.599 0 0 0 .188-.455v-8.752h1.026a.59.59 0 0 0 .449-.185.603.603 0 0 0 .188-.453v-3.51a.642.642 0 0 0-.635-.638zM8.507 6.254c-.199-.449-.164-.939.1-1.38.239-.397.587-.608 1.004-.608.754 0 1.547.664 1.704 1.436l.385 1.924-1.922-.386c-.573-.115-1.049-.483-1.271-.986zm5.653 14.443h-3.319v-8.104h3.319v8.104zm2.611-14.929c-.119.689-.732 1.334-1.405 1.471l-1.932.387.385-1.921c.162-.811.826-1.397 1.577-1.397.271 0 .535.075.787.228.468.277.677.716.588 1.232z"/></svg>
