<svg xmlns="http://www.w3.org/2000/svg" width="24px" height="24px" viewBox="0 0 25 25"><path fill="#231F20" d="M12.5 2C6.71 2 2 6.71 2 12.5 2 18.289 6.71 23 12.5 23S23 18.289 23 12.5C23 6.71 18.29 2 12.5 2zm3.331 15.865c-.414.397-1.265.692-2.078.708l-.092.001c-2.679 0-3.394-2.045-3.394-3.254v-3.712a.056.056 0 0 0-.056-.057H8.917a.056.056 0 0 1-.056-.056v-1.69a.06.06 0 0 1 .035-.051c1.385-.539 2.158-1.61 2.361-3.266.013-.092.088-.095.088-.095h1.73c.03 0 .055.024.055.056v2.973c0 .031.024.056.056.056h2.152c.03 0 .057.025.057.057v1.963a.056.056 0 0 1-.057.056h-2.161a.057.057 0 0 0-.056.057v3.529c.013.795.396 1.196 1.143 1.196a2.8 2.8 0 0 0 .959-.188.052.052 0 0 1 .072.032l.549 1.629c.008.019.004.043-.013.056z"/></svg>
