<svg xmlns="http://www.w3.org/2000/svg" width="24px" height="24px" viewBox="0 0 25 25"><g fill="#231F20"><path d="M12.5 2C6.711 2 2 6.71 2 12.5S6.711 23 12.5 23C18.29 23 23 18.29 23 12.5S18.29 2 12.5 2zm0 19.764c-5.107 0-9.263-4.156-9.263-9.264S7.393 3.237 12.5 3.237s9.264 4.155 9.264 9.263c0 5.107-4.157 9.264-9.264 9.264z"/><path d="M15.33 6.318c-.747-.71-1.75-1.069-2.981-1.069-1.332 0-2.397.42-3.168 1.25-.735.791-1.119 1.845-1.142 3.123l-.003.033.001.069-.001.046.068.22a.635.635 0 0 0 .566.354c.242 0 .502-.141.567-.354l.067-.216c.025-.657.143-1.23.349-1.703.341-.778 1.31-1.615 2.633-1.615 1.248 0 2.077.613 2.371.976.36.444.538 1.003.524 1.658-.008.369-.209.697-.424 1.047a2.811 2.811 0 0 1-.482.592l-.717.708c-.708.694-1.175 1.325-1.388 1.877-.193.496-.199.521-.301 1.28a.26.26 0 0 0-.004.048v.174a.634.634 0 0 0 1.268.014l.034-.247c.061-.435.061-.435.164-.665l.031-.074c.162-.365.38-.801.931-1.335.771-.746 1.325-1.365 1.604-1.791.263-.398.563-.946.563-1.658.003-1.107-.378-2.028-1.13-2.742z"/><circle cx="12.516" cy="18.492" r="1.26"/></g></svg>
