<svg xmlns="http://www.w3.org/2000/svg" width="24px" height="24px" viewBox="0 0 25 25"><path fill="#231F20" d="M21.316 17.312a.62.62 0 0 0-.578.64l-.006 1.789-5.487-5.411a.631.631 0 0 0-.895.004.63.63 0 0 0 .003.896l5.62 5.541-2.021-.02-.02.001a.627.627 0 0 0-.414.229.616.616 0 0 0 .53.998l3.366-.016h.02a.623.623 0 0 0 .549-.638l-.016-3.438a.615.615 0 0 0-.651-.575zM14.8 10.851a.625.625 0 0 0 .445-.184l5.487-5.412.006 1.778a.616.616 0 1 0 1.232.061l.014-3.414a.628.628 0 0 0-.18-.473.631.631 0 0 0-.381-.177l-3.363-.014a.617.617 0 0 0-.127 1.226l.012.001 2.027-.018-5.62 5.54a.627.627 0 0 0-.004.895.63.63 0 0 0 .452.191zM5.146 4.228l1.901.018.019-.001a.614.614 0 0 0 .545-.682.614.614 0 0 0-.663-.546l-3.365.013-.02.001a.62.62 0 0 0-.547.636l.014 3.439c.02.325.289.58.614.58l.037-.001a.62.62 0 0 0 .58-.638l.005-1.906 5.605 5.526a.63.63 0 0 0 .896-.003.633.633 0 0 0-.005-.896l-5.616-5.54zm5.171 9.918a.62.62 0 0 0-.445.183l-5.605 5.526-.007-1.891a.612.612 0 0 0-.579-.65.618.618 0 0 0-.651.592l-.014 3.412a.617.617 0 0 0 .558.651l3.365.014.061.002a.615.615 0 0 0 .479-1.002.619.619 0 0 0-.412-.229l-.014-.001-1.909.019 5.619-5.541a.635.635 0 0 0-.446-1.085z"/></svg>
