<svg xmlns="http://www.w3.org/2000/svg" width="24px" height="24px" viewBox="0 0 25 25"><path fill="#231F20" d="M22.061 17.609l-8.972-7.077v-.853a2.823 2.823 0 0 0 2.245-2.766 2.834 2.834 0 0 0-2.831-2.83c-1.229 0-2.3.781-2.686 1.95 0 0-.052.17-.057.229-.004.064.024.252.024.252.075.27.325.464.611.464.301 0 .562-.21.617-.491a1.559 1.559 0 0 1 1.491-1.125c.857 0 1.556.696 1.556 1.553 0 .838-.685 1.534-1.521 1.551h-.107l-.03.002c-.399.042-.613.304-.588.71v.337a.977.977 0 0 1 0 .121v.997l-8.866 6.971c-.774.594-1.074 1.389-.804 2.129.263.719 1.02 1.184 1.927 1.184.04 0 .079-.002.107-.004h16.635c.041.002.08.004.119.004.905 0 1.662-.465 1.926-1.184.27-.741-.029-1.536-.796-2.124zm-1.123 2.03c-.024 0-.049 0-.084-.002H4.136c-.451.025-.729-.166-.795-.344-.068-.188.076-.441.388-.68l8.786-6.909 8.762 6.913c.307.234.449.488.381.676-.06.166-.312.346-.72.346z"/></svg>
