<svg xmlns="http://www.w3.org/2000/svg" xmlns:xlink="http://www.w3.org/1999/xlink" id="Layer_1" x="0" y="0" version="1.1" width="24px" height="24px" viewBox="0 0 32 32" xml:space="preserve"><style>.st0{clip-path:url(#SVGID_2_)}.st1{clip-path:url(#SVGID_4_);fill:#462e8c}.st2,.st3{clip-path:url(#SVGID_6_);fill:#430098}.st3{fill:none;stroke:#c5a7e1;stroke-width:2}.st4{fill:#430098}</style><defs><path id="SVGID_1_" d="M-704.4 41.2s-.5 0-1-.2-1-.5-1.4-1.3c-.3-.6-.2-1.5-.2-1.9 0-.3.1-.7.1-.7s-.4-.6-.6-1.5c-.1-.9.2-2.1.9-3.1.8-1 2.6-1.7 4.5-1.5 1.8.2 3 1 4 1.5 1 .6 2.2.7 2.9.9.7.1.9.3 1 .4l.2.2s0-.2.2-.3c.2-.1.3 0 .3 0h.1v-.4c0-.1.1-.2.1-.2V33s0-.1.1-.1h.3s0-.1.1-.1v-.1s.1 0 .3.1c.2.2.3.3.4.5.1.2.2.4.1.5 0 .1-.2.1-.2.1h-.6c-.2 0-.4-.2-.4-.2h-.1v.2c0 .1-.1.2-.2.2h-.1v.1s0 .1.1.5c0 .3 0 1.6-1.2 2.8-1.2 1.3-3.4 2-4 2.1-.7.2-1.5.2-1.5.3-.1 0-.1 0 0 .1s.2.2.2.5-.1.6-.2.8c-.1.2-.3.2-.3.2l.1.1c.1.1.7.5 1.2 1.7.5 1.1.5 2.4.4 3.7-.1 1.3-.7 2.1-.8 2.3-.1.2-.2.2-.2.3v.1s.2.5-.1 1.8c-.4 1.3-1 3.1-1.3 4.8-.3 1.7-.5 2.7-.6 2.9-.1.3-.2.4-.3.5 0 0 .2.1.4.3.2.2.4.4.7.5.2.1.8.3 1 .6.2.2.3.6.2 1-.1.4-.3.6-.6.7-.3.1-.9.2-1.3.1s-.8-.4-1.1-.8c-.3-.5-.3-1.1-.2-1.5 0-.3.1-.5.1-.5s-.3-.2-.5-.5-.4-.8-.5-1.4c-.1-.6-.4-2-.3-3.6 0-1.7.2-2.2.2-2.3 0 0 0-.1 0 0 0 0-.5.1-1.4.1-.9.1-2.7-.2-3.7-.5s-1.3-.5-1.3-.5-.3 1.4-.9 2.5c-.8 1.4-2.1 3-2.9 4-.7.8-1.7 1.9-2 2.1-.3.2-.4.3-.5.3 0 0 .1.2.2.3.1.2.1.3.3.5.2.2.5.3.6.6.1.2.2.6 0 .9-.2.3-.6.5-1.1.4-.5 0-1-.3-1.2-.6-.3-.3-.2-.8-.2-1.1 0-.3.1-.8.2-1 .1-.2.2-.2.3-.3 0 0 .1 0 0 0 0 0-.3-.2-.3-.5s.1-.9.4-1.4c.3-.5.9-2 1.4-3.1.5-1.1 1.2-2.8 1.6-3.7.4-.9.7-1.6.9-1.8l.3-.3s-.2-.4-.3-.9c0-.4 0-.8.1-1v-.1h-.1c-.1 0-.2 0-.8-.6-.6-.6-1.3-1.6-1.6-2.3-.3-.6-.6-1.7-.6-1.9 0-.2.2-.3.4-.1.2.1.4.5.6.8.2.3.6.9.9 1.3.4.4.8.8 1.2 1.1.4.4.6.7.7.7 0 .1.1.1.1.1s.3-.3.8-.5 1.7-.5 2.8-.7c1.1-.3 2.2-.9 2.9-1.7.7-.8 1.5-1.7 1.7-1.9-.1-.2.1-.3.1-.3.1 0 .1 0 0 0"/></defs><clipPath id="SVGID_2_"><use overflow="visible" xlink:href="#SVGID_1_"/></clipPath><g class="st0"><defs><path id="SVGID_3_" d="M-847.4-709h1726V741h-1726z"/></defs><clipPath id="SVGID_4_"><use overflow="visible" xlink:href="#SVGID_3_"/></clipPath><path d="M-723.4 26h36.4v42h-36.4z" class="st1"/></g><defs><path id="SVGID_5_" d="M-380-290h792v612h-792z"/></defs><clipPath id="SVGID_6_"><use overflow="visible" xlink:href="#SVGID_5_"/></clipPath><path d="M-347.9-252.2s-.2 0-.4-.1-.4-.2-.5-.5c-.1-.2-.1-.6-.1-.7v-.2s-.2-.2-.2-.6c0-.3.1-.8.3-1.1.3-.4 1-.6 1.6-.6.7.1 1.1.3 1.5.5.4.2.8.3 1.1.3.2.1.3.1.4.1l.1.1s0-.1.1-.1h.1v-.2h.2c.1.1.1.1.1.2s.1.1 0 .2h-.3c-.1 0-.1-.1-.2-.1v.1l-.1.1v.2c0 .1 0 .6-.4 1-.4.5-1.2.7-1.5.8-.2.1-.5.1-.6.1 0 0 .1.1.1.2s0 .2-.1.3l-.1.1s.3.2.4.6c.2.4.2.9.1 1.3 0 .5-.2.7-.3.8 0 .1-.1.1-.1.1s.1.2 0 .7-.4 1.1-.5 1.7c-.1.6-.2 1-.2 1.1s-.1.2-.1.2.1 0 .1.1c.1.1.2.1.2.2.1 0 .3.1.4.2.1.1.1.2.1.4 0 .1-.1.2-.2.3-.1.1-.3.1-.5 0s-.3-.1-.4-.3c-.1-.2-.1-.4-.1-.6 0-.1.1-.2.1-.2l-.2-.2c-.1-.1-.1-.3-.2-.5s-.1-.7-.1-1.3c0-.6.1-.8.1-.8s-.2 0-.5.1-1-.1-1.4-.2c-.4-.1-.5-.2-.5-.2s-.1.5-.3.9c-.3.5-.8 1.1-1.1 1.4-.2.3-.6.7-.7.8-.1.1-.2.1-.2.1s0 .1.1.1c0 .1 0 .1.1.2s.2.1.2.2.1.2 0 .3c-.1.1-.2.2-.4.2s-.4-.1-.4-.2c-.1-.1-.1-.3-.1-.4 0-.1 0-.3.1-.3 0-.1.1-.1.1-.1s-.1-.1-.1-.2.1-.3.1-.5c.1-.2.3-.7.5-1.1.2-.4.4-1 .6-1.4.1-.3.3-.6.3-.7l.1-.1s-.1-.2-.1-.3v-.4s-.1 0-.3-.2-.5-.6-.6-.8c-.1-.2-.2-.6-.2-.7 0-.1.1-.1.1-.1.1 0 .1.2.2.3.1.1.2.3.3.5.1.2.3.3.4.4.1.1.2.2.2.3 0 0 0 .1 0 0 0 0 .1-.1.3-.2s.6-.2 1-.3c.4-.1.8-.3 1.1-.6.3-.3.6-.6.6-.7h.8" class="st2"/><path d="M-353-236.6h738" class="st3"/><path d="M16.6 10.2s-.5 0-1-.2-1-.5-1.4-1.3c-.3-.5-.2-1.4-.2-1.8 0-.3.1-.7.1-.7s-.4-.6-.6-1.5c-.1-.9.2-2.1.9-3.1.8-1 2.6-1.7 4.5-1.5 1.8.2 3 1 4 1.5s2.2.7 2.9.9c.7.1.9.3 1 .4.2 0 .3.1.3.1s0-.2.2-.3c.2-.1.3 0 .3 0h.1v-.4c0-.1.1-.2.1-.2V2s0-.1.1-.1h.3s0-.1.1-.1v-.1s.1 0 .3.1c.2.2.3.3.4.5-.1.5 0 .7 0 .8 0 .1-.2.1-.2.1h-.6c-.2 0-.4-.2-.4-.2h-.1v.2c0 .1-.1.2-.2.2h-.1v.1s0 .1.1.5c0 .3 0 1.5-1.2 2.8-1.2 1.3-3.4 2-4 2.1-.7.2-1.5.2-1.5.2-.1 0-.1 0 0 .1.1 0 .2.2.2.5s-.1.6-.2.8c-.1.2-.3.2-.3.2l.1.1c.1.1.7.5 1.2 1.7.5 1.1.5 2.4.4 3.6-.1 1.2-.7 2-.8 2.3-.1.2-.2.2-.2.3v.1s.2.5-.1 1.8c-.4 1.3-1 3.1-1.3 4.7-.3 1.7-.5 2.7-.6 2.9-.1.3-.2.4-.3.4 0 0 .2.1.4.3.2.2.4.4.7.5.2.1.8.3 1 .6.2.2.3.6.2 1-.1.4-.3.6-.6.7-.3.1-.9.2-1.3.1s-.8-.4-1.1-.8c-.3-.5-.3-1.1-.2-1.5 0-.3.1-.5.1-.5s-.3-.2-.5-.5-.4-.8-.5-1.4c-.1-.6-.4-2-.3-3.6 0-1.7.2-2.2.2-2.2v-.1s-.5.1-1.4.1c-.9.1-2.7-.2-3.7-.5s-1.3-.5-1.3-.5-.3 1.4-.9 2.4c-.8 1.4-2.1 3-2.9 3.9-.7.8-1.7 1.9-2 2.1-.6.3-.7.3-.8.3 0 0 .1.2.2.3.1.2.1.3.3.5.2.2.5.3.6.6.1.2.2.6 0 .9-.2.3-.6.5-1.1.4-.5 0-1-.3-1.2-.6-.2-.3-.2-.8-.2-1 0-.3.1-.8.2-1 .1 0 .3-.1.3-.1s.1 0 0 0c0 0-.3-.2-.3-.5s.1-.9.4-1.4c.3-.5.9-2 1.4-3 .5-1.1 1.2-2.8 1.6-3.7.4-.9.7-1.6.9-1.8l.3-.3s-.2-.4-.3-.9c0-.4 0-.8.1-1v-.1h-.1c-.1 0-.2 0-.8-.6S5 14 4.7 13.3c-.3-.6-.6-1.7-.6-1.9 0-.2.2-.3.4-.1.2.1.4.5.6.8.2.3.6.9.9 1.3.4.4.8.8 1.2 1.1.4.4.6.7.7.7 0 .1 0 .1.1.1 0 0 .3-.3.8-.5s1.7-.4 2.8-.7c1.1-.3 2.2-.9 2.9-1.7.7-.8 1.5-1.7 1.7-1.9.1-.1.4-.2.4-.3" class="st4"/></svg>
