<svg xmlns="http://www.w3.org/2000/svg" width="24px" height="24px" viewBox="0 0 25 25"><path fill="#231F20" d="M21.315 7.799h-4.279a2.965 2.965 0 0 0 .963-2.66c-.212-1.436-1.514-2.089-2.631-2.089-.405 0-.809.083-1.166.238-1.01.441-1.417 1.353-1.631 2.194l-.018-.087a2.948 2.948 0 0 0-3.34-2.337 2.333 2.333 0 0 0-1.729 1.213 2.975 2.975 0 0 0-.12 2.584c.162.37.402.687.717.943H3.688a.647.647 0 0 0-.639.639v3.51c0 .346.293.638.639.638h1.027v8.752c0 .354.287.639.639.639h14.298a.588.588 0 0 0 .447-.184.597.597 0 0 0 .189-.455v-8.752h1.025a.59.59 0 0 0 .449-.184.605.605 0 0 0 .188-.454v-3.51a.64.64 0 0 0-.635-.638zm-2.302 4.785v8.114h-4.659v-8.114h4.659zm-5.937.017v8.081h-1.149v-8.081h1.149zm-2.426-.017v8.114H5.992v-8.114h4.658zM8.507 6.255a1.472 1.472 0 0 1 .101-1.381c.239-.397.586-.608 1.003-.608.755 0 1.547.664 1.704 1.435l.385 1.925-1.921-.386c-.573-.115-1.049-.483-1.272-.985zm4.927 1.369l.385-1.921c.162-.811.826-1.397 1.577-1.397.271 0 .537.075.787.228.471.281.68.72.59 1.234-.121.689-.734 1.334-1.405 1.471l-1.934.385zm7.244 1.451v2.232H4.326V9.075h16.352z"/></svg>
