<svg xmlns="http://www.w3.org/2000/svg" width="24px" height="24px" viewBox="0 0 25 25"><switch><g><path d="M13.1 8.5H8.8c-.8 0-.8 1.3 0 1.3h3c1 0 2-.1 3 0 2.2.2 2.7 3.2.7 4.1-.9.4-2.2.2-3.2.2H9.4l.6-.6c.6-.6-.3-1.5-.9-.9l-1.8 1.8c-.3.3-.3.7 0 .9.7.5 1.3 1.1 1.9 1.7.6.6 1.5-.3.9-.9l-.6-.6h2.9c1.3 0 2.7.2 3.9-.5 2-1.1 2.4-4 .6-5.6-1-1-2.4-.9-3.8-.9z"/><path d="M12.5 1.9C6.7 1.9 1.9 6.7 1.9 12.5s4.8 10.6 10.6 10.6 10.6-4.8 10.6-10.6S18.3 1.9 12.5 1.9zm0 19.9c-5.2 0-9.3-4.2-9.3-9.3 0-5.2 4.2-9.3 9.3-9.3s9.3 4.2 9.3 9.3c0 5.2-4.1 9.3-9.3 9.3z"/></g></switch></svg>
