<svg xmlns="http://www.w3.org/2000/svg" width="24px" height="24px" viewBox="0 0 25 25"><switch><g><path d="M21 7.8c0-.4-.3-.6-.6-.6h-3.8v-1c0-2.3-1.8-4.2-4.1-4.2S8.4 3.9 8.4 6.2v1H4.6c-.3-.1-.6.2-.6.5v14.7c0 .4.3.6.6.6h15.7c.2 0 .3-.1.4-.2.1-.1.2-.3.2-.4L21 7.8zm-4.4.4V10c0 .4-.3.6-.6.6-.4 0-.6-.3-.6-.6V8.2h1.2zM9.7 6.5c0-.6 0-1.2.3-1.7.5-1 1.5-1.6 2.5-1.6h.1c1 0 1.9.6 2.4 1.5.3.6.4 1.2.3 1.9v.6H9.7v-.7zM8.4 8.2h1.3V10c0 .4-.3.6-.6.6-.4 0-.6-.3-.6-.6V8.2zm8.2 5.7l-4.4 4.7c-.3.2-.7.2-.9 0l-2.5-2.1c-.7-.6.2-1.5.9-1l2 1.7 4-4.2c.6-.6 1.5.3.9.9z"/></g></switch></svg>
