<svg xmlns="http://www.w3.org/2000/svg" width="24px" height="24px" viewBox="0 0 25 25"><path fill="#231F20" d="M4.977 16.302l-1.069 3.987a.66.66 0 0 0 .803.803l4.107-1.101c.037-.01.061-.032.093-.047.021-.009.042-.007.063-.019.022-.013.043-.032.065-.045.013-.01.027-.018.04-.027.035-.021.067-.053.102-.075l-3.972-3.972a1.774 1.774 0 0 0-.232.496zm15.949-9.131l-3.097-3.097a.66.66 0 0 0-.923 0c-2.09 2.091-4.181 4.182-6.272 6.271l-4.025 4.026c-.151.151-.33.31-.514.475l4.062 4.063c.249-.267.488-.537.724-.772l4.048-4.048 5.996-5.996a.656.656 0 0 0 .001-.922z"/></svg>
