<svg xmlns="http://www.w3.org/2000/svg" width="24px" height="24px" viewBox="0 0 25 25"><path fill="#231F20" d="M19.505 15.933c-.729-.885-1.877-1.345-2.892-1.749-.155-.062-.312-.121-.469-.18-.486-.182-.946-.353-1.367-.641 1.365-.97 2.229-2.726 2.261-4.609.026-1.59-.644-3.316-1.708-4.398-.79-.805-1.757-1.229-2.794-1.229h-.042c-1.294.014-2.416.626-3.245 1.77-.7.966-1.146 2.269-1.225 3.574-.116 1.937.751 3.846 2.219 4.917l-.007.004c-.445.234-.906.479-1.381.662l-.049.02c-1.061.408-2.062.797-2.929 1.562C4.206 17.109 4.08 19.662 4.48 21.4c.062.27.327.473.616.473h14.902a.59.59 0 0 0 .596-.459.756.756 0 0 0 .043-.168c.149-1.293.201-3.701-1.132-5.313zm-8.28-1.621c.284-.146.354-.518.408-.812.013-.063.024-.129.037-.186.07-.289-.055-.591-.298-.718-1.067-.557-1.87-1.798-2.046-3.16-.244-1.906.639-4.71 2.937-5.016.801-.106 1.523.153 2.125.766.969.985 1.389 2.642 1.368 3.762-.022 1.461-.868 2.937-2.057 3.588-.241.133-.36.421-.3.716.016.062.023.127.035.191.028.187.062.393.158.557.17.289.539.498.836.666.041.021.08.047.117.066.36.209.768.35 1.162.48.18.062.366.125.542.193a9.005 9.005 0 0 1 1.714.861c1.355.895 1.54 2.826 1.447 4.324H5.629a7.324 7.324 0 0 1-.008-1.73c.176-1.678 1.345-2.592 2.295-3.062.451-.226.926-.418 1.384-.604a20.07 20.07 0 0 0 1.556-.69l.369-.192z"/></svg>
