<svg xmlns="http://www.w3.org/2000/svg" width="24px" height="24px" viewBox="0 0 25 25"><path fill="#231F20" d="M20.297 7.171l-3.762.001V6.168c0-2.279-1.775-4.109-4.042-4.167-2.183-.052-4.049 1.874-4.048 4.167v1.004H4.703a.647.647 0 0 0-.638.639v14.55c0 .346.292.639.639.639l15.595-.002c.172 0 .322-.06.428-.166l.027-.025c.008-.008.01-.012.008-.01a.595.595 0 0 0 .174-.436V7.81a.648.648 0 0 0-.639-.639zM9.722 10.132c0 .407-.321.621-.639.621s-.637-.214-.637-.621v-1.82h1.276v1.82zm0-3.548c0-.562 0-1.142.253-1.701.435-.962 1.399-1.577 2.518-1.605l.062-.001c.947 0 1.859.562 2.378 1.468.322.563.322 1.182.322 1.84v.588H9.722v-.589zm6.813 3.548c0 .407-.322.621-.639.621-.318 0-.642-.214-.642-.621v-1.82h1.277l.004 1.82z"/></svg>
