<svg xmlns="http://www.w3.org/2000/svg" width="24px" height="24px" viewBox="0 0 486 486"><path d="M420.7 85.4c-42.1-42.1-98.1-65.3-157.6-65.3-60.6 0-117.3 23.9-159.6 67.3-4.6 4.7-4.5 12.3.2 17 4.7 4.6 12.3 4.5 17-.2 37.8-38.7 88.3-60 142.4-60C372.8 44.1 462 133.3 462 243s-89.2 198.9-198.9 198.9S64.3 352.7 64.3 243v-2.5L84 260.3c2.3 2.3 5.4 3.5 8.5 3.5s6.1-1.2 8.5-3.5c4.7-4.7 4.7-12.3 0-17L60.8 203c-4.7-4.7-12.3-4.7-17 0L3.5 243.3c-4.7 4.7-4.7 12.3 0 17 4.7 4.7 12.3 4.7 17 0l19.8-19.8v2.5c0 59.5 23.2 115.5 65.3 157.6s98.1 65.3 157.6 65.3 115.5-23.2 157.6-65.3c42-42.1 65.2-98.1 65.2-157.6s-23.2-115.5-65.3-157.6z"/><path d="M263.2 161.2c29.7 0 54.7 15.8 54.7 34.5 0 7 5.7 12.6 12.6 12.6 7 0 12.6-5.7 12.6-12.6 0-30.3-28.7-54.6-67.3-59v-15c0-7-5.7-12.6-12.6-12.6s-12.6 5.7-12.6 12.6v15c-38.6 4.4-67.3 28.8-67.3 59 0 33.5 35.1 59.8 80 59.8 29.7 0 54.7 15.8 54.7 34.5s-25.1 34.5-54.7 34.5-54.7-15.8-54.7-34.5c0-7-5.7-12.6-12.6-12.6s-12.6 5.7-12.6 12.6c0 30.3 28.7 54.6 67.3 59v15c0 7 5.7 12.6 12.6 12.6s12.6-5.7 12.6-12.6v-15c38.6-4.4 67.3-28.8 67.3-59 0-33.5-35.1-59.8-80-59.8-29.7 0-54.7-15.8-54.7-34.5s25-34.5 54.7-34.5z"/></svg>
