<svg xmlns="http://www.w3.org/2000/svg" width="24px" height="24px" viewBox="0 0 25 25"><switch><g><path d="M11.3 18.3c.3.2.7.3.9 0 1.5-1.6 3-3.1 4.4-4.7.6-.6-.3-1.5-.9-.9-1.3 1.4-2.7 2.8-4 4.2-.7-.6-1.4-1.1-2-1.7-.6-.5-1.6.4-.9.9.8.8 1.6 1.5 2.5 2.2z"/><path d="M20.4 7.1h-3.8v-1c0-2.3-1.8-4.1-4.1-4.2h-.1c-2.2 0-4 1.9-4 4.2v1H4.6c-.3 0-.6.3-.6.7v14.7c0 .3.3.6.6.6h15.7c.2 0 .3-.1.4-.2.1-.1.2-.3.2-.4V7.8c.1-.4-.2-.7-.5-.7zM9.1 10.7c.3 0 .6-.2.6-.6V8.4h5.6V10c0 .4.3.6.6.6s.6-.2.6-.6V8.4h3.2v13.4H5.3V8.4h3.1V10c0 .5.3.7.7.7zm.6-3.6v-.6c0-.6 0-1.2.3-1.7.4-1 1.4-1.6 2.5-1.6h.1c1 0 1.9.6 2.4 1.5.3.6.3 1.2.3 1.9v.6H9.7z"/></g></switch></svg>
