<svg xmlns="http://www.w3.org/2000/svg" width="24px" height="24px" viewBox="0 0 25 25"><path fill="#231F20" d="M21.717 11.318a.46.46 0 0 0-.066-.062l-8.695-7.978a.655.655 0 0 0-.888 0L3.29 11.304a.603.603 0 0 0-.152.677c.1.255.333.42.596.42h1.431v8.855a.64.64 0 0 0 .638.639h4.388a.64.64 0 0 0 .639-.639v-5.795h3.336v5.795a.64.64 0 0 0 .64.639h4.387a.64.64 0 0 0 .639-.639v-8.855h1.432a.589.589 0 0 0 .557-.34.586.586 0 0 0-.104-.743zm-6.914 2.868h-4.614a.638.638 0 0 0-.638.64v5.793H6.44v-8.855a.639.639 0 0 0-.639-.639h-.426l7.134-6.523 7.111 6.523h-.431a.639.639 0 0 0-.639.639v8.854h-3.109v-5.793a.639.639 0 0 0-.638-.639z"/></svg>
