<svg xmlns="http://www.w3.org/2000/svg" width="24px" height="24px" viewBox="0 0 25 25"><g fill="#231F20"><path d="M21.574 20.617l-5.126-5.127a7.452 7.452 0 0 0 1.7-4.736c0-4.11-3.344-7.455-7.453-7.455-4.11 0-7.454 3.345-7.454 7.455 0 4.111 3.344 7.455 7.454 7.455a7.442 7.442 0 0 0 4.865-1.812l5.115 5.117a.632.632 0 0 0 .448.188.62.62 0 0 0 .447-.188.633.633 0 0 0 .004-.897zm-10.878-3.683a6.185 6.185 0 0 1-6.178-6.178 6.184 6.184 0 0 1 6.178-6.178 6.185 6.185 0 0 1 6.178 6.178 6.185 6.185 0 0 1-6.178 6.178z"/><path d="M14.16 10.18h-2.829V7.35c0-.822-1.277-.822-1.277 0v2.83H7.225c-.823 0-.823 1.277 0 1.277h2.829v2.83c0 .824 1.277.824 1.277 0v-2.83h2.829c.822.001.822-1.277 0-1.277z"/></g></svg>
