<svg xmlns="http://www.w3.org/2000/svg" width="24px" height="24px" viewBox="0 0 25 25"><path fill="#231F20" d="M21.783 9.718a4.358 4.358 0 0 1-.049-.276l-.547-5.029a.626.626 0 0 0-.201-.409.641.641 0 0 0-.409-.206l-4.672-.506c-.128-.015-.281-.044-.447-.075-.284-.055-.605-.116-.896-.116-.146 0-.271.017-.384.047-.256.069-.469.312-.645.515-.046.052-.09.101-.128.14L3.302 13.906c-.12.117-.186.277-.186.449s.065.332.186.451l6.905 6.906a.634.634 0 0 0 .451.186.621.621 0 0 0 .451-.186l10.573-10.571c.314-.313.191-.954.101-1.423zm-3.379-.52a.564.564 0 0 1-.096.108.518.518 0 0 1-.109.093 2.004 2.004 0 0 1-1.233.433c-.49 0-.938-.19-1.257-.537a1.999 1.999 0 0 1-.524-1.293 1.685 1.685 0 0 1 .537-1.309 2.007 2.007 0 0 1 1.344-.525c.492 0 .938.191 1.26.538.656.716.693 1.741.078 2.492z"/></svg>
