<svg xmlns="http://www.w3.org/2000/svg" width="24px" height="24px" viewBox="0 0 25 25"><g fill="#231F20"><path d="M9.062 16.247h6.812a.634.634 0 0 0 0-1.269H9.062a.635.635 0 0 0 0 1.269zm0 2.679h6.812a.634.634 0 0 0 0-1.269H9.062a.635.635 0 0 0 0 1.269z"/><path d="M19.457 7.025h-.117V3.77a.645.645 0 0 0-.639-.639H6.233a.644.644 0 0 0-.639.639v3.255h-.051a2.557 2.557 0 0 0-2.554 2.554v6.255a2.557 2.557 0 0 0 2.554 2.554h.085v2.842c0 .349.29.639.638.639h12.469a.586.586 0 0 0 .45-.187.59.59 0 0 0 .188-.452v-2.842h.085a2.557 2.557 0 0 0 2.554-2.554V9.579a2.559 2.559 0 0 0-2.555-2.554zM6.871 4.408h11.191v2.617H6.871V4.408zm11.225 16.184H6.905v-7.404h11.191v7.404zm2.638-4.821c0 .704-.573 1.276-1.277 1.276h-.085v-4.498a.645.645 0 0 0-.638-.639H6.265a.645.645 0 0 0-.638.639v4.498h-.084a1.278 1.278 0 0 1-1.277-1.276V9.515c0-.703.573-1.276 1.277-1.276h13.914c.704 0 1.277.573 1.277 1.276v6.256z"/></g></svg>
