<svg xmlns="http://www.w3.org/2000/svg" width="24px" height="24px" viewBox="0 0 32 32"><path d="M26.875 13.125a1 1 0 0 0-1-1h-2v-5c0-3.313-2.688-6-6-6h-4a6 6 0 0 0-6 6v5h-2a1 1 0 0 0-1 1v15c0 .062.024.115.035.175-.015.053-.035.104-.035.158 0 1.381 4.925 2.5 11 2.5s11-1.119 11-2.5c0-.054-.021-.105-.035-.158.011-.06.035-.113.035-.175v-15zm-17-5c0-3.313 1.671-5.109 4.984-5.109h2c3.312 0 5.016 1.796 5.016 5.109v4h-12v-4zm7 12.723v3.277a1 1 0 1 1-2 0v-3.277c-.595-.347-1-.983-1-1.723a2 2 0 0 1 4 0c0 .738-.404 1.376-1 1.723z"/></svg>
