<svg xmlns="http://www.w3.org/2000/svg" width="24px" height="24px" viewBox="0 0 25 25"><path fill="#231F20" d="M20.936 7.81a.648.648 0 0 0-.641-.638h-3.764V6.168c0-2.279-1.775-4.109-4.042-4.167L12.393 2C10.25 2 8.441 3.909 8.441 6.168v1.004H4.7a.648.648 0 0 0-.639.639l.001 14.551c0 .345.292.638.639.638l15.596-.002a.6.6 0 0 0 .43-.166l.018-.017.012-.012c.01-.009.012-.011.01-.011a.6.6 0 0 0 .174-.438L20.936 7.81zM9.08 10.698c.317 0 .64-.215.64-.621V8.449h5.536v1.628c0 .406.32.621.639.621s.641-.215.641-.621V8.449h3.123l.002 13.273-14.321.003V8.45l3.104-.001v1.628c-.002.405.32.621.636.621zm.64-3.526v-.588c0-.562 0-1.142.253-1.701.435-.962 1.398-1.576 2.518-1.604l.062-.001c.947 0 1.857.562 2.379 1.467.322.563.322 1.183.322 1.84v.588L9.72 7.172z"/></svg>
