<svg xmlns="http://www.w3.org/2000/svg" width="24px" height="24px" viewBox="0 0 25 25"><g fill="#231F20"><path d="M21.574 20.617l-5.126-5.127a7.455 7.455 0 0 0 1.703-4.736c0-4.11-3.347-7.455-7.456-7.455-4.11 0-7.454 3.345-7.454 7.455 0 4.111 3.344 7.455 7.454 7.455a7.447 7.447 0 0 0 4.866-1.812l5.114 5.117c.119.119.279.188.448.188s.328-.066.448-.188a.632.632 0 0 0 .186-.449.613.613 0 0 0-.183-.448zm-10.878-3.683a6.185 6.185 0 0 1-6.178-6.178 6.184 6.184 0 0 1 6.178-6.178 6.184 6.184 0 0 1 6.178 6.178 6.184 6.184 0 0 1-6.178 6.178z"/><path d="M14.161 10.18H7.224c-.823 0-.823 1.277 0 1.277h6.937c.822.001.822-1.277 0-1.277z"/></g></svg>
