<svg xmlns="http://www.w3.org/2000/svg" width="24px" height="24px" viewBox="0 0 25 25"><path fill="#231F20" d="M17.412 5.055c-1.182-1.393-2.961-2.189-4.884-2.189-.974 0-1.954.209-2.836.604-2.645 1.189-4.13 4.144-3.611 7.182.271 1.594 1.324 2.917 2.342 4.197.296.371.575.725.836 1.08 1.142 1.566 2.562 3.517 2.605 5.582a.594.594 0 0 0 .162.438.661.661 0 0 0 .474.186h.013a.64.64 0 0 0 .465-.186.594.594 0 0 0 .163-.436c.031-1.569.881-3.014 1.674-4.244.584-.902 1.244-1.777 1.884-2.627.352-.465.714-.945 1.061-1.428 1.802-2.507 1.664-5.786-.348-8.159zM12.5 12.098a2.86 2.86 0 0 1-2.858-2.856c0-1.576 1.282-2.858 2.858-2.858s2.857 1.282 2.857 2.858a2.86 2.86 0 0 1-2.857 2.856z"/></svg>
