<svg width="24" height="21" viewBox="0 0 24 21" fill="none" xmlns="http://www.w3.org/2000/svg">
<path d="M23.5862 11.0693H19.8621V17.2762C19.8621 17.6054 19.7313 17.9213 19.4985 18.154C19.2658 18.3867 18.9498 18.5176 18.6207 18.5176H5.3793C5.05011 18.5176 4.7342 18.3868 4.50149 18.154C4.26877 17.9213 4.13794 17.6054 4.13794 17.2762V11.0693H0.413794C0.185285 11.0693 0 10.884 0 10.6555C0 10.427 0.185285 10.2417 0.413794 10.2417H4.13794V4.03482C4.13794 3.70563 4.26873 3.38972 4.50149 3.157C4.73425 2.92429 5.05015 2.79346 5.3793 2.79346H18.6207C18.9499 2.79346 19.2658 2.92424 19.4985 3.157C19.7312 3.38976 19.8621 3.70567 19.8621 4.03482V10.2417H23.5862C23.8147 10.2417 24 10.427 24 10.6555C24 10.884 23.8147 11.0693 23.5862 11.0693ZM4.96548 17.2762C4.96548 17.5047 5.15076 17.69 5.37927 17.69H18.6207C18.7304 17.69 18.8357 17.6464 18.9133 17.5688C18.9909 17.4912 19.0345 17.3859 19.0345 17.2762V11.0693H4.96548V17.2762ZM19.0345 4.03482C19.0345 3.92509 18.9909 3.81979 18.9133 3.7422C18.8357 3.66462 18.7304 3.62102 18.6207 3.62102H5.37927C5.15076 3.62102 4.96548 3.80631 4.96548 4.03482V10.2417H19.0345V4.03482Z" fill="black"/>
<path d="M21.9308 8.58691C21.7023 8.58691 21.517 8.40163 21.517 8.17312V1.55242C21.517 1.44269 21.4734 1.33739 21.3958 1.25981C21.3182 1.18222 21.2129 1.13862 21.1032 1.13862H14.8381C14.6096 1.13862 14.4243 0.953339 14.4243 0.72483C14.4243 0.496321 14.6096 0.311036 14.8381 0.311036H21.1032C21.4324 0.311036 21.7483 0.441823 21.981 0.674584C22.2137 0.907344 22.3445 1.22325 22.3445 1.55239V8.1731C22.3445 8.28283 22.3009 8.38812 22.2234 8.46571C22.1458 8.54329 22.0405 8.58689 21.9308 8.58689L21.9308 8.58691Z" fill="black"/>
<path d="M14.8381 20.1724H21.1032C21.2129 20.1724 21.3182 20.1288 21.3958 20.0513C21.4734 19.9737 21.517 19.8684 21.517 19.7586V13.1379C21.517 12.9094 21.7022 12.7241 21.9308 12.7241C22.1593 12.7241 22.3445 12.9094 22.3445 13.1379V19.7586C22.3445 20.0878 22.2138 20.4037 21.981 20.6365C21.7482 20.8692 21.4323 21 21.1032 21H14.8381C14.6096 21 14.4243 20.8147 14.4243 20.5862C14.4243 20.3577 14.6096 20.1724 14.8381 20.1724L14.8381 20.1724Z" fill="black"/>
<path d="M9.16173 1.13862H2.89666C2.66815 1.13862 2.48286 1.32391 2.48286 1.55242V8.17312C2.48286 8.40163 2.29758 8.58691 2.06907 8.58691C1.84056 8.58691 1.65527 8.40163 1.65527 8.17312V1.55242C1.65527 1.22323 1.78606 0.907324 2.01882 0.674607C2.25158 0.441889 2.56749 0.311059 2.89663 0.311059H9.16171C9.39022 0.311059 9.5755 0.496344 9.5755 0.724853C9.5755 0.953362 9.39022 1.13865 9.16171 1.13865L9.16173 1.13862Z" fill="black"/>
<path d="M2.06904 12.7241C2.17877 12.7241 2.28407 12.7677 2.36165 12.8453C2.43924 12.9229 2.48284 13.0282 2.48284 13.1379V19.7586C2.48284 19.9871 2.66812 20.1724 2.89663 20.1724H9.16171C9.39022 20.1724 9.5755 20.3577 9.5755 20.5862C9.5755 20.8147 9.39022 21 9.16171 21H2.89663C2.56745 21 2.25154 20.8692 2.01882 20.6365C1.7861 20.4037 1.65527 20.0878 1.65527 19.7586V13.1379C1.65527 13.0282 1.69887 12.9229 1.77646 12.8453C1.85404 12.7677 1.95934 12.7241 2.06907 12.7241L2.06904 12.7241Z" fill="black"/>
</svg>
