<svg id="Icon_Question_Outline" data-name="Icon Question Outline" xmlns="http://www.w3.org/2000/svg" width="24" height="24" viewBox="0 0 24 24">
  <g id="Canvas">
    <rect id="Brand_Icon_Asset_Canvas" data-name="Brand/Icon/Asset/Canvas" width="24" height="24" fill="rgba(0,0,0,0)"/>
  </g>
  <path id="Icon" d="M-6030,11a11,11,0,0,1,11-11,11,11,0,0,1,7.778,3.222A11,11,0,0,1-6008,11a11,11,0,0,1-11,11A11,11,0,0,1-6030,11Zm1.1,0a9.9,9.9,0,0,0,9.9,9.9,9.9,9.9,0,0,0,9.9-9.9,9.9,9.9,0,0,0-9.9-9.9A9.91,9.91,0,0,0-6028.9,11Zm9.867,6.769a1.007,1.007,0,0,1-.967-.982,1.009,1.009,0,0,1,1-1.017,1.009,1.009,0,0,1,1,1.017,1.016,1.016,0,0,1-.318.708.987.987,0,0,1-.682.274Zm-.557-3.918V11.71a1,1,0,0,1,.929-1.059,2.178,2.178,0,0,0,1.531-1,2.271,2.271,0,0,0-.4-2.881,2.271,2.271,0,0,0-2.909-.118,2.248,2.248,0,0,0-.819,1.8.6.6,0,0,1-.6.6.6.6,0,0,1-.6-.6,3.462,3.462,0,0,1,2.079-3.163,3.463,3.463,0,0,1,3.732.633,3.44,3.44,0,0,1,.479,4.46,3.465,3.465,0,0,1-1.951,1.371.379.379,0,0,0-.269.369v1.731a.6.6,0,0,1-.6.6A.6.6,0,0,1-6019.59,13.852Z" transform="translate(6031 1)"/>
</svg>
