<svg data-name="Icon Tooltip Fill" xmlns="http://www.w3.org/2000/svg" width="24" height="24">
  <defs>
    <mask id="a">
      <path d="M12 5a7 7 0 1 0 7 7 7 7 0 0 0-7-7z" fill="#fff"/>
      <path data-name="Union 10" d="M10.75 16.34a.5.5 0 0 1-.5-.5.511.511 0 0 1 .5-.5h1v-3.63h-1a.5.5 0 0 1-.5-.5.509.509 0 0 1 .5-.5h1.5a.5.5 0 0 1 .5.5v4.13h1a.5.5 0 0 1 .5.5.5.5 0 0 1-.5.5zm.06-7.92a1 1 0 0 1 1-1 1 1 0 0 1 1 1 1 1 0 0 1-1 1 1 1 0 0 1-.999-1z"/>
    </mask>
  </defs>
  <path mask="url(#a)" d="M0 0h24v24H0z"/>
</svg>
