<svg width="20" height="20" viewBox="0 0 20 20" fill="none" xmlns="http://www.w3.org/2000/svg">
<path d="M10 0C7.34784 0 4.8043 1.05357 2.92893 2.92893C1.05357 4.8043 0 7.34784 0 10C0 12.6522 1.05357 15.1957 2.92893 17.0711C4.8043 18.9464 7.34784 20 10 20C11.3132 20 12.6136 19.7413 13.8268 19.2388C15.0401 18.7362 16.1425 17.9997 17.0711 17.0711C17.9997 16.1425 18.7362 15.0401 19.2388 13.8268C19.7413 12.6136 20 11.3132 20 10C20 8.68678 19.7413 7.38642 19.2388 6.17317C18.7362 4.95991 17.9997 3.85752 17.0711 2.92893C16.1425 2.00035 15.0401 1.26375 13.8268 0.761205C12.6136 0.258658 11.3132 0 10 0ZM14.9158 10.8779L11.1263 14.6674C11.0157 14.778 10.8844 14.8657 10.74 14.9255C10.5955 14.9854 10.4406 15.0162 10.2842 15.0162C10.1278 15.0162 9.97295 14.9854 9.82847 14.9255C9.68398 14.8657 9.55269 14.778 9.44211 14.6674C9.33152 14.5568 9.2438 14.4255 9.18395 14.281C9.1241 14.1365 9.09329 13.9817 9.09329 13.8253C9.09329 13.6689 9.1241 13.514 9.18395 13.3695C9.2438 13.225 9.33152 13.0937 9.44211 12.9832L11.2632 11.1789H5.92421C5.76828 11.1789 5.61388 11.1482 5.46982 11.0886C5.32577 11.0289 5.19487 10.9414 5.08461 10.8312C4.97436 10.7209 4.8869 10.59 4.82723 10.446C4.76755 10.3019 4.73684 10.1475 4.73684 9.99158C4.73684 9.83565 4.76755 9.68125 4.82723 9.53719C4.8869 9.39314 4.97436 9.26224 5.08461 9.15198C5.19487 9.04173 5.32577 8.95426 5.46982 8.89459C5.61388 8.83492 5.76828 8.80421 5.92421 8.80421H11.2379L9.44632 7.01053C9.22298 6.78719 9.0975 6.48427 9.0975 6.16842C9.0975 5.85257 9.22298 5.54966 9.44632 5.32632C9.66966 5.10298 9.97257 4.9775 10.2884 4.9775C10.6043 4.9775 10.9072 5.10298 11.1305 5.32632L14.92 9.11579C15.0353 9.23138 15.1253 9.36966 15.1844 9.52186C15.2435 9.67407 15.2703 9.83689 15.2632 10V10.0379C15.2635 10.1939 15.233 10.3484 15.1734 10.4926C15.1137 10.6367 15.0262 10.7677 14.9158 10.8779Z" fill="black"/>
</svg>
