<svg id="Icon_Accessibility_1" data-name="Icon Accessibility 1" xmlns="http://www.w3.org/2000/svg" width="24" height="24" viewBox="0 0 24 24">
  <g id="Canvas">
    <rect id="Brand_Icon_Asset_Canvas" data-name="Brand/Icon/Asset/Canvas" width="24" height="24" fill="rgba(0,0,0,0)"/>
  </g>
  <path id="Icon" d="M-6030,10a10,10,0,0,1,10-10,10,10,0,0,1,7.072,2.928A10,10,0,0,1-6010,10a10,10,0,0,1-10,10A10,10,0,0,1-6030,10Zm1,0a9,9,0,0,0,9,9,9,9,0,0,0,9-9,9,9,0,0,0-9-9A9,9,0,0,0-6029,10Zm11.092,6.409a.655.655,0,0,1-.313-.43c-.46-1.439-.981-2.869-1.46-4.31a.289.289,0,0,0-.319-.23.289.289,0,0,0-.319.23c-.46,1.441-.97,2.871-1.46,4.31a.655.655,0,0,1-.313.43.656.656,0,0,1-.527.061.606.606,0,0,1-.422-.309.61.61,0,0,1-.028-.521l1.51-4.72a1.282,1.282,0,0,0,0-.34V7.791c.01-.16-.05-.251-.239-.251-.97-.1-1.551-.23-2.551-.35a.56.56,0,0,1-.58-.58.582.582,0,0,1,.59-.5c1.15.091,1.9.251,3,.251h2.8c1.089-.05,1.839-.16,3-.251a.582.582,0,0,1,.59.5.53.53,0,0,1-.58.58c-.97.12-1.551.25-2.55.35-.241.03-.241.091-.241.251V10.58a1.418,1.418,0,0,0,0,.34l1.391,4.72a.612.612,0,0,1-.029.521.606.606,0,0,1-.422.309.657.657,0,0,1-.2.03A.653.653,0,0,1-6017.907,16.409ZM-6020.014,6a1.251,1.251,0,0,1-1.236-1.258A1.251,1.251,0,0,1-6020,3.5a1.26,1.26,0,0,1,1.23,1.27h.02A1.25,1.25,0,0,1-6020,6Z" transform="translate(6032 2)"/>
</svg>
