<svg id="Icon_Credit_Card_Fill" data-name="Icon Credit Card Fill" xmlns="http://www.w3.org/2000/svg" width="24" height="24" viewBox="0 0 24 24">
  <g id="Canvas">
    <rect id="Brand_Icon_Asset_Canvas" data-name="Brand/Icon/Asset/Canvas" width="24" height="24" fill="rgba(0,0,0,0)"/>
  </g>
  <path id="Icon" d="M-6028.9,16a1.1,1.1,0,0,1-1.1-1.1V13h22v1.9a1.1,1.1,0,0,1-1.1,1.1Zm-1.1-4V1.1a1.1,1.1,0,0,1,1.1-1.1h19.8a1.1,1.1,0,0,1,1.1,1.1V12Zm13.47-2-.94-3.06,2.47-1.89h-3L-6019,2l-.94,3.049H-6023l2.479,1.9-.94,3.049L-6019,8.1Z" transform="translate(6031 4)"/>
</svg>
