<svg width="20" height="20" viewBox="0 0 20 20" fill="none" xmlns="http://www.w3.org/2000/svg">
<path d="M4.43665 0.000144958H19.9446V1.00229H4.43665V0.000144958Z" fill="black"/>
<path d="M6.07203 1.00229C5.89066 0.825733 5.70108 0.65553 5.49401 0.501296C5.7011 0.347062 5.89068 0.176859 6.07187 0.000144958H4.44568C4.43746 0.00479536 4.4294 0.00975567 4.42118 0.0148708C4.39034 0.032387 4.35949 0.0506779 4.32864 0.0683509C4.22029 0.127101 4.11024 0.182593 3.99801 0.233438C3.98669 0.240104 3.97383 0.243514 3.96282 0.249715C3.95647 0.25328 3.95151 0.255915 3.94407 0.25638C3.91756 0.268006 3.89074 0.279942 3.86377 0.290637H3.86393C3.84843 0.295753 3.8337 0.302883 3.8182 0.308928C3.79479 0.318539 3.77123 0.327995 3.74767 0.33714C3.71419 0.350316 3.68086 0.362717 3.64723 0.374963C3.61576 0.386588 3.5843 0.397439 3.55267 0.4086H3.54678C3.54663 0.408755 3.54694 0.408445 3.54461 0.405035C3.52679 0.411235 3.50927 0.416195 3.49191 0.422861C3.48462 0.427356 3.47703 0.427511 3.46912 0.429526C3.45037 0.435727 3.43146 0.441152 3.41239 0.447352C3.3972 0.451848 3.38201 0.456653 3.36666 0.460838C3.34667 0.467039 3.32667 0.472464 3.30667 0.478354C3.28575 0.484555 3.26498 0.48998 3.2439 0.495406C3.27846 0.504551 3.31272 0.514317 3.34698 0.524393C3.3941 0.538654 3.44107 0.552915 3.48773 0.568262C3.50664 0.574462 3.52555 0.580198 3.54446 0.586863L3.55082 0.590428L3.55066 0.590583C3.56136 0.594148 3.57004 0.597404 3.58012 0.600969C3.62228 0.615695 3.66429 0.630266 3.70614 0.645921C3.7218 0.651037 3.73652 0.657547 3.75171 0.663747C3.76613 0.668243 3.77946 0.674908 3.79326 0.680799C3.841 0.6994 3.88797 0.719241 3.93493 0.739394C3.94067 0.742959 3.94424 0.744664 3.9509 0.744664L3.95788 0.748694C3.96935 0.75536 3.98237 0.75939 3.99353 0.76497H3.99926C4.02298 0.774581 4.04608 0.786672 4.06917 0.797832C4.08483 0.806978 4.10157 0.812558 4.11738 0.820619C4.14187 0.83178 4.16512 0.8448 4.18915 0.856736C4.21581 0.868362 4.24123 0.882778 4.26681 0.896574C4.28928 0.909284 4.31191 0.922615 4.33594 0.932691C4.36493 0.949432 4.39376 0.965553 4.42275 0.982759C4.43065 0.987409 4.43871 0.992369 4.44708 0.99702L6.07203 1.00229Z" fill="black"/>
<path d="M4.40063 1.02318C6.70766 2.35549 7.49353 5.29065 6.16155 7.59858L7.09996 8.14049C8.7246 5.32565 7.75659 1.70993 4.94238 0.0849304L4.40063 1.02318Z" fill="black"/>
<path d="M6.20374 7.59884L18.641 0.416298L19.142 1.28419L6.70473 8.46674L6.20374 7.59884Z" fill="black"/>
<path d="M9.7887 0.983723C11.0568 1.78079 11.5023 3.549 10.7524 4.96309L11.671 5.54051C12.6843 3.62987 12.0835 1.14725 10.2974 0.0246353L9.7887 0.983723Z" fill="black"/>
<path d="M8.12081 7.64881C7.87543 7.5865 7.62617 7.53411 7.36978 7.50388C7.47193 7.26656 7.55114 7.02444 7.61981 6.78075L6.21139 7.59408C6.20659 7.6023 6.20194 7.61082 6.19713 7.61857C6.17915 7.64926 6.16102 7.67996 6.14242 7.71049C6.0784 7.8159 6.01035 7.91867 5.93858 8.01896C5.93098 8.02981 5.92385 8.04035 5.91626 8.05074C5.91254 8.05694 5.90835 8.06159 5.90432 8.06577C5.88712 8.08918 5.86975 8.11274 5.85208 8.13584H5.851C5.84092 8.14855 5.83085 8.16188 5.82062 8.17459C5.80512 8.19443 5.78946 8.21458 5.77365 8.23411C5.75133 8.26233 5.7287 8.28992 5.7056 8.3172C5.68405 8.34247 5.66235 8.36804 5.64034 8.39347L5.63709 8.39703H5.63492C5.62267 8.41129 5.61027 8.42478 5.59802 8.43873C5.59306 8.4454 5.58717 8.45036 5.58175 8.45609C5.56842 8.47082 5.55493 8.48539 5.54145 8.49981C5.5306 8.51143 5.51975 8.52321 5.50874 8.53453C5.49448 8.54956 5.48006 8.56445 5.46565 8.57994C5.45046 8.59545 5.43527 8.61064 5.41992 8.62598C5.45433 8.61668 5.4889 8.608 5.52347 8.59932C5.57137 8.58816 5.61927 8.57685 5.66732 8.56646C5.6867 8.56197 5.70607 8.55825 5.7256 8.55406H5.73398C5.74405 8.55049 5.75444 8.55049 5.76451 8.54832C5.80823 8.53964 5.85209 8.53158 5.89612 8.52445C5.91224 8.52089 5.92836 8.51934 5.94448 8.51732C5.95936 8.51376 5.97424 8.51329 5.98912 8.51112C6.03966 8.50353 6.09035 8.49686 6.14103 8.49128C6.14708 8.49128 6.15188 8.49128 6.15731 8.48772H6.16521C6.17823 8.48772 6.19141 8.48415 6.20443 8.48415H6.20738C6.23295 8.48059 6.25853 8.4795 6.28426 8.47748C6.30209 8.47748 6.31976 8.47392 6.33743 8.47299C6.36409 8.46942 6.39075 8.46942 6.41757 8.46834C6.44655 8.46477 6.47569 8.46477 6.50468 8.46384C6.53072 8.46384 6.55661 8.46384 6.58265 8.46028H6.68279H6.71084L8.12081 7.64881Z" fill="black"/>
<path d="M6.68677 8.50753C9.35062 8.50753 11.4991 10.656 11.4991 13.3206H12.5828C12.5828 10.0704 9.93657 7.4238 6.68712 7.4238L6.68677 8.50753Z" fill="black"/>
<path d="M11.5348 13.3004L18.7157 0.859894L19.5835 1.36104L12.4025 13.8015L11.5348 13.3004Z" fill="black"/>
<path d="M11.3328 5.77821C12.8292 5.83417 14.0994 7.14321 14.1567 8.74309L15.241 8.7837C15.1635 6.62223 13.4018 4.77298 11.2938 4.69402L11.3328 5.77821Z" fill="black"/>
<path d="M13.2201 12.3849C12.9764 12.4537 12.7344 12.5328 12.4972 12.6349C12.467 12.3784 12.4146 12.1291 12.3523 11.8837L11.5391 13.2925C11.539 13.3021 11.5393 13.3115 11.5391 13.321C11.539 13.3568 11.5385 13.3923 11.5377 13.4279C11.5353 13.5512 11.5273 13.6743 11.5153 13.797C11.5139 13.8102 11.5131 13.8231 11.5117 13.8356C11.5115 13.8424 11.5103 13.8488 11.5092 13.8555C11.506 13.8843 11.5027 13.9134 11.499 13.9423H11.4979C11.4957 13.9581 11.4932 13.9748 11.4909 13.9909C11.4877 14.0159 11.4839 14.0412 11.4801 14.066C11.4748 14.1013 11.4689 14.1366 11.4626 14.1718C11.4567 14.2047 11.4505 14.2376 11.4443 14.2704L11.4429 14.2751H11.4407C11.4371 14.2934 11.4333 14.3114 11.4295 14.3298C11.4285 14.3382 11.4258 14.3453 11.4241 14.3529C11.4199 14.3724 11.4154 14.3915 11.4111 14.4109C11.4075 14.4264 11.404 14.4419 11.4001 14.4572C11.3954 14.4774 11.3902 14.4977 11.3854 14.518C11.3798 14.5391 11.3744 14.5598 11.3688 14.5808C11.3939 14.5555 11.4193 14.5304 11.4452 14.5059C11.481 14.4719 11.517 14.4386 11.5535 14.4059C11.5681 14.3927 11.583 14.3791 11.5979 14.3659L11.6042 14.3623H11.6053C11.6125 14.3543 11.6211 14.3492 11.629 14.3422C11.6625 14.3129 11.6965 14.2839 11.7309 14.2555C11.7431 14.2439 11.7563 14.2354 11.769 14.2249C11.7803 14.2142 11.7929 14.2066 11.8047 14.1974C11.8445 14.1653 11.8853 14.1346 11.9262 14.1041C11.9315 14.1005 11.9356 14.0988 11.9387 14.0932L11.9456 14.0892C11.9569 14.083 11.9667 14.0734 11.9777 14.0664L11.9787 14.0619C11.9992 14.0464 12.0207 14.0323 12.042 14.0178C12.0575 14.0086 12.071 13.9971 12.0859 13.9874C12.1072 13.9716 12.1303 13.9581 12.1528 13.9432C12.1762 13.9258 12.2015 13.9111 12.2261 13.8959C12.2486 13.8831 12.2711 13.8699 12.292 13.8541C12.321 13.8373 12.3498 13.8209 12.3788 13.804C12.3869 13.7993 12.3953 13.7949 12.4032 13.7897L13.2201 12.3849Z" fill="black"/>
<path d="M12.3987 13.8401C14.7057 12.5078 17.64 13.2944 18.9721 15.6022L19.9105 15.0603C18.2857 12.2455 14.6712 11.2764 11.8569 12.9017L12.3987 13.8401Z" fill="black"/>
<path d="M18.993 15.5663V1.20117H19.995V15.5663H18.993Z" fill="black"/>
<path d="M15.0581 9.15275C16.3822 8.45271 18.1365 8.95155 18.9858 10.3083L19.945 9.80132C18.7975 7.96819 16.3474 7.24739 14.4823 8.23323L15.0581 9.15275Z" fill="black"/>
<path d="M19.995 13.9306C19.8185 14.112 19.6484 14.3017 19.494 14.5088C19.3396 14.3017 19.1696 14.1121 18.993 13.9308V15.5573C18.9975 15.5653 19.0027 15.5735 19.0071 15.5818C19.0248 15.6124 19.0422 15.6438 19.0594 15.6751C19.1188 15.7831 19.1736 15.8935 19.2245 16.0059C19.2297 16.0178 19.2358 16.0297 19.2408 16.0412C19.244 16.0474 19.246 16.0531 19.2483 16.0598C19.2598 16.0865 19.2718 16.1133 19.2829 16.1401H19.2818C19.2879 16.155 19.2941 16.1705 19.3001 16.1858C19.3097 16.2094 19.3192 16.2326 19.3282 16.2562C19.3414 16.2894 19.3539 16.323 19.366 16.3566C19.3772 16.3881 19.3883 16.4196 19.3995 16.4512L19.4009 16.4558H19.3992C19.4052 16.4734 19.4108 16.4909 19.4168 16.5087C19.4201 16.5163 19.4215 16.5236 19.4237 16.5315C19.4297 16.5506 19.4354 16.5693 19.4413 16.5882C19.446 16.6033 19.4506 16.6186 19.455 16.634C19.461 16.6541 19.4666 16.6739 19.4726 16.6939C19.4784 16.715 19.4841 16.7356 19.4897 16.7566C19.4987 16.7223 19.5083 16.6876 19.5184 16.6535C19.5325 16.6064 19.5469 16.5594 19.5622 16.5127C19.5683 16.4937 19.5743 16.4749 19.5807 16.456L19.5844 16.4493H19.5855C19.5877 16.4389 19.5926 16.4298 19.5957 16.42C19.61 16.3779 19.625 16.3359 19.6407 16.294C19.6458 16.2785 19.6525 16.2636 19.6583 16.2483C19.6628 16.2334 19.6698 16.2205 19.6756 16.2067C19.694 16.159 19.714 16.112 19.7341 16.0652C19.7371 16.0599 19.7396 16.0556 19.7394 16.0497L19.7433 16.0429C19.7498 16.0317 19.7535 16.0182 19.7599 16.0071L19.7585 16.0026C19.7684 15.9787 19.78 15.9558 19.791 15.9327C19.7999 15.9172 19.8058 15.9001 19.8138 15.8845C19.8244 15.8603 19.8377 15.8367 19.8498 15.8129C19.8614 15.7862 19.8758 15.7608 19.8896 15.7352C19.9026 15.7124 19.9157 15.6901 19.9257 15.6661C19.9425 15.6368 19.9592 15.6083 19.9758 15.5793C19.9805 15.5712 19.9856 15.5635 19.9898 15.5551L19.995 13.9306Z" fill="black"/>
<path d="M18.9982 15.5663V0H20.0002V15.5663H18.9982Z" fill="black"/>
<path d="M6.92079 16.2945C6.92079 17.3661 6.05194 18.2349 4.98023 18.2349C3.90852 18.2349 3.03967 17.366 3.03967 16.2945C3.03967 15.2227 3.90852 14.3539 4.98023 14.3539C6.05194 14.3539 6.92079 15.2228 6.92079 16.2945Z" fill="black"/>
<path d="M0.541107 14.5258C0.587301 14.6056 0.663254 14.6641 0.752385 14.6879C0.841516 14.7118 0.936536 14.6992 1.01637 14.653C1.9176 14.1327 3.05986 14.4388 3.58022 15.34C3.67632 15.5064 3.88899 15.5632 4.05533 15.4673C4.13516 15.4213 4.1936 15.3453 4.21747 15.2562C4.24134 15.167 4.22879 15.0722 4.18275 14.9922C3.4745 13.7653 1.89541 13.3423 0.668504 14.0505V14.0507C0.502178 14.1466 0.445135 14.3593 0.541087 14.5258L0.541107 14.5258Z" fill="black"/>
<path d="M0.174004 17.4326C0.253989 17.4786 0.348854 17.491 0.437985 17.4671C0.527116 17.4433 0.603072 17.385 0.649262 17.305C1.16962 16.4038 2.31188 16.0976 3.21311 16.618C3.29294 16.6642 3.38796 16.6768 3.47694 16.6529C3.56607 16.629 3.64218 16.5707 3.68822 16.4909C3.73441 16.4109 3.74681 16.3161 3.72294 16.2269C3.69907 16.1378 3.64078 16.0619 3.5608 16.0158C2.33389 15.3074 0.754965 15.7304 0.0467109 16.9574V16.9572C0.000516474 17.0372 -0.0120392 17.1322 0.0118334 17.2213C0.03586 17.3105 0.0941429 17.3864 0.173972 17.4326L0.174004 17.4326Z" fill="black"/>
<path d="M1.39825 20C1.49063 20 1.57899 19.9633 1.64425 19.898C1.70951 19.8328 1.74609 19.7444 1.74609 19.652C1.74609 18.6113 2.58236 17.7752 3.62296 17.7752C3.81501 17.7752 3.97064 17.6195 3.97064 17.4275C3.9708 17.3353 3.93406 17.2467 3.86896 17.1815C3.8037 17.1162 3.71519 17.0795 3.62296 17.0795C2.20633 17.0795 1.05042 18.2354 1.05042 19.652C1.05042 19.7444 1.087 19.8329 1.15226 19.8982C1.21751 19.9634 1.30603 20 1.39826 20L1.39825 20Z" fill="black"/>
<path d="M9.41927 14.5258C9.32316 14.6921 9.11049 14.749 8.94415 14.6531C8.04292 14.1327 6.90066 14.4388 6.3803 15.34C6.33411 15.4199 6.25815 15.4782 6.16902 15.502C6.07989 15.5259 5.98503 15.5133 5.9052 15.4672C5.73887 15.3712 5.68183 15.1585 5.77778 14.9922C6.48619 13.7653 8.06512 13.3423 9.29203 14.0505C9.37201 14.0967 9.43014 14.1727 9.45401 14.2618C9.47788 14.3509 9.46533 14.446 9.41929 14.5258L9.41927 14.5258Z" fill="black"/>
<path d="M9.78634 17.4322C9.70651 17.4782 9.61165 17.4908 9.52252 17.4669C9.43339 17.443 9.35743 17.3849 9.31124 17.3049C8.79088 16.4037 7.64862 16.0975 6.74739 16.6179C6.58106 16.7139 6.36839 16.657 6.27227 16.4907C6.22623 16.4108 6.21367 16.3158 6.23755 16.2267C6.26142 16.1377 6.31955 16.0616 6.39953 16.0156C7.62644 15.3071 9.20537 15.7303 9.91378 16.9572V16.9571C10.0097 17.1234 9.95269 17.3361 9.78636 17.4322L9.78634 17.4322Z" fill="black"/>
<path d="M8.56254 20C8.47031 20 8.3818 19.9635 8.31654 19.8982C8.25128 19.8329 8.2147 19.7444 8.2147 19.652C8.2147 18.6113 7.37843 17.7752 6.33783 17.7752H6.33768C6.14578 17.7752 5.98999 17.6195 5.98999 17.4275C5.98999 17.3353 6.02657 17.2467 6.09183 17.1815C6.15709 17.1162 6.24545 17.0795 6.33768 17.0795C7.7543 17.0795 8.91022 18.2354 8.91022 19.652H8.91037C8.91037 19.7444 8.87379 19.8328 8.80853 19.898C8.74327 19.9633 8.65476 20 8.56253 20L8.56254 20Z" fill="black"/>
</svg>
