<svg id="Icon_BOPS_Fill" data-name="Icon BOPS Fill" xmlns="http://www.w3.org/2000/svg" width="24" height="24" viewBox="0 0 24 24">
  <g id="Canvas">
    <rect id="Brand_Icon_Asset_Canvas" data-name="Brand/Icon/Asset/Canvas" width="24" height="24" fill="rgba(0,0,0,0)"/>
  </g>
  <path id="Icon" d="M-6015.33,20.358a21.09,21.09,0,0,1-2.25.94,11.351,11.351,0,0,1-5.33.549,7.891,7.891,0,0,1-6.8-5.359,8,8,0,0,1,.76-6.1,10.656,10.656,0,0,1,3.351-3.51v.109a10.31,10.31,0,0,0-2.229,2.161,9.571,9.571,0,0,0-1.76,4.05,1.433,1.433,0,0,0-.05.46,5.593,5.593,0,0,0,.769,2.869,6.723,6.723,0,0,0,5.521,3.23,9.168,9.168,0,0,0,4.92-1c.389-.219.74-.419,1-.589l.521-.371-1.55-.53,7.54-2.381-4.06,7.1Zm-12.39-5.74,2.12-7.26.26-.931,1.181-4.11,2.6.751a4.719,4.719,0,0,1,.66-1.489,3.678,3.678,0,0,1,4.1-1.415,3.676,3.676,0,0,1,2.6,3.475,5.959,5.959,0,0,1-.26,1.5l2.62.749-2.87,9.881-4.3,1.38Zm9.1-1.02-.08-2.511,2.411-.869-2.461-.711-.08-2.559-1.429,2.12-2.461-.72,1.571,2-1.44,2.12,2.409-.87Zm-1.81-11.051c-.1.251-.18.51-.261.77l5.432,1.591a5.16,5.16,0,0,0,.189-.92,2.811,2.811,0,0,0-2.066-3.007,2.806,2.806,0,0,0-.73-.1A2.812,2.812,0,0,0-6020.43,2.547Z" transform="translate(6032 1)" fill="#010101"/>
</svg>
