<svg id="Icon_Same_Day_Delivery" data-name="Icon Same Day Delivery" xmlns="http://www.w3.org/2000/svg" width="24" height="24" viewBox="0 0 24 24">
  <g id="Canvas">
    <rect id="Brand_Icon_Asset_Canvas" data-name="Brand/Icon/Asset/Canvas" width="24" height="24" fill="rgba(0,0,0,0)"/>
  </g>
  <path id="Icon" d="M6.094,12.377A.084.084,0,0,0,6,12.32q-1.271,0-2.542,0a.774.774,0,0,1-.8-.683,1.175,1.175,0,0,1-.005-.168q0-.672,0-1.344a.489.489,0,0,1,.367-.471.5.5,0,0,1,.625.48c0,.375,0,.75,0,1.126v.068H5.865c.045,0,.058-.012.064-.058a1.988,1.988,0,0,1,3.887-.247c.026.1.043.2.065.3h5.275c0-.018,0-.037,0-.053V1.338a.287.287,0,0,0-.277-.3l-.066,0H4.151a.415.415,0,0,0-.311.105.211.211,0,0,0-.069.162c0,.592,0,1.183,0,1.775a.52.52,0,0,1-.4.519.513.513,0,0,1-.632-.5q0-.873,0-1.745a1.541,1.541,0,0,1,.028-.322,1.27,1.27,0,0,1,.77-.905A1.316,1.316,0,0,1,4.087,0Q9.468,0,14.849,0a1.289,1.289,0,0,1,1.208.738,1.355,1.355,0,0,1,.138.651q0,1.281,0,2.562v.062l.061,0h.255c.195,0,.389,0,.583.006a1.434,1.434,0,0,1,.975.425Q19.753,6.1,21.438,7.756a3.146,3.146,0,0,1,.318.353,1.288,1.288,0,0,1,.235.634c0,.013.006.026.008.04v3.1a1.058,1.058,0,0,1-.068.177.5.5,0,0,1-.471.258c-.695,0-1.387,0-2.081,0a.082.082,0,0,0-.089.057,1.938,1.938,0,0,1-1.482,1.128,1.974,1.974,0,0,1-2.132-1.137.069.069,0,0,0-.075-.049q-2.91,0-5.819,0a.07.07,0,0,0-.075.05,1.956,1.956,0,0,1-1.482,1.137,1.889,1.889,0,0,1-.337.03A1.989,1.989,0,0,1,6.094,12.377Zm11.39-1.827a.994.994,0,1,0,1,.991,1,1,0,0,0-1-.991Zm-9.587,0a.994.994,0,1,0,.995,1,1,1,0,0,0-.995-1Zm10.229-.882a1.925,1.925,0,0,1,1.323,1.576c.011.057.03.065.079.065.463,0,.928,0,1.39,0h.066c0-.02,0-.032,0-.046q0-1.182,0-2.364a.376.376,0,0,0-.114-.278l-.5-.491q-1.483-1.455-2.966-2.91a.6.6,0,0,0-.465-.19c-.228.006-.456,0-.685,0H16.2v4.991l.009,0,.04-.031a1.916,1.916,0,0,1,1.879-.32ZM8.937,7.881q.215-.7.431-1.39a.061.061,0,0,0-.027-.079L7.885,5.3l-.052-.043h1.9l.587-1.889c.042.132.079.25.115.368q.228.736.456,1.472c.012.038.026.049.065.048.59,0,1.181,0,1.771,0H12.8l-.326.253c-.391.3-.781.6-1.172.9a.053.053,0,0,0-.02.068c.187.6.37,1.2.556,1.8l.017.06L10.326,7.17,8.794,8.343ZM4.2,7.816H.532a.5.5,0,0,1-.459-.245A1.311,1.311,0,0,1,0,7.38V7.259A.621.621,0,0,1,.119,7,.5.5,0,0,1,.48,6.823H.51q2.263,0,4.524,0a.5.5,0,0,1,.359.85.492.492,0,0,1-.372.144ZM4,5.509H2.073a.561.561,0,0,1-.287-.065.5.5,0,0,1,.159-.923.693.693,0,0,1,.122-.006H5.922a.513.513,0,0,1,.516.365A.5.5,0,0,1,6,5.5c-.042,0-.084,0-.126,0Z" transform="translate(1 5)" stroke="rgba(0,0,0,0)" stroke-width="1"/>
</svg>
