<svg xmlns="http://www.w3.org/2000/svg" width="21" height="20.502" viewBox="0 0 21 20.502">
  <g id="Group_1658" data-name="Group 1658" transform="translate(0.5 0.501)">
    <path id="Shape" d="M10,0A9.877,9.877,0,0,0,0,9.75,9.877,9.877,0,0,0,10,19.5,9.877,9.877,0,0,0,20,9.75,9.877,9.877,0,0,0,10,0Z" fill="none" stroke="#7e7e7e" stroke-width="1"/>
    <path id="Path_2118" data-name="Path 2118" d="M2.607-19.782c-.028-1.554.726-2.746,2.247-2.746a1.974,1.974,0,0,1,1.436.591,1.974,1.974,0,0,1,.564,1.446,2.775,2.775,0,0,1-.907,1.947c-1.172,1.177-1.647,1.66-1.6,3.516h.879c.042-1.841.112-1.66,1.3-2.942A3.462,3.462,0,0,0,7.74-20.535a2.7,2.7,0,0,0-.805-2.022A2.7,2.7,0,0,0,4.9-23.328c-2.023,0-3.153,1.4-3.167,3.546ZM4.2-12.328H5.37v-1.6H4.2Z" transform="translate(5.772 27.828)" fill="#7e7e7e"/>
  </g>
</svg>
