<svg xmlns="http://www.w3.org/2000/svg" width="20" height="20" viewBox="0 0 20 20">
  <g id="Group_1692" data-name="Group 1692" transform="translate(-1340 -502)">
    <g id="find_product_ico" transform="translate(1340 502)">
      <g id="find_product_ico-2" data-name="find_product_ico">
        <path id="Path_2020" data-name="Path 2020" d="M12.511,25.294A.511.511,0,0,1,12,24.783V12.011a.511.511,0,0,1,1.022,0V24.783a.511.511,0,0,1-.511.511Z" transform="translate(-12 -11.5)"/>
        <path id="Path_2021" data-name="Path 2021" d="M50.511,25.294A.511.511,0,0,1,50,24.783V12.011a.511.511,0,1,1,1.022,0V24.783a.511.511,0,0,1-.511.511Z" transform="translate(-31.022 -11.5)"/>
        <path id="Path_2022" data-name="Path 2022" d="M19.511,21.207A.511.511,0,0,1,19,20.7V12.011a.511.511,0,0,1,1.022,0V20.7a.511.511,0,0,1-.511.507Z" transform="translate(-15.504 -11.5)"/>
        <path id="Path_2023" data-name="Path 2023" d="M27.511,21.207A.511.511,0,0,1,27,20.7V12.011a.511.511,0,0,1,1.022,0V20.7a.511.511,0,0,1-.511.507Z" transform="translate(-19.509 -11.5)"/>
        <path id="Path_2024" data-name="Path 2024" d="M35.511,21.207A.511.511,0,0,1,35,20.7V12.011a.511.511,0,1,1,1.022,0V20.7a.511.511,0,0,1-.511.507Z" transform="translate(-23.513 -11.5)"/>
        <path id="Path_2025" data-name="Path 2025" d="M43.511,21.125A.511.511,0,0,1,43,20.614v-8.6a.511.511,0,1,1,1.022,0v8.6A.511.511,0,0,1,43.511,21.125Z" transform="translate(-27.518 -11.5)"/>
        <path id="Path_2026" data-name="Path 2026" d="M23.956,17a8.082,8.082,0,1,0,7.956,8.081A8.082,8.082,0,0,0,23.956,17Zm0,13.132a5.051,5.051,0,1,1,4.973-5.051,5.051,5.051,0,0,1-4.973,5.051Z" transform="translate(-13.956 -14.19)" fill="#fff"/>
        <path id="Path_2027" data-name="Path 2027" d="M33.025,35.347a.726.726,0,0,1-.184,0,.859.859,0,0,1-.453-.25l-3.461-3.735A6.878,6.878,0,1,1,31.519,27.2a6.726,6.726,0,0,1-1.3,2.912l3.456,3.735a.888.888,0,0,1-.646,1.5ZM24.78,20.02a5.815,5.815,0,1,0,3.874,10.218l.323-.281.179-.194a5.678,5.678,0,0,0,1.358-2.774,5.842,5.842,0,0,0-3.675-6.565,5.716,5.716,0,0,0-2.059-.4Z" transform="translate(-14.922 -15.353)"/>
      </g>
      <rect id="Rectangle_177" data-name="Rectangle 177" width="19.564" height="19.564" fill="none"/>
    </g>
  </g>
</svg>
