<svg width="63" height="43" viewBox="0 0 63 43" fill="none" xmlns="http://www.w3.org/2000/svg">
  <path fill-rule="evenodd" clip-rule="evenodd" d="M19.9327 0V0.0212669H17.9338H11.2122C10.5235 0.0212669 9.96634 0.581577 9.96634 1.27265V20.0426H7.96747H1.24576C0.55719 20.0426 0 20.6028 0 21.2939V41.3152C0 42.0063 0.55719 42.5666 1.24576 42.5666H21.1785H41.1112H61.044C61.7325 42.5666 62.2897 42.0063 62.2897 41.3152V21.2939C62.2897 20.6028 61.7325 20.0426 61.044 20.0426H54.3223H52.3234V1.27265C52.3234 0.581577 51.7662 0.0212669 51.0775 0.0212669H44.3559H42.3571V0H39.8654V0.0212669H37.8666H31.1449H24.4232H22.4243V0H19.9327ZM51.0775 22.5452H49.0788V27.2775L50.1688 26.1087C50.4036 25.8563 50.7333 25.7127 51.0775 25.7127C51.4219 25.7127 51.7516 25.8563 51.9864 26.1087L53.0764 27.2775V22.5452H51.0775ZM47.8329 20.0426H49.8318V2.52395H45.6017V10.423C45.6017 10.9368 45.289 11.3981 44.8133 11.5869C44.6649 11.6456 44.5104 11.6743 44.3559 11.6743C44.0176 11.6743 43.6868 11.5362 43.4471 11.2784L41.1112 8.77325L38.7753 11.2784C38.4262 11.6542 37.8836 11.7745 37.4091 11.5869C36.9335 11.3981 36.6207 10.9368 36.6207 10.423V2.52395H32.3906V20.0426H34.3895H41.1112H47.8329ZM31.1449 22.5452H29.146V27.2775L30.2361 26.1087C30.4709 25.8563 30.8005 25.7127 31.1449 25.7127C31.4892 25.7127 31.8189 25.8563 32.0536 26.1087L33.1437 27.2775V22.5452H31.1449ZM42.0201 6.08729L43.1101 7.25619V2.52395H41.1112H39.1123V7.25619L40.2025 6.08729C40.4372 5.83495 40.767 5.6914 41.1112 5.6914C41.4555 5.6914 41.7852 5.83495 42.0201 6.08729ZM23.1774 2.52395H21.1785H19.1797V7.25619L20.2697 6.08729C20.5045 5.83495 20.8342 5.6914 21.1785 5.6914C21.5228 5.6914 21.8525 5.83495 22.0873 6.08729L23.1774 7.25619V2.52395ZM16.688 2.52395H12.4579V20.0426H14.4568H21.1785H27.9002H29.8991V2.52395H25.669V10.423C25.669 10.9368 25.3563 11.3981 24.8806 11.5869C24.7321 11.6456 24.5777 11.6743 24.4232 11.6743C24.085 11.6743 23.754 11.5362 23.5144 11.2784L21.1785 8.77325L18.8427 11.2784C18.4935 11.6542 17.9508 11.7745 17.4764 11.5869C17.0007 11.3981 16.688 10.9368 16.688 10.423V2.52395ZM13.211 22.5452H11.2122H9.21332V27.2775L10.3033 26.1087C10.5382 25.8563 10.8679 25.7127 11.2122 25.7127C11.5564 25.7127 11.8861 25.8563 12.1209 26.1087L13.211 27.2775V22.5452ZM6.72171 22.5452H2.49161V40.0639H19.9327V22.5452H15.7026V30.4443C15.7026 30.9581 15.3899 31.4194 14.9142 31.6082C14.7658 31.6669 14.6114 31.6957 14.4568 31.6957C14.1186 31.6957 13.7877 31.5575 13.548 31.2997L11.2122 28.7946L8.87631 31.2997C8.52832 31.6754 7.98569 31.797 7.51007 31.6082C7.03436 31.4194 6.72171 30.9581 6.72171 30.4443V22.5452ZM26.6544 22.5452H22.4243V40.0639H39.8654V22.5452H35.6353V30.4443C35.6353 30.9581 35.3227 31.4194 34.847 31.6082C34.6986 31.6669 34.544 31.6957 34.3895 31.6957C34.0513 31.6957 33.7204 31.5575 33.4807 31.2997L31.1449 28.7946L28.809 31.2997C28.4598 31.6754 27.9173 31.797 27.4427 31.6082C26.967 31.4194 26.6544 30.9581 26.6544 30.4443V22.5452ZM42.3571 40.0639H59.7981V22.5452H55.568V30.4443C55.568 30.9581 55.2554 31.4194 54.7797 31.6082C54.6313 31.6669 54.4768 31.6957 54.3223 31.6957C53.9841 31.6957 53.6531 31.5575 53.4134 31.2997L51.0775 28.7946L48.7418 31.2997C48.3926 31.6754 47.8488 31.797 47.3755 31.6082C46.8998 31.4194 46.5872 30.9581 46.5872 30.4443V22.5452H42.3571V40.0639Z" fill="#000" />
</svg>
