<svg width="16" height="20" viewBox="0 0 16 20" fill="none" xmlns="http://www.w3.org/2000/svg">
<g id="Group 25552">
<g id="box" clip-path="url(#clip0)">
<path id="Path 11286" fill-rule="evenodd" clip-rule="evenodd" d="M15.1608 13.0258C14.4847 12.5419 13.5722 12.6259 12.9908 13.2255C12.9722 13.2448 12.9553 13.2657 12.9406 13.2881L12.0122 14.6967C11.7523 14.0719 11.1484 13.6331 10.4468 13.6331L3.7677 13.6285H3.76741C3.66615 13.6285 3.56822 13.6655 3.49141 13.7327L1.81825 15.1986H0.597096C0.597096 14.9606 0.830821 15.1986 0.597096 15.1986C0.459554 17.833 0.736879 17.2783 0.329346 18.1455C0.346254 18.1437 0.597096 18.7342 0.597096 18.4962H2.00031L3.2679 19.8645C3.34792 19.9509 3.4593 19.9997 3.57571 19.9997C3.57766 19.9997 3.57969 19.9997 3.58164 19.9997L12.3208 19.8749C12.4572 19.8729 12.5843 19.8042 12.6622 19.6902L15.4389 15.6298C15.4406 15.6273 15.4424 15.6247 15.444 15.6221C15.7129 15.2103 15.8505 14.7381 15.8315 14.2923C15.8093 13.7692 15.571 13.3194 15.1608 13.0258ZM14.7415 15.1414L12.0918 19.0162L3.75588 19.1352L2.49071 17.7695C2.41076 17.6832 2.29939 17.6343 2.18289 17.6343H0.597115V16.0605H1.97523C2.07654 16.0605 2.17447 16.0235 2.25123 15.9563L3.92431 14.4905L10.4466 14.4949C10.9183 14.4949 11.3021 14.8929 11.3021 15.3822C11.3021 15.8714 10.9183 16.2694 10.4466 16.2694C10.4455 16.2694 10.4444 16.2694 10.4433 16.2694H6.79379C6.67767 16.2694 6.56662 16.318 6.48669 16.4039L5.59642 17.3601C5.43561 17.5328 5.44276 17.8056 5.61237 17.9693C5.69422 18.0483 5.79891 18.0875 5.90343 18.0875C6.01553 18.0875 6.12742 18.0425 6.21062 17.9531L6.97572 17.1313L11.201 17.1315H11.2011C11.3421 17.1315 11.4739 17.06 11.5525 16.9407L13.619 13.8056C13.9094 13.5299 14.3474 13.4971 14.6741 13.731C15.1152 14.0466 15.042 14.6786 14.7415 15.1414L14.7415 15.1414Z" fill="black"/>
<path id="Path 11287" fill-rule="evenodd" clip-rule="evenodd" d="M14.4311 0H2.38839C1.61517 0 0.986084 0.629083 0.986084 1.40231V10.2753C0.986084 11.0485 1.61517 11.6776 2.38839 11.6776H14.4311C15.2043 11.6776 15.8334 11.0485 15.8334 10.2753V1.40231C15.8334 0.629075 15.2043 0 14.4311 0ZM10.0888 0.861876V6.0013L8.57942 5.35473C8.52525 5.33154 8.46746 5.31991 8.40972 5.31991C8.35198 5.31991 8.29419 5.3315 8.24003 5.35473L6.73062 6.0013V0.861876H10.0888ZM14.9715 10.2753C14.9715 10.5733 14.729 10.8157 14.4311 10.8157H2.38838C2.09039 10.8157 1.84794 10.5733 1.84794 10.2753V1.40231C1.84794 1.10432 2.09039 0.861867 2.38838 0.861867H5.86878V6.65472C5.86878 6.79955 5.94151 6.93474 6.06244 7.01446C6.18336 7.09417 6.33621 7.10784 6.46936 7.05082L8.4097 6.21964L10.35 7.05082C10.4045 7.07414 10.4622 7.08564 10.5196 7.08564C10.6028 7.08564 10.6855 7.0616 10.757 7.01445C10.8779 6.93468 10.9506 6.79954 10.9506 6.65471V0.861859H14.431C14.729 0.861859 14.9715 1.1043 14.9715 1.4023V10.2753L14.9715 10.2753Z" fill="black"/>
<path id="Path 11288" d="M13.1174 8.05322H9.99344C9.70789 8.05322 9.47632 8.28473 9.47632 8.57034C9.47632 8.85592 9.70789 9.08746 9.99344 9.08746H13.1174C13.403 9.08746 13.6345 8.85592 13.6345 8.57034C13.6345 8.28479 13.403 8.05322 13.1174 8.05322Z" fill="black"/>
</g>
<rect id="Rectangle 189" x="0.208333" y="13.5418" width="0.416667" height="6.25" rx="0.208333" fill="white" stroke="black" stroke-width="0.416667" stroke-linecap="round"/>
</g>
<defs>
<clipPath id="clip0">
<rect width="15.504" height="19.9998" fill="white" transform="translate(0.329346)"/>
</clipPath>
</defs>
</svg>
