<svg id="Icon_BOPS_Outline" data-name="Icon BOPS Outline" xmlns="http://www.w3.org/2000/svg" width="24" height="24" viewBox="0 0 24 24">
  <g id="Canvas">
    <rect id="Brand_Icon_Asset_Canvas" data-name="Brand/Icon/Asset/Canvas" width="24" height="24" fill="rgba(0,0,0,0)"/>
  </g>
  <path id="Icon" d="M-6015.33,20.373a20.781,20.781,0,0,1-2.25.94,11.352,11.352,0,0,1-5.33.551,7.893,7.893,0,0,1-6.8-5.36,8,8,0,0,1,.76-6.1,10.671,10.671,0,0,1,3.351-3.51V7a10.339,10.339,0,0,0-2.229,2.16,9.587,9.587,0,0,0-1.76,4.05,1.437,1.437,0,0,0-.05.46,5.585,5.585,0,0,0,.769,2.869,6.721,6.721,0,0,0,5.521,3.231,9.182,9.182,0,0,0,4.92-1c.389-.219.74-.421,1-.59l.521-.369-1.55-.531,7.54-2.379-4.06,7.1Zm-12.39-5.74,2.12-7.26.26-.929,1.181-4.11,2.6.755.006-.02c.127-.413.189-.6.3-.873A3.712,3.712,0,0,1-6016.9.127a3.711,3.711,0,0,1,2.726,3.971v.008a6.135,6.135,0,0,1-.217,1.058l2.552.74-2.87,9.879-4.3,1.38Zm3.343-7.92-.263.941-1.839,6.3,7.455,2.166,3.5-1.123,2.443-8.408-10.4-3.013Zm3.947-4.15c-.1.25-.18.51-.261.77l1.812.53,3.622,1.05a5.071,5.071,0,0,0,.188-.91A2.81,2.81,0,0,0-6017.135,1a2.805,2.805,0,0,0-.73-.1A2.811,2.811,0,0,0-6020.43,2.564Zm.25,9.05-2.409.87,1.44-2.12-1.571-2,2.461.72,1.429-2.12.08,2.561,2.461.71-2.411.87.08,2.509Z" transform="translate(6032 1)"/>
</svg>
