<svg id="Icon_Credit_Card_Outline" data-name="Icon Credit Card Outline" xmlns="http://www.w3.org/2000/svg" width="24" height="24" viewBox="0 0 24 24">
  <g id="Canvas">
    <rect id="Brand_Icon_Asset_Canvas" data-name="Brand/Icon/Asset/Canvas" width="24" height="24" fill="rgba(0,0,0,0)"/>
  </g>
  <path id="Icon" d="M-6028.9,16a1.1,1.1,0,0,1-1.1-1.1V1.1a1.1,1.1,0,0,1,1.1-1.1h19.8a1.1,1.1,0,0,1,1.1,1.1V14.9a1.1,1.1,0,0,1-1.1,1.1Zm19.8-1a.09.09,0,0,0,.074-.026A.091.091,0,0,0-6009,14.9V13h-20v1.9a.089.089,0,0,0,.025.074.091.091,0,0,0,.074.026Zm-19.875-13.974A.089.089,0,0,0-6029,1.1V12h20V1.1a.091.091,0,0,0-.026-.074A.09.09,0,0,0-6009.1,1h-19.811A.09.09,0,0,0-6028.974,1.026ZM-6019,8.1l-2.461,1.89.94-3.049L-6023,5.05h3.06l.949-3.049.941,3.049H-6015l-2.47,1.89.94,3.06Z" transform="translate(6031 4)"/>
</svg>
