<svg id="Icon_Accessibility_3" data-name="Icon Accessibility 3" xmlns="http://www.w3.org/2000/svg" width="24" height="24" viewBox="0 0 24 24">
  <g id="Canvas">
    <rect id="Brand_Icon_Asset_Canvas" data-name="Brand/Icon/Asset/Canvas" width="24" height="24" fill="rgba(0,0,0,0)"/>
  </g>
  <path id="Icon" d="M19.47,18.84a.49.49,0,0,0-.63-.31,13.32,13.32,0,0,1-1.61.43c-.12-.35-.28-1.07-.4-1.62C16.31,15,15.94,13.5,15,13.5c-.75,0-4.52.71-7.58,1.31a.53.53,0,0,1-.37-.1.49.49,0,0,1-.19-.35l-.59-3.51,5.35-1.37a.49.49,0,0,0,.36-.6.48.48,0,0,0-.6-.36L6.11,9.86l-.85-5a2.5,2.5,0,1,0-1,.19l.85,5.11A6.13,6.13,0,0,0,.5,16a6,6,0,0,0,5.91,6,6.14,6.14,0,0,0,6.09-6V14.87c1.26-.22,2.1-.35,2.43-.37a11.54,11.54,0,0,1,.92,3.06c.39,1.77.54,2.43,1.22,2.43h0a11.31,11.31,0,0,0,2.08-.52A.5.5,0,0,0,19.47,18.84ZM2.8,2.5A1.5,1.5,0,1,1,4.3,4,1.5,1.5,0,0,1,2.8,2.5ZM11.5,16a5.14,5.14,0,0,1-5.09,5A5,5,0,0,1,1.5,16a5.12,5.12,0,0,1,3.8-4.9l.57,3.39a1.49,1.49,0,0,0,.57,1,1.54,1.54,0,0,0,1.2.28c1.48-.29,2.78-.53,3.86-.73Z" transform="translate(2.5 0.95)"/>
</svg>
