<svg id="Icon_Search_History" data-name="Icon Search History" xmlns="http://www.w3.org/2000/svg" width="24" height="24" viewBox="0 0 24 24">
  <g id="Canvas">
    <rect id="Brand_Icon_Asset_Canvas" data-name="Brand/Icon/Asset/Canvas" width="24" height="24" fill="rgba(0,0,0,0)"/>
  </g>
  <path id="Icon" d="M10.5,21.5A.5.5,0,0,1,11,21,10,10,0,1,0,3.131,17.24l.12-1.33a.5.5,0,0,1,.289-.41.5.5,0,0,1,.5.045A.5.5,0,0,1,4.251,16L4,19l-2.96-.28a.5.5,0,0,1,.08-1l1.259.1A10.88,10.88,0,0,1,0,11,11,11,0,1,1,11,22,.5.5,0,0,1,10.5,21.5Zm5.709-6.63-5.44-3.14a.511.511,0,0,1-.269-.449V3.5a.5.5,0,1,1,1,0V11l5.209,3a.488.488,0,0,1,.18.68.51.51,0,0,1-.68.191Z" transform="translate(1 1)"/>
</svg>
