<svg width="18" height="18" viewBox="0 0 18 18" fill="none" xmlns="http://www.w3.org/2000/svg">
<path d="M0.752031 18H17.2479C17.6633 18 18 17.6696 18 17.2621V0.737929C18 0.330409 17.6633 0 17.2479 0H11.885H6.11534H0.752031C0.336748 0 0 0.330409 0 0.737929V17.2621C-9.0551e-08 17.6696 0.336748 18 0.752031 18ZM11.133 1V7L9.5429 5.227C9.40119 5.08216 9.2051 5 9.00016 5C8.79529 5 8.5992 5.08216 8.45743 5.227L6.86738 7V1H11.133ZM1.00412 1H6L5.99588 7.85391C5.99588 8.15509 6.05469 8.53848 6.46737 8.53848C6.46737 8.53848 6.44513 8.58208 6.65808 8.36479L9.00016 5.96847L11.3423 8.36479C11.4869 8.5125 11.7992 8.5 12 8.5C12 8.5 12 8.15509 12 7.85391L12.0041 1H17V17H1.00412V1Z" fill="black"/>
</svg>
