<svg id="Icon_Close_Large" data-name="Icon Close Large" xmlns="http://www.w3.org/2000/svg" width="24" height="24" viewBox="0 0 24 24">
  <g id="Canvas">
    <rect id="Brand_Icon_Asset_Canvas" data-name="Brand/Icon/Asset/Canvas" width="24" height="24" fill="rgba(0,0,0,0)"/>
  </g>
  <path id="Icon" d="M8.75,8,15.84.91a.53.53,0,0,0-.75-.75L8,7.25.91.16A.53.53,0,0,0,.16.91L7.25,8,.16,15.09a.53.53,0,0,0,0,.75A.5.5,0,0,0,.53,16a.51.51,0,0,0,.38-.16L8,8.75l7.09,7.09a.51.51,0,0,0,.38.16.5.5,0,0,0,.37-.16.53.53,0,0,0,0-.75Z" transform="translate(3.995 3.995)"/>
</svg>
