<svg id="Icon_Flip_Camera_Fill" data-name="Icon Flip Camera Fill" xmlns="http://www.w3.org/2000/svg" width="24" height="24" viewBox="0 0 24 24">
  <g id="Canvas">
    <rect id="Brand_Icon_Asset_Canvas" data-name="Brand/Icon/Asset/Canvas" width="24" height="24" fill="rgba(0,0,0,0)"/>
  </g>
  <path id="Icon" d="M20.05,2h-4.3l-1-1.3a1.92,1.92,0,0,0-1.5-.7H8.76A2,2,0,0,0,7.25.7L6.26,2H2A2,2,0,0,0,0,4V16.05A2,2,0,0,0,2,18H20.05A2,2,0,0,0,22,16.05V4A2,2,0,0,0,20.05,2ZM4.54,9.48a.5.5,0,0,1,.67-.74l.57.51a5.22,5.22,0,0,1,8.69-3.67.51.51,0,0,1,0,.71.5.5,0,0,1-.71,0,4.21,4.21,0,0,0-7,2.92l.55-.62a.51.51,0,0,1,.71,0,.5.5,0,0,1,0,.71L6.4,11.16Zm13,.74a.49.49,0,0,1-.7,0l-.57-.51a5.22,5.22,0,0,1-8.69,3.67.51.51,0,0,1,0-.71.5.5,0,0,1,.71,0,4.21,4.21,0,0,0,7-2.92l-.55.62a.54.54,0,0,1-.37.16A.5.5,0,0,1,14,9.69l1.67-1.85,1.86,1.68a.49.49,0,0,1-.04.7Z" transform="translate(1 3)"/>
</svg>
