<svg xmlns="http://www.w3.org/2000/svg" width="20" height="20" fill="none">
  <defs>
    <mask id="a">
      <path d="M17 4.885c0-.808-.627-1.462-1.4-1.462h-1.944c-.259-.3-.592-.53-.975-.646a.986.986 0 0 1-.663-.692C11.766 1.17 10.958.5 10 .5c-.958 0-1.766.67-2.018 1.585a.987.987 0 0 1-.665.693 2.085 2.085 0 0 0-.974.645H4.4c-.773 0-1.4.654-1.4 1.462v13.153c0 .808.627 1.462 1.4 1.462h11.2c.773 0 1.4-.654 1.4-1.462V4.885z" fill="#fff"/>
      <path d="M10.032 8.172H5.968c-.259 0-.468.224-.468.5s.21.5.468.5h4.064c.259 0 .468-.224.468-.5s-.21-.5-.468-.5zm3.5 3H5.968c-.259 0-.468.224-.468.5s.21.5.468.5h7.564c.259 0 .468-.224.468-.5s-.21-.5-.468-.5zm.5 3H5.968c-.259 0-.468.224-.468.5s.21.5.468.5h8.064c.259 0 .468-.224.468-.5s-.21-.5-.468-.5z" style="stroke:none;fill:#000"/>
      <circle cx="10.01" cy="2.661" r=".54" stroke="none" fill="black"/>
    </mask>
  </defs>
  <path fill="#000" mask="url(#a)" d="M0 0h20v20H0z"/>
</svg>
