<svg xmlns="http://www.w3.org/2000/svg" width="22.032" height="22" viewBox="0 0 22.032 22">
  <g id="Group_1401" data-name="Group 1401" transform="translate(-315 -164)">
    <rect id="Rectangle_318" data-name="Rectangle 318" width="22" height="22" transform="translate(315 164)" fill="rgba(255,255,255,0)"/>
    <path id="Path_2119" data-name="Path 2119" d="M100.647,3H88.373A.374.374,0,0,1,88,2.629V1.653A1.646,1.646,0,0,1,89.639,0H99.38a1.646,1.646,0,0,1,1.639,1.653v.976a.374.374,0,0,1-.372.371Z" transform="translate(232.507 165.97)" fill="none" stroke="#fff" stroke-width="1"/>
    <path id="Path_2120" data-name="Path 2120" d="M17.022,112H2.007A2.011,2.011,0,0,0,0,114.01v7a2.011,2.011,0,0,0,2.007,2.01H3.271v-2.978a2.681,2.681,0,0,1,2.676-2.68h7.136a2.681,2.681,0,0,1,2.676,2.68v2.978h1.264a2.011,2.011,0,0,0,2.007-2.01v-7A2.011,2.011,0,0,0,17.022,112ZM3.569,116.466a.893.893,0,1,1,0-1.786h0a.893.893,0,1,1,0,1.786Z" transform="translate(317.502 58.977)" fill="none" stroke="#fff" stroke-width="1"/>
    <path id="Path_2121" data-name="Path 2121" d="M144.111,304H137.9a.9.9,0,0,0-.9.9v4.206a.9.9,0,0,0,.9.9h6.209a.9.9,0,0,0,.9-.9V304.9a.9.9,0,0,0-.9-.9Z" transform="translate(186.01 -125.511)" fill="none" stroke="#fff" stroke-width="1"/>
  </g>
</svg>
