<svg xmlns="http://www.w3.org/2000/svg" width="22" height="12.003" viewBox="0 0 22 12.003">
  <path id="Path_340" data-name="Path 340" d="M21.977-248.167A1.878,1.878,0,0,1,20.068-250a1.878,1.878,0,0,1,1.909-1.833A1.878,1.878,0,0,1,23.886-250a1.878,1.878,0,0,1-1.909,1.833Zm5.393-3.667a5.708,5.708,0,0,0-5.393-3.667A5.622,5.622,0,0,0,16.25-250a5.622,5.622,0,0,0,5.727,5.5,5.708,5.708,0,0,0,5.393-3.667h4.152v3.667H35.34v-3.667h1.91v-3.667Z" transform="translate(-15.75 256.002)" fill="none" stroke="#000" stroke-width="1"/>
</svg>
