<svg id="Icon_Wedding_Registry_Fill" data-name="Icon Wedding Registry Fill" xmlns="http://www.w3.org/2000/svg" width="24" height="24" viewBox="0 0 24 24">
  <g id="Canvas">
    <rect id="Brand_Icon_Asset_Canvas" data-name="Brand/Icon/Asset/Canvas" width="24" height="24" fill="rgba(0,0,0,0)"/>
  </g>
  <path id="Icon" d="M-6030,22V18a1,1,0,0,1,1-1h20a1,1,0,0,1,1,1v4Zm3-6V13.29A1.29,1.29,0,0,1-6025.71,12h13.42A1.29,1.29,0,0,1-6011,13.29V16Zm3-5V8.5a1.5,1.5,0,0,1,1.5-1.5h7a1.5,1.5,0,0,1,1.5,1.5V11Zm5-6.421-1.84,1.41.7-2.279L-6022,2.29h2.3L-6019,0l.709,2.29h2.29l-1.85,1.41.71,2.3Z" transform="translate(6031 1)"/>
</svg>
