<svg width="23" height="20" viewBox="0 0 23 20" fill="none" xmlns="http://www.w3.org/2000/svg">
<path d="M19.506 4.75941H17.3104V0.506141C17.3105 0.439669 17.2974 0.373845 17.272 0.312429C17.2465 0.251013 17.2092 0.19521 17.1622 0.148207C17.1152 0.101204 17.0594 0.0639223 16.998 0.0384925C16.9366 0.0130626 16.8708 -1.72724e-05 16.8043 1.71181e-08H5.67759C5.61112 -1.72724e-05 5.5453 0.0130626 5.48388 0.0384925C5.42247 0.0639223 5.36666 0.101204 5.31966 0.148207C5.27266 0.19521 5.23537 0.251013 5.20995 0.312429C5.18451 0.373845 5.17144 0.439669 5.17145 0.506141V4.75941H2.89184C2.11937 4.76611 1.3811 5.07893 0.838979 5.62925C0.296858 6.17957 -0.00484365 6.92245 5.88253e-05 7.69493V14.0281C4.15358e-05 14.0946 0.0131215 14.1604 0.0385513 14.2218C0.0639812 14.2833 0.101263 14.3391 0.148266 14.3861C0.195269 14.4331 0.251072 14.4703 0.312488 14.4958C0.373904 14.5212 0.439728 14.5343 0.5062 14.5343H3.51367V19.4939C3.51365 19.5603 3.52673 19.6262 3.55216 19.6876C3.57759 19.749 3.61487 19.8048 3.66187 19.8518C3.70888 19.8988 3.76468 19.9361 3.8261 19.9615C3.88751 19.9869 3.95334 20 4.01981 20H17.9441C18.0106 20 18.0764 19.9869 18.1378 19.9615C18.1992 19.9361 18.255 19.8988 18.302 19.8518C18.349 19.8048 18.3863 19.749 18.4118 19.6876C18.4372 19.6262 18.4503 19.5603 18.4503 19.4939V14.5343H21.9352C22.0017 14.5343 22.0675 14.5212 22.1289 14.4958C22.1903 14.4703 22.2461 14.4331 22.2931 14.3861C22.3401 14.3391 22.3774 14.2833 22.4028 14.2218C22.4283 14.1604 22.4413 14.0946 22.4413 14.0281V7.69493C22.4405 6.91668 22.131 6.17053 21.5807 5.6202C21.0304 5.06987 20.2843 4.7603 19.506 4.75941ZM6.18374 1.01228H16.2982V4.75941H6.18374V1.01228ZM17.438 18.9877H4.52595V11.0204H17.438V18.9877ZM21.429 13.522H18.4503V10.5143C18.4503 10.4478 18.4372 10.382 18.4118 10.3206C18.3863 10.2591 18.349 10.2033 18.302 10.1563C18.255 10.1093 18.1992 10.0721 18.1378 10.0466C18.0764 10.0212 18.0106 10.0081 17.9441 10.0081H4.01981C3.95334 10.0081 3.88751 10.0212 3.8261 10.0466C3.76468 10.0721 3.70888 10.1093 3.66187 10.1563C3.61487 10.2033 3.57759 10.2591 3.55216 10.3206C3.52673 10.382 3.51365 10.4478 3.51367 10.5143V13.522H1.01234V7.69493C1.00723 7.19086 1.20222 6.70534 1.55454 6.34481C1.90687 5.98428 2.38778 5.77818 2.89184 5.77169H19.506C20.0159 5.77236 20.5047 5.9752 20.8652 6.33574C21.2257 6.69628 21.4284 7.18508 21.429 7.69493V13.522Z" fill="black"/>
</svg>
