<svg width="20" height="16" viewBox="0 0 20 16" fill="none" xmlns="http://www.w3.org/2000/svg">
<path d="M19.8431 5.24113L14.759 0.156739C14.6051 0.00374216 14.3744 -0.0416618 14.1736 0.0401085C13.9729 0.123385 13.8423 0.318989 13.8423 0.536541V2.88507H10.0001C9.70404 2.88507 9.46346 3.12543 9.46346 3.42174C9.46346 3.71805 9.70382 3.95863 10.0001 3.95863H14.3794C14.6757 3.95863 14.9163 3.71805 14.9163 3.42174V1.83239L18.7042 5.62072L14.9163 9.40841V7.81883C14.9163 7.52252 14.6757 7.28195 14.3794 7.28195H6.15736V4.93277C6.15736 4.71543 6.02653 4.51983 5.82597 4.43655C5.62521 4.35414 5.39474 4.39954 5.24089 4.55319L0.157354 9.63693C-0.0524514 9.84652 -0.0524514 10.1863 0.157354 10.3959L5.2411 15.4803C5.34374 15.5829 5.48125 15.6374 5.62047 15.6374C5.68976 15.6374 5.7597 15.624 5.82619 15.5967C6.02674 15.5136 6.15757 15.318 6.15757 15.1005V12.7517H10.0003C10.2969 12.7517 10.5372 12.5109 10.5372 12.2149C10.5372 11.9183 10.2969 11.678 10.0003 11.678H5.61983C5.32352 11.678 5.08294 11.9183 5.08294 12.2149C5.08294 12.2176 5.08294 12.2204 5.08294 12.223C5.08316 12.2876 5.08359 13.0709 5.08359 13.8051L1.2959 10.0165L5.0838 6.22883C5.0838 6.95078 5.08337 7.72114 5.08316 7.807C5.08251 7.8453 5.08574 7.88382 5.09327 7.92234C5.14298 8.17389 5.36354 8.35572 5.62004 8.35572H13.8425V10.704C13.8425 10.9218 13.9731 11.1174 14.1739 11.2005C14.3738 11.2822 14.6053 11.2375 14.7592 11.0838L19.8433 6.00009C19.9441 5.8996 20 5.76317 20 5.6205C20 5.47784 19.9438 5.34162 19.8431 5.24113Z" fill="black"/>
</svg>
