<svg xmlns="http://www.w3.org/2000/svg" width="22.008" height="20">
  <defs>
    <mask id="a">
      <path data-name="Path 2032" d="M20.8 1.108 20.897 0H1.112v15.506a1.1 1.1 0 0 0 1.1 1.108h17.586a1.1 1 0 0 0 1.1-1.1z" fill="#fff"/>
      <path data-name="Path 2033" d="M21.454 1.108H.554A.554.554 0 0 1 .554 0h20.9a.554.554 0 1 1 0 1.108z" fill="#fff"/>
      <path data-name="Path 2034" d="M11.004 19.447a.554.554 0 0 1-.554-.554v-2.215a.554.554 0 0 1 1.108 0v2.215a.554.554 0 0 1-.554.554z" fill="#fff"/>
      <path data-name="Path 2035" d="M13.219 20h-4.43a.554.554 0 1 1 0-1.108h4.43a.554.554 0 0 1 0 1.108z" fill="#fff"/>
      <path data-name="Path 2036" d="M8.184 3.609a.714.714 0 0 0-.714.714v7.526a.714.714 0 0 0 .714.714.692.692 0 0 0 .354-.094l3.361-1.894 3.323-1.866a.714.714 0 0 0 0-1.246L11.9 5.591 8.517 3.703a.692.692 0 0 0-.333-.094z"/>
    </mask>
  </defs>
  <path mask="url(#a)" d="M0 0h22.008v20H0z"/>
</svg>
