<svg id="Icon_Bag_Star_Large" data-name="Icon Bag Star Large" xmlns="http://www.w3.org/2000/svg" width="24" height="24" viewBox="0 0 24 24">
  <g id="Canvas">
    <rect id="Brand_Icon_Asset_Canvas" data-name="Brand/Icon/Asset/Canvas" width="24" height="24" fill="rgba(0,0,0,0)"/>
  </g>
  <g id="Icon" transform="translate(0 -2)">
    <path id="bag" d="M20.75,8h-18V25.25h18Zm-4.5-.75a4.5,4.5,0,0,0-9,0Zm-9.75,0a5.25,5.25,0,0,1,10.5,0h3.75A.75.75,0,0,1,21.5,8V25.25a.75.75,0,0,1-.75.75h-18A.75.75,0,0,1,2,25.25V8a.75.75,0,0,1,.75-.75Z"/>
    <path id="star" d="M16.5,24,13.25,21.51l-3.225,2.475,1.23-4L8,17.5h4.02l1.238-4,1.238,4H18.5L15.26,19.98Z" transform="translate(-1.5 -2.875)" fill="#e01a2b" fill-rule="evenodd"/>
  </g>
</svg>
