<svg id="Icon_Camera_Outline" data-name="Icon Camera Outline" xmlns="http://www.w3.org/2000/svg" width="24" height="24" viewBox="0 0 24 24">
  <g id="Canvas">
    <rect id="Brand_Icon_Asset_Canvas" data-name="Brand/Icon/Asset/Canvas" width="24" height="24" fill="rgba(0,0,0,0)"/>
  </g>
  <path id="Icon" d="M-6028,18a2,2,0,0,1-2-1.949V4a2,2,0,0,1,2-2h4.259l.991-1.3a2,2,0,0,1,1.509-.7h4.491a1.924,1.924,0,0,1,1.5.7l1,1.3h4.3A2,2,0,0,1-6008,4V16.05A2,2,0,0,1-6009.95,18Zm-1-14V16.05a1,1,0,0,0,1,.95h18.05a1,1,0,0,0,.95-.95V4a1,1,0,0,0-.94-1h-4.8l-.3-.389-1-1.3a.929.929,0,0,0-.71-.31h-4.491a1,1,0,0,0-.76.34l-.9,1.259-.3.4h-4.8A1,1,0,0,0-6029,4Zm5,6a5,5,0,0,1,5-5,5,5,0,0,1,5,5,5,5,0,0,1-5,5A5,5,0,0,1-6024,10Zm1,0a4,4,0,0,0,4,4,4,4,0,0,0,4-4,4,4,0,0,0-4-4A4,4,0,0,0-6023,10Zm11.5-5V4h1V5Z" transform="translate(6031 3)"/>
</svg>
