<svg id="Icon_Settings_Fill" data-name="Icon Settings Fill" xmlns="http://www.w3.org/2000/svg" width="24" height="24" viewBox="0 0 24 24">
  <g id="Canvas">
    <rect id="Brand_Icon_Asset_Canvas" data-name="Brand/Icon/Asset/Canvas" width="24" height="24" fill="rgba(0,0,0,0)"/>
  </g>
  <path id="Icon" d="M-6020.623,22.012h0a.769.769,0,0,1-.756-.63l-.44-2.19a7.332,7.332,0,0,1-1-.43L-6024.68,20a.839.839,0,0,1-.44.13.8.8,0,0,1-.56-.23l-2.22-2.22a.806.806,0,0,1-.1-1l1.25-1.94a7.355,7.355,0,0,1-.43-1l-2.19-.44a.768.768,0,0,1-.631-.77V9.392a.768.768,0,0,1,.631-.77l2.19-.439a7.258,7.258,0,0,1,.43-1l-1.241-1.851a.807.807,0,0,1,.1-1l2.22-2.229a.779.779,0,0,1,.554-.23h.006a.834.834,0,0,1,.43.13l1.9,1.25a7.227,7.227,0,0,1,1-.43l.44-2.19a.769.769,0,0,1,.757-.631h3.153l.051,0a.772.772,0,0,1,.758.633l.44,2.19a7.306,7.306,0,0,1,1,.43l1.861-1.241a.811.811,0,0,1,.43-.129h.005a.8.8,0,0,1,.555.229l2.229,2.211a.8.8,0,0,1,.1,1l-1.25,1.9a7.645,7.645,0,0,1,.431,1l2.19.44a.766.766,0,0,1,.629.769v3.181a.77.77,0,0,1-.629.77l-2.19.439a7.583,7.583,0,0,1-.431,1l1.241,1.86a.805.805,0,0,1-.1,1l-2.22,2.22a.8.8,0,0,1-.56.23h-.007a.742.742,0,0,1-.422-.13l-1.94-1.239a7.32,7.32,0,0,1-1,.43l-.44,2.19a.768.768,0,0,1-.756.63h-3.167ZM-6019,7.5a3.5,3.5,0,0,0-3.5,3.5,3.5,3.5,0,0,0,3.5,3.5,3.5,3.5,0,0,0,3.5-3.5A3.5,3.5,0,0,0-6019,7.5Z" transform="translate(6031 1)"/>
</svg>
