<svg id="Icon_Flip_Camera_Outline" data-name="Icon Flip Camera Outline" xmlns="http://www.w3.org/2000/svg" width="24" height="24" viewBox="0 0 24 24">
  <g id="Canvas">
    <rect id="Brand_Icon_Asset_Canvas" data-name="Brand/Icon/Asset/Canvas" width="24" height="24" fill="rgba(0,0,0,0)"/>
  </g>
  <path id="Icon" d="M-6028,18a2,2,0,0,1-2-1.949V4a2,2,0,0,1,2-2h4.259l.991-1.3a2,2,0,0,1,1.509-.7h4.491a1.924,1.924,0,0,1,1.5.7l1,1.3h4.3A2,2,0,0,1-6008,4V16.05A2,2,0,0,1-6009.95,18Zm-1-14V16.05a1,1,0,0,0,1,.95h18.05a1,1,0,0,0,.95-.95V4a1,1,0,0,0-.94-1h-4.8l-.3-.39-1-1.3a.929.929,0,0,0-.71-.31h-4.491a1,1,0,0,0-.76.34l-.9,1.259-.3.4h-4.8A1,1,0,0,0-6029,4Zm6.509,9.381a.513.513,0,0,1,0-.711.506.506,0,0,1,.355-.147.5.5,0,0,1,.355.147,4.208,4.208,0,0,0,4.416.739,4.207,4.207,0,0,0,2.583-3.658l-.549.62a.541.541,0,0,1-.371.159.5.5,0,0,1-.46-.3.5.5,0,0,1,.091-.542l1.669-1.849,1.86,1.68-.02-.041a.5.5,0,0,1,.014.687.5.5,0,0,1-.683.053l-.57-.51a5.221,5.221,0,0,1-3.184,4.584,5.213,5.213,0,0,1-2.031.412A5.22,5.22,0,0,1-6022.491,13.381Zm-2.969-3.9a.5.5,0,0,1-.014-.686.5.5,0,0,1,.684-.054l.569.51a5.22,5.22,0,0,1,3.186-4.582,5.218,5.218,0,0,1,5.505.913.514.514,0,0,1,.174.35.509.509,0,0,1-.124.371.5.5,0,0,1-.356.148.5.5,0,0,1-.354-.148,4.213,4.213,0,0,0-4.417-.739,4.212,4.212,0,0,0-2.583,3.659l.549-.62a.51.51,0,0,1,.711,0,.5.5,0,0,1,.147.356.5.5,0,0,1-.147.354l-1.67,1.851Z" transform="translate(6031 3)"/>
</svg>
