<svg id="Icon_Pictures_Fill" data-name="Icon Pictures Fill" xmlns="http://www.w3.org/2000/svg" width="24" height="24" viewBox="0 0 24 24">
  <g id="Canvas">
    <rect id="Brand_Icon_Asset_Canvas" data-name="Brand/Icon/Asset/Canvas" width="24" height="24" fill="rgba(0,0,0,0)"/>
  </g>
  <path id="Icon" d="M20,0H2A2,2,0,0,0,0,2V16a2,2,0,0,0,2,2H20a2,2,0,0,0,2-2V2A2,2,0,0,0,20,0ZM7.75,4a4.71,4.71,0,0,1,3.71,1.81h0a2.67,2.67,0,0,0-.61.45L8.82,8.35H8.75a3,3,0,0,0-3.86.21L3.2,10.1l-.07-.28A4.59,4.59,0,0,1,3,8.75,4.75,4.75,0,0,1,7.75,4Zm12.1,9.85a.5.5,0,0,1-.35.15.51.51,0,0,1-.36-.15L13.35,8.06a.5.5,0,0,0-.7,0L10,10.74a1.51,1.51,0,0,1-2,.13l-.75-.57a.51.51,0,0,0-.65,0L2.85,13.86a.5.5,0,1,1-.69-.73L5.92,9.61A1.5,1.5,0,0,1,7.85,9.5l.76.58a.49.49,0,0,0,.65-.05l2.68-2.68a1.51,1.51,0,0,1,2.12,0l5.79,5.79a.5.5,0,0,1,0,.71Z" transform="translate(1 3)"/>
</svg>
