<svg id="Icon_Bag_Star_Small" data-name="Icon Bag Star Small" xmlns="http://www.w3.org/2000/svg" width="24" height="24" viewBox="0 0 24 24">
  <g id="Canvas">
    <rect id="Brand_Icon_Asset_Canvas" data-name="Brand/Icon/Asset/Canvas" width="24" height="24" fill="rgba(0,0,0,0)"/>
  </g>
  <g id="Icon" transform="translate(0 1)">
    <path id="bag" d="M21,6H3V21H21ZM15.874,5A4,4,0,0,0,8.126,5ZM7.1,5a5,5,0,0,1,9.8,0H21a1,1,0,0,1,1,1V21a1,1,0,0,1-1,1H3a1,1,0,0,1-1-1V6A1,1,0,0,1,3,5Z"/>
    <path id="star" d="M14.47,17,12,15.1,9.54,16.99l.94-3.05L8,12.05h3.06L12.01,9l.94,3.05H16l-2.47,1.89Z" fill="#e01a2b" fill-rule="evenodd"/>
  </g>
</svg>
