<svg id="Icon_Tooltip_Outline" data-name="Icon Tooltip Outline" xmlns="http://www.w3.org/2000/svg" width="24" height="24" viewBox="0 0 24 24">
  <g id="Canvas">
    <rect id="Brand_Icon_Asset_Canvas" data-name="Brand/Icon/Asset/Canvas" width="24" height="24" fill="rgba(0,0,0,0)"/>
  </g>
  <path id="Icon" d="M-6030,7a7,7,0,0,1,7-7,7,7,0,0,1,7,7,7,7,0,0,1-7,7A7,7,0,0,1-6030,7Zm1,0a6,6,0,0,0,6,6,6,6,0,0,0,6-6,6,6,0,0,0-6-6A6,6,0,0,0-6029,7Zm4.75,4.339a.5.5,0,0,1-.5-.5.51.51,0,0,1,.5-.5h1V6.71h-1a.5.5,0,0,1-.5-.5.513.513,0,0,1,.5-.5h1.5a.5.5,0,0,1,.5.5v4.13h1a.5.5,0,0,1,.5.5.5.5,0,0,1-.5.5Zm.059-7.919a1,1,0,0,1,1-1,1,1,0,0,1,1,1,1,1,0,0,1-1,1A1,1,0,0,1-6024.19,3.42Z" transform="translate(6035 5)"/>
</svg>
