<svg width="14" height="12" viewBox="0 0 14 12" fill="none" xmlns="http://www.w3.org/2000/svg">
<path d="M1 2C1.55228 2 2 1.55228 2 1C2 0.447715 1.55228 0 1 0C0.447715 0 0 0.447715 0 1C0 1.55228 0.447715 2 1 2Z" fill="black"/>
<path d="M13 0H5C4.44772 0 4 0.447715 4 1C4 1.55228 4.44772 2 5 2H13C13.5523 2 14 1.55228 14 1C14 0.447715 13.5523 0 13 0Z" fill="black"/>
<path d="M1 7C1.55228 7 2 6.55228 2 6C2 5.44772 1.55228 5 1 5C0.447715 5 0 5.44772 0 6C0 6.55228 0.447715 7 1 7Z" fill="black"/>
<path d="M13 5H5C4.44772 5 4 5.44772 4 6C4 6.55228 4.44772 7 5 7H13C13.5523 7 14 6.55228 14 6C14 5.44772 13.5523 5 13 5Z" fill="black"/>
<path d="M1 12C1.55228 12 2 11.5523 2 11C2 10.4477 1.55228 10 1 10C0.447715 10 0 10.4477 0 11C0 11.5523 0.447715 12 1 12Z" fill="black"/>
<path d="M13 10H5C4.44772 10 4 10.4477 4 11C4 11.5523 4.44772 12 5 12H13C13.5523 12 14 11.5523 14 11C14 10.4477 13.5523 10 13 10Z" fill="black"/>
</svg>
