<svg id="Icon_People_Outline" data-name="Icon People Outline" xmlns="http://www.w3.org/2000/svg" width="24" height="24" viewBox="0 0 24 24">
  <g id="Canvas">
    <rect id="Brand_Icon_Asset_Canvas" data-name="Brand/Icon/Asset/Canvas" width="24" height="24" fill="rgba(0,0,0,0)"/>
  </g>
  <path id="Icon" d="M19.72,5.49A2,2,0,0,0,20.37,4,2.035,2.035,0,0,0,16.3,4,2,2,0,0,0,17,5.49a3.7,3.7,0,0,0-2.26,2.94A8.05,8.05,0,0,0,13,7.67a3.8,3.8,0,1,0-3.92,0,6,6,0,0,0-1.73.76,3.7,3.7,0,0,0-2.3-2.94A2,2,0,0,0,5.7,4,2.035,2.035,0,1,0,1.63,4a2,2,0,0,0,.65,1.49A3.7,3.7,0,0,0,0,8.89a.42.42,0,0,0,.41.41.42.42,0,0,0,.4-.41,2.86,2.86,0,0,1,5.71,0V9A7.17,7.17,0,0,0,3.8,14.59a.41.41,0,0,0,.82,0,6.38,6.38,0,1,1,12.76,0,.41.41,0,0,0,.82,0A7.12,7.12,0,0,0,15.48,9V8.92a2.86,2.86,0,0,1,5.71,0,.41.41,0,1,0,.81,0A3.7,3.7,0,0,0,19.72,5.49ZM2.44,4a1.22,1.22,0,1,1,.361.866A1.23,1.23,0,0,1,2.44,4ZM8,4.41a3,3,0,1,1,3,3A3,3,0,0,1,8,4.41ZM17.11,4a1.23,1.23,0,1,1,1.22,1.22A1.21,1.21,0,0,1,17.11,4Z" transform="translate(1 4.385)"/>
</svg>
