<svg xmlns="http://www.w3.org/2000/svg" width="15.004" height="12" viewBox="0 0 15.004 12">
  <path id="Union_4" data-name="Union 4" d="M12526.125-4800a1.185,1.185,0,0,1-1.125-1.234v-9.531a1.189,1.189,0,0,1,1.126-1.235h12.753a1.185,1.185,0,0,1,1.123,1.235v9.531a1.186,1.186,0,0,1-1.123,1.234Zm-.459-10.765v9.531a.483.483,0,0,0,.459.5h12.753a.482.482,0,0,0,.456-.5v-9.531a.482.482,0,0,0-.455-.5h-12.754a.484.484,0,0,0-.459.5Zm11.928,8.588v-7.636h.519v7.636Zm-1.212,0v-7.636h.516v7.636Zm-1.555,0v-7.636h.517v7.636Zm-1.315,0v-7.636h.52v7.636Zm-.8,0v-7.636h.517v7.636Zm-1.9,0v-7.636h.517v7.636Zm-1.017,0v-7.636h.517v7.636Zm-1.41,0v-7.636h.52v7.636Zm-1.429,0v-7.636h.517v7.636Z" transform="translate(-12524.998 4812)" fill="#333"/>
</svg>
