<svg id="Icon_Location_Outline" data-name="Icon Location Outline" xmlns="http://www.w3.org/2000/svg" width="24" height="24" viewBox="0 0 24 24">
  <g id="Canvas">
    <rect id="Brand_Icon_Asset_Canvas" data-name="Brand/Icon/Asset/Canvas" width="24" height="24" fill="rgba(0,0,0,0)"/>
  </g>
  <path id="Icon" d="M-6027.64,14.729a16.627,16.627,0,0,1-2.179-5.059A7.666,7.666,0,0,1-6030,8a8,8,0,0,1,8-8,8,8,0,0,1,8,8,7.659,7.659,0,0,1-.18,1.651,16.6,16.6,0,0,1-2.179,5.059A47.367,47.367,0,0,1-6022,22,47.329,47.329,0,0,1-6027.64,14.729ZM-6029,8a7,7,0,0,0,.15,1.441,15.147,15.147,0,0,0,2.06,4.74,45.105,45.105,0,0,0,4.79,6.339,44.924,44.924,0,0,0,4.79-6.32,15.15,15.15,0,0,0,2.061-4.74A7.26,7.26,0,0,0-6015,8a7,7,0,0,0-7-7A7,7,0,0,0-6029,8Zm3,0a4,4,0,0,1,4-4,4,4,0,0,1,4,4,4,4,0,0,1-4,4A4,4,0,0,1-6026,8Zm1,0a3,3,0,0,0,3,3,3,3,0,0,0,3-3,3,3,0,0,0-3-3A3,3,0,0,0-6025,8Z" transform="translate(6034 1)"/>
</svg>
