<svg id="Icon_Sales_Tag" data-name="Icon Sales Tag" xmlns="http://www.w3.org/2000/svg" width="24" height="24" viewBox="0 0 24 24">
  <g id="Canvas">
    <rect id="Brand_Icon_Asset_Canvas" data-name="Brand/Icon/Asset/Canvas" width="24" height="24" fill="rgba(0,0,0,0)"/>
  </g>
  <path id="Icon" d="M8.661,0a2,2,0,0,1,1.41.584h0L21.42,11.941a2,2,0,0,1,0,2.829h0l-6.656,6.655a2,2,0,0,1-2.829,0h0L.586,10.077A1.994,1.994,0,0,1,0,8.665H0V2A2,2,0,0,1,2,0H8.661Zm0,1H2A1,1,0,0,0,1,2H1V8.665a1,1,0,0,0,.292.7h0L12.641,20.718a1,1,0,0,0,1.415,0h0l6.656-6.655a1,1,0,0,0,0-1.415h0L9.364,1.291A.992.992,0,0,0,8.659,1ZM5.5,3A2.5,2.5,0,1,1,3,5.5,2.5,2.5,0,0,1,5.5,3Zm0,1A1.5,1.5,0,1,0,7,5.5,1.5,1.5,0,0,0,5.5,4Z" transform="translate(1 1)" fill-rule="evenodd"/>
</svg>
