<svg data-name="Icon Heart Outline" xmlns="http://www.w3.org/2000/svg" width="24" height="24">
  <defs>
    <mask id="a">
      <path data-name="Path" d="M17.022 3a5.482 5.482 0 0 1 2.52.62 6.87 6.87 0 0 1 2.88 8.73c-2 4.6-10.44 9.51-10.44 9.51s-8.45-4.91-10.4-9.51a6.87 6.87 0 0 1 2.88-8.73A5.482 5.482 0 0 1 7.022 3a5.85 5.85 0 0 1 5 3.07 5.85 5.85 0 0 1 5-3.07zM12.9 6.545l-.88 1.631-.88-1.631A4.843 4.843 0 0 0 7.017 4a4.456 4.456 0 0 0-2.059.488A5.873 5.873 0 0 0 2.5 11.96a6.49 6.49 0 0 0 .358.712 18.568 18.568 0 0 0 4.353 4.65 45.344 45.344 0 0 0 3.631 2.645c.41.27.792.513 1.137.726.348-.215.733-.46 1.147-.733a45.48 45.48 0 0 0 3.653-2.662 18.87 18.87 0 0 0 4.356-4.632 6.674 6.674 0 0 0 .368-.718 5.862 5.862 0 0 0-2.423-7.441A4.481 4.481 0 0 0 17.034 4 4.85 4.85 0 0 0 12.9 6.545z" fill="#fff"/>
    </mask>
  </defs>
  <path mask="url(#a)" d="M0 0h24v24H0z"/>
</svg>