<svg width="20" height="23" viewBox="0 0 20 23" fill="none" xmlns="http://www.w3.org/2000/svg">
<path d="M2.27157 10.3335H10.3952C10.5452 10.3335 10.6668 10.2123 10.6668 10.0629V3.27058C10.6668 3.12115 10.5452 3 10.3952 3H7.37523H5.29171H2.27157C2.12161 3 2 3.12115 2 3.27058V10.0629C2 10.2123 2.12161 10.3335 2.27157 10.3335ZM7.10366 3.54114V5.94018L6.52946 5.34357C6.47829 5.29046 6.40748 5.26033 6.33347 5.26033C6.25949 5.26033 6.18868 5.29046 6.13748 5.34357L5.56329 5.94018V3.54114H7.10366ZM2.54316 3.54114H5.02014V6.61317C5.02014 6.7236 5.0875 6.82296 5.19041 6.86418C5.29317 6.90526 5.4108 6.88017 5.4877 6.80049L6.33347 5.92183L7.17924 6.80049C7.23149 6.85466 7.30271 6.88373 7.37523 6.88373C7.40932 6.88373 7.44367 6.87738 7.47656 6.86418C7.57945 6.82296 7.64683 6.7236 7.64683 6.61317V3.54114H10.1237V9.79233H2.54316V3.54114Z" fill="black"/>
<path d="M2.27157 20.0005H10.3952C10.5452 20.0005 10.6668 19.8793 10.6668 19.7299V12.9376C10.6668 12.7881 10.5452 12.667 10.3952 12.667H7.37523H5.29171H2.27157C2.12161 12.667 2 12.7881 2 12.9376V19.7299C2 19.8793 2.12161 20.0005 2.27157 20.0005ZM7.10366 13.2081V15.6072L6.52946 15.0106C6.47829 14.9574 6.40748 14.9273 6.33347 14.9273C6.25949 14.9273 6.18868 14.9574 6.13748 15.0106L5.56329 15.6072V13.2081H7.10366ZM2.54316 13.2081H5.02014V16.2802C5.02014 16.3906 5.0875 16.49 5.19041 16.5312C5.29317 16.5723 5.4108 16.5472 5.4877 16.4675L6.33347 15.5888L7.17924 16.4675C7.23149 16.5216 7.30271 16.5507 7.37523 16.5507C7.40932 16.5507 7.44367 16.5444 7.47656 16.5312C7.57945 16.49 7.64683 16.3906 7.64683 16.2802V13.2081H10.1237V19.4593H2.54316V13.2081Z" fill="black"/>
<path d="M10.2716 20.0005H18.3952C18.5452 20.0005 18.6668 19.8793 18.6668 19.7299V12.9376C18.6668 12.7881 18.5452 12.667 18.3952 12.667H15.3752H13.2917H10.2716C10.1216 12.667 10 12.7881 10 12.9376V19.7299C10 19.8793 10.1216 20.0005 10.2716 20.0005ZM15.1037 13.2081V15.6072L14.5295 15.0106C14.4783 14.9574 14.4075 14.9273 14.3335 14.9273C14.2595 14.9273 14.1887 14.9574 14.1375 15.0106L13.5633 15.6072V13.2081H15.1037ZM10.5432 13.2081H13.0201V16.2802C13.0201 16.3906 13.0875 16.49 13.1904 16.5312C13.2932 16.5723 13.4108 16.5472 13.4877 16.4675L14.3335 15.5888L15.1792 16.4675C15.2315 16.5216 15.3027 16.5507 15.3752 16.5507C15.4093 16.5507 15.4437 16.5444 15.4766 16.5312C15.5794 16.49 15.6468 16.3906 15.6468 16.2802V13.2081H18.1237V19.4593H10.5432V13.2081Z" fill="black"/>
<path d="M0 20H20V21H0V20Z" fill="black"/>
<path d="M0 10H20V11H0V10Z" fill="black"/>
<rect x="0.25" y="0.25" width="0.5" height="22.5" stroke="black" stroke-width="0.5"/>
<rect x="10" y="21" width="1" height="2" fill="black"/>
<rect x="19" y="21" width="1" height="2" fill="black"/>
</svg>