<svg id="Icon_Error_Outline" data-name="Icon Error Outline" xmlns="http://www.w3.org/2000/svg" width="24" height="24" viewBox="0 0 24 24">
  <g id="Canvas">
    <rect id="Brand_Icon_Asset_Canvas" data-name="Brand/Icon/Asset/Canvas" width="24" height="24" fill="rgba(0,0,0,0)"/>
  </g>
  <path id="Icon" d="M-6030,10a10,10,0,0,1,10-10,10,10,0,0,1,7.072,2.928A10,10,0,0,1-6010,10a10,10,0,0,1-10,10A10,10,0,0,1-6030,10Zm.91,0a9.09,9.09,0,0,0,9.09,9.091A9.09,9.09,0,0,0-6010.909,10,9.09,9.09,0,0,0-6020,.91,9.09,9.09,0,0,0-6029.09,10Zm8.09,4.61a1,1,0,0,1,1-1,1,1,0,0,1,1,1,1,1,0,0,1-1,1A1,1,0,0,1-6021,14.61Zm.33-3.184V5.165a.664.664,0,0,1,.665-.664.664.664,0,0,1,.666.664v6.261a.665.665,0,0,1-.666.664A.665.665,0,0,1-6020.67,11.426Z" transform="translate(6032 2)"/>
</svg>
