<svg id="Icon_Directory" data-name="Icon Directory" xmlns="http://www.w3.org/2000/svg" width="24" height="24" viewBox="0 0 24 24">
  <g id="Canvas" transform="translate(0 0)">
    <rect id="Brand_Icon_Asset_Canvas" data-name="Brand/Icon/Asset/Canvas" width="24" height="24" fill="rgba(0,0,0,0)"/>
  </g>
  <g id="Icon" transform="translate(2.502 0)">
    <path id="Shape" d="M9,11.21l6.94,3.85L9,18.92,2.06,15.06,9,11.21Zm0-1.08a.421.421,0,0,0-.24.07l-8,4.42a.5.5,0,0,0,0,.88l8,4.43a.51.51,0,0,0,.48,0l8-4.43a.5.5,0,0,0,0-.88l-8-4.42A.421.421,0,0,0,9,10.13Z"/>
    <path id="Path" d="M16.97,19.07,9,23.5,1.03,19.07" fill="none" stroke="#000" stroke-linecap="round" stroke-linejoin="round" stroke-width="1" fill-rule="evenodd"/>
    <path id="Union_7" data-name="Union 7" d="M-7019.963-556.64a25.251,25.251,0,0,1-3.059-3.951,9.989,9.989,0,0,1-1.35-3.159,5.849,5.849,0,0,1-.131-1.25,6,6,0,0,1,6-6,6,6,0,0,1,6,6,5.782,5.782,0,0,1-.13,1.239,9.991,9.991,0,0,1-1.349,3.17,25.263,25.263,0,0,1-3.061,3.951l-1.46,1.58ZM-7022.5-565a3.8,3.8,0,0,0,.09.82,8.292,8.292,0,0,0,1.09,2.54A24.406,24.406,0,0,0-7018.5-558a24.459,24.459,0,0,0,2.819-3.63,8.247,8.247,0,0,0,1.091-2.54,3.841,3.841,0,0,0,.09-.829,4,4,0,0,0-4-4A4,4,0,0,0-7022.5-565Zm1.61,3.089a7.294,7.294,0,0,1-1-2.369A3.521,3.521,0,0,1-7022-565a3.5,3.5,0,0,1,3.5-3.5,3.5,3.5,0,0,1,3.5,3.5,3.631,3.631,0,0,1-.079.73,7.267,7.267,0,0,1-1,2.369,21.9,21.9,0,0,1-2.419,3.161A21.689,21.689,0,0,1-7020.892-561.911Z" transform="translate(7027.502 571)" fill="#fff"/>
    <path id="Union_8" data-name="Union 8" d="M-7023.322-563.64a8.232,8.232,0,0,1-1.089-2.53,3.663,3.663,0,0,1-.09-.83,4,4,0,0,1,4-4,4,4,0,0,1,4,4,3.748,3.748,0,0,1-.09.82,8.247,8.247,0,0,1-1.091,2.54A24.47,24.47,0,0,1-7020.5-560,24.516,24.516,0,0,1-7023.322-563.64Zm-.18-3.36a2.814,2.814,0,0,0-.07.629,7.126,7.126,0,0,0,1,2.211,21.39,21.39,0,0,0,2,2.671,21.45,21.45,0,0,0,2-2.671,7.168,7.168,0,0,0,1-2.211,2.73,2.73,0,0,0,.069-.629,3,3,0,0,0-3-3A3,3,0,0,0-7023.5-567Zm1,0a2,2,0,0,1,2-2,2,2,0,0,1,2,2,2,2,0,0,1-2,2A2,2,0,0,1-7022.5-567Zm1,0a1,1,0,0,0,1,1,1,1,0,0,0,1-1,1,1,0,0,0-1-1A1,1,0,0,0-7021.5-567Z" transform="translate(7029.502 573)"/>
  </g>
</svg>
