<svg xmlns="http://www.w3.org/2000/svg" width="20" height="20.999" viewBox="0 0 20 20.999"><defs><style>.a,.d{fill:none;}.a{stroke:#000;}.b{stroke:#fff;}.c{stroke:none;}</style></defs><g transform="translate(-1502.472 -125.5)"><path class="a" d="M12532.359-4791.75h3.247a1.519,1.519,0,0,1-.4,1.239,1.612,1.612,0,0,1-1.223.509,1.6,1.6,0,0,1-1.224-.508,1.534,1.534,0,0,1-.4-1.239Zm1.663-.627h-7.9a1.223,1.223,0,0,1-1.022-.69,1.177,1.177,0,0,1,.122-1.21c.869-1.223,2.571-1.926,2.571-7.364,0-5.578,2.313-7.817,4.479-8.36.2-.052.352-.132.352-.354v-.172A1.426,1.426,0,0,1,12534-4812a1.433,1.433,0,0,1,1.374,1.472v.173c0,.229.146.3.348.353,2.163.54,4.479,2.783,4.479,8.36,0,5.438,1.707,6.149,2.571,7.363a1.178,1.178,0,0,1,.124,1.21,1.223,1.223,0,0,1-1.013.695Z" transform="translate(-11022 4938)"/><g class="b" transform="matrix(0.799, -0.602, 0.602, 0.799, 1502.813, 128.392)"><rect class="c" width="3" height="27" rx="1.5"/><rect class="d" x="0.5" y="0.5" width="2" height="26" rx="1"/></g></g></svg>