<svg xmlns="http://www.w3.org/2000/svg" width="24" height="16">
  <path d="M6.597.681h1.931L9.9 12.773a.34.34 0 0 0 .339.303h1.866a1.59 1.59 0 0 0-.295.92c0 .884.718 1.603 1.602 1.603.884 0 1.603-.719 1.603-1.602 0-.344-.111-.66-.296-.921h4.456a1.59 1.59 0 0 0-.295.92c0 .884.719 1.603 1.602 1.603.884 0 1.603-.719 1.603-1.602 0-.344-.111-.66-.296-.921h1.164a.34.34 0 0 0 0-.682h-12.41L9.172.302A.34.34 0 0 0 8.831 0H6.597a.34.34 0 0 0 0 .681zm7.735 13.316a.922.922 0 0 1-1.842 0 .922.922 0 0 1 1.842 0zm7.07 0a.922.922 0 0 1-1.842 0 .922.922 0 0 1 1.842 0z" />
  <path d="M11.587 11.223h10.192a.34.34 0 0 0 .34-.341V2.328a.34.34 0 0 0-.34-.34H11.586a.34.34 0 0 0-.34.34v8.554c0 .188.152.34.34.34zm6.062-8.554V5.69l-.72-.751a.341.341 0 0 0-.492 0l-.72.751V2.67h1.932zm-5.722 0h3.108v3.869a.34.34 0 0 0 .587.236l1.06-1.107 1.062 1.107a.341.341 0 0 0 .586-.236V2.669h3.108v7.872h-9.51V2.67z" />
  <path d="M6.256 9.641H.513M5.846 12.513H2.974" stroke="#000" fill="none" stroke-width=".41026"/>
</svg>
