<svg id="Icon_Calendar_Grid_Fill" data-name="Icon Calendar Grid Fill" xmlns="http://www.w3.org/2000/svg" width="24" height="24" viewBox="0 0 24 24">
  <g id="Canvas">
    <rect id="Brand_Icon_Asset_Canvas" data-name="Brand/Icon/Asset/Canvas" width="24" height="24" fill="rgba(0,0,0,0)"/>
  </g>
  <path id="Icon" d="M20,1H18V0H16V1H6V0H4V1H2A2,2,0,0,0,0,3V20a2,2,0,0,0,2,2H20a2,2,0,0,0,2-2V3A2,2,0,0,0,20,1ZM6,18H4V16H6Zm0-4H4V12H6Zm0-4H4V8H6Zm4,8H8V16h2Zm0-4H8V12h2Zm0-4H8V8h2Zm4,8H12V16h2Zm0-4H12V12h2Zm0-4H12V8h2Zm4,4H16V12h2Zm0-4H16V8h2ZM1,4V3A1,1,0,0,1,2,2H4V3H6V2H16V3h2V2h2a1,1,0,0,1,1,1V4Z" transform="translate(1 1)"/>
</svg>
