<svg width="16" height="21" viewBox="0 0 16 21" fill="none" xmlns="http://www.w3.org/2000/svg">
<path d="M11.6751 1.50317H10.025C9.90999 1.05438 9.6427 0.659446 9.26878 0.386005C8.89485 0.112394 8.43752 -0.0229618 7.97508 0.00318791C7.51452 -0.0137313 7.06161 0.125212 6.68973 0.397454C6.31768 0.66953 6.04835 1.05918 5.92497 1.50316H4.30004C4.14999 1.50316 4.0001 1.50316 4.0001 1.65321L3.99993 2.75314H1.84999C1.37385 2.75878 0.917711 2.94541 0.574225 3.27509C0.230543 3.60476 0.0252878 4.05267 0 4.52832V18.8536C0 19.8285 0.87501 20.5036 1.84999 20.5036H14.15C15.125 20.5036 16 19.8285 16 18.8536V4.52832C15.9747 4.05271 15.7695 3.60479 15.4258 3.27509C15.0823 2.94542 14.6261 2.75879 14.15 2.75314H12.0001V1.65321C12.0001 1.50316 11.8251 1.50316 11.675 1.50316L11.6751 1.50317ZM4.49998 2.00324H6.12509C6.25378 1.98308 6.35478 1.88208 6.37494 1.75322C6.46467 1.24803 6.78767 0.814812 7.24619 0.584772C7.70487 0.35457 8.24528 0.35457 8.70378 0.584772C9.16229 0.814804 9.4853 1.24803 9.57503 1.75322C9.5952 1.88208 9.6962 1.98308 9.82506 2.00324H11.5V4.50319H4.49996L4.49998 2.00324ZM14.15 3.25319C14.4937 3.25849 14.8229 3.39231 15.0729 3.62832C15.3228 3.86433 15.4752 4.18544 15.5002 4.52827V18.8535C15.5002 19.5535 14.8502 20.0035 14.1502 20.0035H1.85021C1.1502 20.0035 0.500288 19.5535 0.500288 18.8535L0.500117 4.52827C0.525068 4.18544 0.677512 3.86431 0.927366 3.62832C1.17739 3.39231 1.50654 3.25849 1.85024 3.25319H4.00018V4.77812C4.00018 4.90305 4.15023 5.00319 4.30012 5.00319H11.6751C11.8252 5.00319 12.0002 4.90321 12.0002 4.77812V3.25319H14.15Z" fill="black"/>
<path d="M5.55002 11.1034L3.77506 12.7784L2.92499 11.9034C2.82946 11.8119 2.68248 11.8015 2.57499 11.8784C2.47655 11.984 2.47655 12.1477 2.57499 12.2534L3.60006 13.3034C3.64433 13.3529 3.70842 13.3805 3.77506 13.3784C3.84035 13.375 3.90256 13.3483 3.95007 13.3034L5.90003 11.4534C5.95796 11.4098 5.99419 11.3433 5.99932 11.271C6.00462 11.1987 5.97813 11.1278 5.92686 11.0765C5.87559 11.0253 5.80466 10.9988 5.73238 11.0039C5.66009 11.009 5.59343 11.0453 5.55002 11.1034V11.1034Z" fill="black"/>
<path d="M13.25 12.5035H7.4999C7.36182 12.5035 7.24988 12.6154 7.24988 12.7535C7.24988 12.8914 7.36182 13.0033 7.4999 13.0033H13.25C13.3881 13.0033 13.5001 12.8914 13.5001 12.7535C13.5001 12.6154 13.3881 12.5035 13.25 12.5035Z" fill="black"/>
<path d="M5.55002 7.10302L3.77506 8.77801L2.92499 7.903C2.82946 7.81174 2.68248 7.80114 2.57499 7.87805C2.47655 7.98366 2.47655 8.14738 2.57499 8.253L3.60006 9.30301C3.64433 9.35274 3.70842 9.38009 3.77506 9.37804C3.84035 9.37462 3.90256 9.34813 3.95007 9.30301L5.90003 7.45302C5.95796 7.40961 5.99419 7.34296 5.99932 7.27067C6.00462 7.19838 5.97813 7.12746 5.92686 7.07619C5.87559 7.02491 5.80466 6.99843 5.73238 7.00373C5.66009 7.00885 5.59343 7.04508 5.55002 7.10302V7.10302Z" fill="black"/>
<path d="M7.2502 8.75297C7.24217 8.8215 7.26575 8.88986 7.31463 8.93856C7.36334 8.98744 7.43187 9.01102 7.50023 9.003H13.2504C13.3884 9.003 13.5004 8.89106 13.5004 8.75297C13.5004 8.61488 13.3884 8.50294 13.2504 8.50294H7.50023C7.43187 8.49474 7.36334 8.5185 7.31463 8.56721C7.26575 8.61608 7.24217 8.68444 7.2502 8.75297V8.75297Z" fill="black"/>
<path d="M5.55002 15.1034L3.77506 16.7784L2.92499 15.9034V15.9036C2.82946 15.8122 2.68248 15.8017 2.57499 15.8785C2.47655 15.9841 2.47655 16.148 2.57499 16.2536L3.60006 17.3036C3.64433 17.3532 3.70842 17.3807 3.77506 17.3785C3.84035 17.3752 3.90256 17.3486 3.95007 17.3036L5.90003 15.4536V15.4535C5.95796 15.41 5.99419 15.3436 5.99932 15.2713C6.00462 15.199 5.97813 15.1281 5.92686 15.0768C5.87559 15.0255 5.80466 14.999 5.73238 15.0042C5.66009 15.0093 5.59343 15.0455 5.55002 15.1034V15.1034Z" fill="black"/>
<path d="M13.25 16.5034H7.4999C7.36182 16.5034 7.24988 16.6153 7.24988 16.7534C7.24988 16.8915 7.36182 17.0034 7.4999 17.0034H13.25C13.3881 17.0034 13.5001 16.8915 13.5001 16.7534C13.5001 16.6153 13.3881 16.5034 13.25 16.5034Z" fill="black"/>
</svg>
