<svg width="12" height="12" viewBox="0 0 12 12" fill="none" xmlns="http://www.w3.org/2000/svg">
<path d="M10.8232 1.9H1.17676L2.52675 0.5H9.47324L10.8232 1.9Z" fill="white"/>
<path d="M2.73918 1L2.35346 1.4H9.64648L9.26076 1H2.73918ZM2.31427 0H9.68567L11.9999 2.4H0L2.31427 0Z" fill="#959499"/>
<path d="M10.286 12L1.715 12L0 2.4L12 2.4L10.286 12Z" fill="#959499"/>
<path d="M5.81904 6.73804C4.92446 6.70287 4.08019 6.31496 3.4708 5.6591C2.86141 5.00324 2.53648 4.13279 2.56704 3.23804L3.21404 3.23804C3.176 3.96855 3.42773 4.68457 3.91455 5.23056C4.40137 5.77655 5.08396 6.1084 5.81404 6.15404C6.54475 6.10942 7.22825 5.77796 7.71576 5.23183C8.20327 4.6857 8.45532 3.96911 8.41704 3.23804H9.06704C9.09815 4.13226 8.77394 5.00243 8.1653 5.65829C7.55666 6.31416 6.71309 6.70236 5.81904 6.73804Z" fill="white"/>
</svg>
