<svg xmlns="http://www.w3.org/2000/svg" width="19" height="19" viewBox="0 0 19 19">
  <g id="Group_1662" data-name="Group 1662" transform="translate(-1501 -126)">
    <path id="Path_2189" data-name="Path 2189" d="M1,1H20V20H1Z" transform="translate(1500 125)" fill="rgba(255,255,255,0)"/>
    <g id="Group_1661" data-name="Group 1661" transform="translate(1 1)">
      <g id="shopping-cart" transform="translate(1503.5 129)">
        <path id="Path_402" data-name="Path 402" d="M3.679,6.984H9.747a.337.337,0,0,0,.322-.253l1.338-4.889a.362.362,0,0,0-.055-.306.33.33,0,0,0-.267-.139H2.908L2.668.274A.338.338,0,0,0,2.342,0H.334A.342.342,0,0,0,0,.349.342.342,0,0,0,.334.7H2.073L3.281,6.372a1.051,1.051,0,0,0-.6.961,1.028,1.028,0,0,0,1,1.048H9.747a.35.35,0,1,0,0-.7H3.68a.35.35,0,0,1,0-.7ZM10.642,2.1,9.495,6.286H3.948L3.056,2.1Zm0,0"/>
        <path id="Path_403" data-name="Path 403" d="M150,360.828a.828.828,0,1,0,.828-.828A.828.828,0,0,0,150,360.828Zm.828-.276a.276.276,0,1,1-.276.276A.276.276,0,0,1,150.828,360.552Zm0,0" transform="translate(-146.529 -351.619)"/>
        <path id="Path_404" data-name="Path 404" d="M362,360.828a.828.828,0,1,0,.828-.828A.828.828,0,0,0,362,360.828Zm.828-.276a.276.276,0,1,1-.276.276A.276.276,0,0,1,362.828,360.552Zm0,0" transform="translate(-353.34 -351.619)"/>
      </g>
      <g id="Ellipse_106" data-name="Ellipse 106" transform="translate(1501 126)" fill="none" stroke="#000" stroke-width="1">
        <circle cx="8.5" cy="8.5" r="8.5" stroke="none"/>
        <circle cx="8.5" cy="8.5" r="8" fill="none"/>
      </g>
      <line id="Line_50" data-name="Line 50" x2="10" y2="12" transform="translate(1504.5 128.5)" fill="none" stroke="#000" stroke-linecap="round" stroke-width="1"/>
    </g>
  </g>
</svg>
