<svg xmlns="http://www.w3.org/2000/svg" xmlns:xlink="http://www.w3.org/1999/xlink" width="26.951" height="22.813" viewBox="0 0 26.951 22.813">
  <defs>
    <mask id="mask">
      <style>
        .a{clip-rule:evenodd;}.c{fill:#ee3124;}.d{clip-path:url(#a);}.e{clip-path:url(#b);}.f{isolation:isolate;}.g{clip-path:url(#c);}.h{clip-path:url(#d);}.i{stroke:#fff;stroke-width:4px;}.j{clip-path:url(#e);}.k{clip-path:url(#f);}.l{clip-path:url(#g);}.m{clip-path:url(#h);}.n{clip-path:url(#i);}.o{clip-path:url(#j);}.p{clip-path:url(#k);}.q{clip-path:url(#m);}.r{clip-path:url(#n);}
      </style>
      <clipPath id="a">
        <path class="a" d="M181.124-41.886a1.115,1.115,0,0,0-1.124,1.1v17.044a1.114,1.114,0,0,0,1.124,1.1h24.7a1.115,1.115,0,0,0,1.124-1.1V-40.782a1.114,1.114,0,0,0-1.124-1.1Z" transform="translate(-180 41.886)"/>
      </clipPath>
      <clipPath id="b">
        <path class="b" d="M-986,377.643h718.706V-64H-986Z" transform="translate(986 64)"/>
      </clipPath>
      <clipPath id="c">
        <rect class="b" width="50" height="41.294"/>
      </clipPath>
      <clipPath id="d">
        <path class="b" d="M180-22.678h26.951V-42H180Z" transform="translate(-180 42)"/>
      </clipPath>
      <clipPath id="e">
        <path class="a" d="M195.595-2.784a.592.592,0,0,0-.595.593h0a.6.6,0,0,0,.595.593h8.918a.592.592,0,0,0,.595-.593h0a.6.6,0,0,0-.595-.593Z" transform="translate(-195 2.784)"/>
      </clipPath>
      <clipPath id="f">
        <path class="b" d="M-986,385.191h718.706V-64H-986Z" transform="translate(986 64)"/>
      </clipPath>
      <clipPath id="g">
        <rect class="b" width="33" height="24"/>
      </clipPath>
      <clipPath id="h"/>
      <clipPath id="i">
        <path class="c" d="M195-1.316h10.107V-3H195Z" transform="translate(-195 3)" stroke="white" fill="none"/>
      </clipPath>
      <clipPath id="j">
        <path class="b" d="M195-1.316h10.107V-3H195Z" transform="translate(-195 3)"/>
      </clipPath>
      <clipPath id="k">
        <path class="a" d="M197.561-9.125,197-4.378h7.861L204.3-9.125Z" transform="translate(-197 9.125)"/>
      </clipPath>
      <clipPath id="m">
        <rect class="b" width="31" height="28"/>
      </clipPath>
      <clipPath id="n">
        <path class="b" d="M197-4.385h7.861V-10H197Z" transform="translate(-197 10)"/>
      </clipPath>
      <g transform="translate(-101.049 42.813)">
        <g class="d" transform="translate(101.049 -42.813)">
          <g class="e" transform="translate(-654.696 -12.208)">
            <g class="f" transform="translate(643.628 1.209)">
              <g class="g" transform="translate(0 0)">
                <g class="h" transform="translate(11.068 10.936)">
                  <g transform="translate(0 0.063)">
                    <path class="i" d="M1.124,0A1.115,1.115,0,0,0,0,1.1V18.149a1.114,1.114,0,0,0,1.124,1.1h24.7a1.115,1.115,0,0,0,1.124-1.1V1.1A1.114,1.114,0,0,0,25.828,0Z"/>
                  </g>
                </g>
              </g>
            </g>
          </g>
        </g>
        <g class="j" transform="translate(109.471 -21.187)">
          <g class="k" transform="translate(-663.118 -34.372)">
            <g class="f" transform="translate(651.628 23.23)">
              <g class="l" transform="translate(0 0)">
                <g class="m" transform="translate(11.49 11.142)">
                  <g class="n" transform="translate(0 -0.121)">
                    <path class="c" d="M195.595-2.784a.592.592,0,0,0-.595.593h0a.6.6,0,0,0,.595.593h8.918a.592.592,0,0,0,.595-.593h0a.6.6,0,0,0-.595-.593Z" transform="translate(-195 2.905)"/>
                  </g>
                </g>
                <g class="o" transform="translate(11.49 11.021)">
                  <g transform="translate(0 0.121)">
                    <path class="i" d="M.594,0A.592.592,0,0,0,0,.593H0a.6.6,0,0,0,.594.593H9.512a.592.592,0,0,0,.594-.593h0A.6.6,0,0,0,9.512,0Z"/>
                  </g>
                </g>
              </g>
            </g>
          </g>
        </g>
        <g class="p" transform="translate(110.594 -24.747)">
          <g class="k" transform="translate(-664.241 -30.812)">
            <g class="f" transform="translate(652.628 19.23)">
              <g class="q" transform="translate(0 0)">
                <g class="r" transform="translate(11.613 11.091)">
                  <g transform="translate(0 0.491)">
                    <path class="i" d="M.561,0,0,4.747H7.861L7.3,0Z"/>
                  </g>
                </g>
              </g>
            </g>
          </g>
        </g>
      </g>
    </mask>
  </defs>
  <rect x="0" y="0" width="26.951" height="22.813" mask="url(#mask)"/>
</svg>
