<svg width="20" height="20" viewBox="0 0 20 20" fill="none" xmlns="http://www.w3.org/2000/svg">
<path fill-rule="evenodd" clip-rule="evenodd" d="M10 0C4.47715 0 0 4.47715 0 10C0 15.5229 4.47715 20 10 20C15.5229 20 20 15.5229 20 10C20 4.47715 15.5229 0 10 0ZM1.25 10C1.25 5.16751 5.16751 1.25 10 1.25C14.8325 1.25 18.75 5.16751 18.75 10C18.75 14.8325 14.8325 18.75 10 18.75C5.16751 18.75 1.25 14.8325 1.25 10ZM9.19194 5.12944C9.436 4.88536 9.436 4.48964 9.19194 4.24556C8.94788 4.00148 8.55212 4.00148 8.30806 4.24556L5.49556 7.05806C5.25148 7.30212 5.25148 7.69788 5.49556 7.94194L8.30806 10.7544C8.55212 10.9985 8.94788 10.9985 9.19194 10.7544C9.436 10.5104 9.436 10.1146 9.19194 9.87056L7.44637 8.125H12.3438C13.6382 8.125 14.6875 9.17431 14.6875 10.4688C14.6875 11.7632 13.6382 12.8125 12.3438 12.8125H5.9375C5.59232 12.8125 5.3125 13.0923 5.3125 13.4375C5.3125 13.7827 5.59232 14.0625 5.9375 14.0625H12.3438C14.3285 14.0625 15.9375 12.4535 15.9375 10.4688C15.9375 8.484 14.3285 6.875 12.3438 6.875H7.44637L9.19194 5.12944Z" fill="black"/>
</svg>
