<svg id="Icon_Calendar_Grid_Outline" data-name="Icon Calendar Grid Outline" xmlns="http://www.w3.org/2000/svg" width="24" height="24" viewBox="0 0 24 24">
  <g id="Canvas">
    <rect id="Brand_Icon_Asset_Canvas" data-name="Brand/Icon/Asset/Canvas" width="24" height="24" fill="rgba(0,0,0,0)"/>
  </g>
  <path id="Icon" d="M-6028,22a2,2,0,0,1-2-2V3a2,2,0,0,1,2-2h2V0h2V1h10V0h2V1h2a2,2,0,0,1,2,2V20a2,2,0,0,1-2,2Zm-1-2a1,1,0,0,0,1,1h18a1,1,0,0,0,1-1V5h-20Zm0-17V4h20V3a1,1,0,0,0-1-1h-2V3h-2V2h-10V3h-2V2h-2A1,1,0,0,0-6029,3Zm11,15V16h2v2Zm-4,0V16h2v2Zm-4,0V16h2v2Zm12-4V12h2v2Zm-4,0V12h2v2Zm-4,0V12h2v2Zm-4,0V12h2v2Zm12-4V8h2v2Zm-4,0V8h2v2Zm-4,0V8h2v2Zm-4,0V8h2v2Z" transform="translate(6031 1)"/>
</svg>
