<svg id="Icon_Pictures_Outline" data-name="Icon Pictures Outline" xmlns="http://www.w3.org/2000/svg" width="24" height="24" viewBox="0 0 24 24">
  <g id="Canvas">
    <rect id="Brand_Icon_Asset_Canvas" data-name="Brand/Icon/Asset/Canvas" width="24" height="24" fill="rgba(0,0,0,0)"/>
  </g>
  <path id="Icon" d="M-6028,18a2,2,0,0,1-2-2V2a2,2,0,0,1,2-2h18a2,2,0,0,1,2,2V16a2,2,0,0,1-2,2Zm-1-16V16a1,1,0,0,0,1,1h18a1,1,0,0,0,1-1V2a1,1,0,0,0-1-1h-18A1,1,0,0,0-6029,2Zm18.14,11.849-5.79-5.79a.5.5,0,0,0-.7,0l-2.65,2.68a1.511,1.511,0,0,1-2,.13l-.749-.571a.511.511,0,0,0-.651,0l-3.75,3.561a.5.5,0,0,1-.71-.021.5.5,0,0,1,.02-.71l3.76-3.52a1.5,1.5,0,0,1,1.93-.109l.76.58a.493.493,0,0,0,.651-.05l2.68-2.68a1.51,1.51,0,0,1,2.12,0l5.79,5.79a.5.5,0,0,1,.148.354.5.5,0,0,1-.148.356.5.5,0,0,1-.35.15A.508.508,0,0,1-6010.859,13.85Zm-16.011-4.019a4.741,4.741,0,0,1,2.57-5.338,4.739,4.739,0,0,1,5.77,1.336.491.491,0,0,1,.109.368.492.492,0,0,1-.188.333.5.5,0,0,1-.7-.08A3.708,3.708,0,0,0-6022.25,5,3.749,3.749,0,0,0-6026,8.75a3.937,3.937,0,0,0,.111.85.5.5,0,0,1-.065.378.5.5,0,0,1-.314.221l-.111.02A.511.511,0,0,1-6026.871,9.831Z" transform="translate(6031 3)"/>
</svg>
