<svg width="30" height="32" viewBox="0 0 30 32" fill="none" xmlns="http://www.w3.org/2000/svg">
<path d="M11.9216 22.9729C11.589 22.7697 11.2822 22.5304 11.0054 22.2595C10.1982 21.4648 9.66809 20.3945 9.57958 19.1935C9.38649 16.5204 11.4635 14.1995 14.2172 14.0121C16.9709 13.8247 19.3617 15.8408 19.5548 18.514C19.6456 19.7782 19.2292 20.9635 18.4758 21.8824C18.1128 22.3227 17.671 22.7042 17.171 23" stroke="black" stroke-width="0.9" stroke-linecap="round"/>
<path d="M12.9798 20.9849C12.7802 20.8721 12.596 20.7391 12.4299 20.5885C11.9457 20.1471 11.6276 19.5526 11.5746 18.8853C11.4586 17.4002 12.7048 16.1108 14.3572 16.0067C16.0092 15.9026 17.4438 17.0227 17.5598 18.5077C17.6142 19.2101 17.3644 19.8686 16.9122 20.3791C16.6944 20.6237 16.4294 20.8356 16.1293 21" stroke="black" stroke-width="0.9" stroke-linecap="round"/>
<circle cx="14.5671" cy="19" r="1" fill="black"/>
<path d="M14.5671 19V23" stroke="black" stroke-width="0.9" stroke-linecap="round"/>
<path d="M19.927 25.0062L9.62131 25.0075C9.08181 25.0079 8.56435 24.794 8.18292 24.4129C7.80149 24.0318 7.58737 23.5148 7.58775 22.9758L7.58217 10.6476L14.7698 3.46652L21.9555 10.6457L21.9539 22.9811C21.9504 24.098 21.0449 25.0027 19.927 25.0062Z" stroke="black" stroke-linecap="round" stroke-linejoin="round"/>
<circle cx="14.5671" cy="10" r="1.5" fill="white" stroke="black"/>
<path d="M14.5671 10V1" stroke="black" stroke-linecap="round"/>
</svg>
