<svg id="Icon_Phone_Fill" data-name="Icon Phone Fill" xmlns="http://www.w3.org/2000/svg" width="24" height="24" viewBox="0 0 24 24">
  <g id="Canvas">
    <rect id="Brand_Icon_Asset_Canvas" data-name="Brand/Icon/Asset/Canvas" width="24" height="24" fill="rgba(0,0,0,0)"/>
  </g>
  <path id="Icon" d="M5.558,0a2.156,2.156,0,0,0-1.4.5L4,.611c-.4.321-.81.651-1.2,1A7.689,7.689,0,0,0,1.36,3.256,1.876,1.876,0,0,0,1,4.478v.18a12.106,12.106,0,0,0,.33,1.553,14.188,14.188,0,0,0,2.119,4.218A37.731,37.731,0,0,0,8.926,16.61a27.844,27.844,0,0,0,4.848,3.737,11.749,11.749,0,0,0,3.918,1.563q.3.06.6.09h.54a3.4,3.4,0,0,0,1.5-.821,14.455,14.455,0,0,0,2.239-2.515,2.246,2.246,0,0,0,.3-.6,1.825,1.825,0,0,0-.76-2.234l-3.918-2.6a2.257,2.257,0,0,0-.65-.311,1.676,1.676,0,0,0-.5-.07,2.455,2.455,0,0,0-1.189.341c-.49.26-1,.561-1.629.922-.32-.3-.65-.581-1-.872-.63-.561-1.289-1.132-1.9-1.743s-1.1-1.192-1.639-1.813l-.84-.952c.27-.441.52-.9.77-1.352A4.572,4.572,0,0,0,10,6.642a1.727,1.727,0,0,0-.14-1.633c-1-1.493-2-3.005-2.809-4.268A1.589,1.589,0,0,0,5.858,0Z" transform="translate(0.003 1)"/>
</svg>
