<svg id="Icon_Ruler" data-name="Icon Ruler" xmlns="http://www.w3.org/2000/svg" width="24" height="24" viewBox="0 0 24 24">
  <g id="Canvas">
    <rect id="Brand_Icon_Asset_Canvas" data-name="Brand/Icon/Asset/Canvas" width="24" height="24" fill="rgba(0,0,0,0)"/>
  </g>
  <path id="Icon" d="M-5525.15-1306.5l-3.851-3.849,18.15-18.15,3.851,3.849-18.148,18.15h0Zm-2.628-3.422,2.628,2.567,16.927-16.866-2.566-2.566-.459.456,1.683,1.681-.429.429-1.683-1.684-.888.881.86.8-.488.427-.8-.8-.86.854,1.233,1.293-.427.427-1.265-1.265-.859.852.84.84-.427.429-.813-.872-.888.882,1.7,1.7-.428.427-1.7-1.7-.858.852.85.85-.428.427-.88-.822-.86.854,1.313,1.313-.488.429-1.255-1.314-4.592,4.558.285-.249,1.223,1.283-.367.427-1.332-1.272-.86.853.848.846-.429.489-.848-.908Zm.917-.855.428-.429,1.71,1.712-.427.427Zm4.767-4.768.427-.427,1.712,1.711-.429.429Zm-.855.856.428-.427.854.855-.427.429Zm2.138-2.138.428-.429.856.856-.427.427Z" transform="translate(5530.001 1329.5)"/>
</svg>
