<svg version="1.1" id="Layer_1" xmlns="http://www.w3.org/2000/svg" xmlns:xlink="http://www.w3.org/1999/xlink" x="0px" y="0px"
	 viewBox="0 0 22 23" style="enable-background:new 0 0 22 23;" xml:space="preserve">
<style type="text/css">
	.st0{fill:none;}
	.st1{fill:none;stroke:#000000;stroke-width:0.75;}
	.st2{stroke:#000000;stroke-width:0.5;}
</style>
<g>
	<path class="st0" d="M10,9.2c1.8,0,3.3-1.5,3.3-3.3c0-1.8-1.5-3.3-3.3-3.3S6.7,4,6.7,5.8C6.7,7.7,8.2,9.2,10,9.2z"/>
	<path class="st0" d="M12.8,12.5H7.2c-2.8,0-5.2,2.2-5.5,5h0h9.9c0-2.1,1.4-3.9,3.2-4.6c0,0,0,0,0,0C14.2,12.7,13.5,12.5,12.8,12.5z
		"/>
	<path d="M10,10c2.3,0,4.2-1.9,4.2-4.2c0-2.3-1.9-4.2-4.2-4.2S5.8,3.5,5.8,5.8C5.8,8.1,7.7,10,10,10z M10,2.5c1.8,0,3.3,1.5,3.3,3.3
		c0,1.8-1.5,3.3-3.3,3.3S6.7,7.7,6.7,5.8C6.7,4,8.2,2.5,10,2.5z"/>
	<path class="st1" d="M16.5,12.6c-0.1,0-0.3,0-0.4,0c-0.4,0-0.9,0.1-1.2,0.3c-1.9,0.7-3.2,2.5-3.2,4.6c0,0.3,0,0.6,0.1,0.8l0,0
		c0.4,2.3,2.4,4,4.8,4c2.7,0,4.9-2.2,4.9-4.9S19.2,12.6,16.5,12.6z M18.9,16.3L15.9,19c0,0-0.1,0-0.1,0c0,0-0.1,0-0.1,0l-1.5-1.3
		c-0.1-0.1-0.1-0.2,0-0.2c0.1-0.1,0.2-0.1,0.3,0l1.4,1.2l3-2.6c0,0,0.1,0,0.1,0s0.1,0,0.1,0C19,16.1,19,16.2,18.9,16.3z"/>
	<path class="st2" d="M18.8,16c0,0-0.1,0-0.1,0l-3,2.6l-1.4-1.2c-0.1-0.1-0.2-0.1-0.3,0c-0.1,0.1-0.1,0.2,0,0.2l1.5,1.3
		c0,0,0.1,0,0.1,0c0,0,0.1,0,0.1,0l3.1-2.7c0.1-0.1,0.1-0.2,0-0.2C18.9,16,18.9,16,18.8,16z"/>
	<path d="M1.7,17.5L1.7,17.5c0.3-2.8,2.7-5,5.5-5h5.5c0.7,0,1.4,0.2,2.1,0.4c0,0,0,0,0,0c0.4-0.1,0.8-0.2,1.2-0.3l0,0
		c-1-0.6-2.1-1-3.3-1v0H7.2c-3.3,0-6.1,2.6-6.3,5.9l0,0.8h10.9c0-0.3-0.1-0.5-0.1-0.8H1.7z"/>
	<path d="M11.6,17.5c0,0.3,0,0.6,0.1,0.8l0,0C11.7,18.1,11.6,17.8,11.6,17.5z"/>
	<path d="M16.1,12.7c-0.4,0-0.9,0.1-1.2,0.3C15.3,12.8,15.7,12.7,16.1,12.7z"/>
</g>
</svg>
