<svg id="Icon_Heart_Fill_Red" data-name="Icon Heart Fill Red" xmlns="http://www.w3.org/2000/svg" width="24" height="24" viewBox="0 0 24 24">
  <g id="Canvas">
    <rect id="Brand_Icon_Asset_Canvas" data-name="Brand/Icon/Asset/Canvas" width="24" height="24" fill="rgba(0,0,0,0)"/>
  </g>
  <path id="Icon" d="M16.022,0a5.481,5.481,0,0,1,2.52.62,6.87,6.87,0,0,1,2.88,8.73c-2,4.6-10.44,9.51-10.44,9.51S2.532,13.95.582,9.35A6.87,6.87,0,0,1,3.462.62,5.481,5.481,0,0,1,6.022,0a5.85,5.85,0,0,1,5,3.07A5.85,5.85,0,0,1,16.022,0Z" transform="translate(1 3)" fill="#e01a2b"/>
</svg>
