<svg id="Icon_Shop_Outline" data-name="Icon Shop Outline" xmlns="http://www.w3.org/2000/svg" width="24" height="24" viewBox="0 0 24 24">
  <g id="Canvas">
    <rect id="Brand_Icon_Asset_Canvas" data-name="Brand/Icon/Asset/Canvas" width="24" height="24" fill="rgba(0,0,0,0)"/>
  </g>
  <path id="Icon" d="M12,5.563A4.858,4.858,0,0,1,7.251,2L1,3.631Q1.493,5.425,2.935,9.1q1.463.01,2.194.015c.849.005.946.1.92.954C5.934,13.713,5.7,21.663,5.7,22H18.3c0-.337-.238-8.287-.353-11.933-.026-.853.071-.949.92-.954q.73,0,2.194-.015Q22.506,5.425,23,3.631L16.749,2A4.858,4.858,0,0,1,12,5.563Zm7.485-1.816.037.01,2.22.579Q21.271,5.8,20.38,8.1l-1.513.01c-1.414.008-1.959.571-1.915,1.984.1,3.237.265,8.667.327,10.9H6.721c.062-2.236.225-7.665.327-10.9.043-1.415-.5-1.977-1.914-1.986L3.62,8.1Q2.73,5.8,2.257,4.337l2.22-.579.037-.01,2.149-.561A5.732,5.732,0,0,0,12,6.563a5.733,5.733,0,0,0,5.338-3.376Z"/>
</svg>
