<svg id="Icon_Wallet_Outline" data-name="Icon Wallet Outline" xmlns="http://www.w3.org/2000/svg" width="24" height="24" viewBox="0 0 24 24">
  <g id="Canvas">
    <rect id="Brand_Icon_Asset_Canvas" data-name="Brand/Icon/Asset/Canvas" width="24" height="24" fill="rgba(0,0,0,0)"/>
  </g>
  <path id="Icon" d="M-6028,22a2,2,0,0,1-2-2V4a2,2,0,0,1,2-2h4V0h8V2h4a2,2,0,0,1,2,2V20a2,2,0,0,1-2,2Zm-1-18V20a1,1,0,0,0,1,1h16a1,1,0,0,0,1-1V4a1,1,0,0,0-1-1h-4V4a4,4,0,0,1-4,4,4,4,0,0,1-4-4V3h-4A1,1,0,0,0-6029,4Zm6,0a3,3,0,0,0,3,3,3,3,0,0,0,3-3V1h-6Zm3,12.1-2.46,1.89.941-3.051-2.48-1.89h3.06l.949-3.049.941,3.049h3.05l-2.47,1.89.94,3.06ZM-6021,4a1,1,0,0,1,1-1,1,1,0,0,1,1,1,1,1,0,0,1-1,1A1,1,0,0,1-6021,4Z" transform="translate(6032 1)"/>
</svg>
