<svg width="22" height="20" viewBox="0 0 22 20" fill="none" xmlns="http://www.w3.org/2000/svg">
<path fill-rule="evenodd" clip-rule="evenodd" d="M9.1062 1.00973C9.1062 0.728212 9.34602 0.5 9.64186 0.5H20.8907C21.1865 0.5 21.4264 0.728212 21.4264 1.00973V3.9351C21.4264 4.21662 21.1865 4.44483 20.8907 4.44483C20.5949 4.44483 20.355 4.21662 20.355 3.9351V1.51945H10.1775V12.2237C10.1775 12.5052 9.9377 12.7334 9.64186 12.7334C9.34602 12.7334 9.1062 12.5052 9.1062 12.2237V1.00973Z" fill="black"/>
<path fill-rule="evenodd" clip-rule="evenodd" d="M8.03488 11.714H10.7132C11.009 11.714 11.2488 11.9422 11.2488 12.2237C11.2488 12.5052 11.009 12.7334 10.7132 12.7334H8.03488V11.714Z" fill="black"/>
<path fill-rule="evenodd" clip-rule="evenodd" d="M5.08876 14.2626C6.2721 14.2626 7.2314 13.3497 7.2314 12.2237C7.2314 11.0976 6.2721 10.1848 5.08876 10.1848C3.90541 10.1848 2.94612 11.0976 2.94612 12.2237C2.94612 13.3497 3.90541 14.2626 5.08876 14.2626ZM5.08876 15.282C6.86378 15.282 8.30271 13.9128 8.30271 12.2237C8.30271 10.5346 6.86378 9.16533 5.08876 9.16533C3.31374 9.16533 1.87481 10.5346 1.87481 12.2237C1.87481 13.9128 3.31374 15.282 5.08876 15.282Z" fill="black"/>
<path fill-rule="evenodd" clip-rule="evenodd" d="M3.86245 2.73569C3.96393 2.61152 4.11997 2.5389 4.28527 2.5389H10.1775V3.55835H4.54725L1.07132 7.81104V11.714H2.67829V12.7334H0.535659C0.239823 12.7334 0 12.5052 0 12.2237V7.63615C0 7.5228 0.0397042 7.41269 0.112835 7.32321L3.86245 2.73569Z" fill="black"/>
<path fill-rule="evenodd" clip-rule="evenodd" d="M19.425 5.73993C19.1984 5.55898 18.8605 5.58711 18.6704 5.80276L9.66986 16.0098C9.60189 16.0869 9.55941 16.1814 9.54779 16.2814L9.23953 18.9342C9.21984 19.1036 9.29043 19.2712 9.42762 19.3807C9.56482 19.4903 9.75048 19.5273 9.92237 19.4795L12.6143 18.7299C12.7158 18.7017 12.8062 18.6455 12.8742 18.5684L21.8747 8.36132C22.0648 8.14567 22.0353 7.82416 21.8086 7.6432L19.425 5.73993ZM17.8353 8.33579L19.1467 6.84852L20.7097 8.0965L19.3982 9.58378L17.8353 8.33579ZM17.1466 9.11674L10.5948 16.5469L10.3927 18.2863L12.1578 17.7949L18.7096 10.3647L17.1466 9.11674Z" fill="black"/>
</svg>
