<svg id="Icon_Share_IMP" data-name="Icon Share IMP" xmlns="http://www.w3.org/2000/svg" width="24" height="24" viewBox="0 0 24 24">
  <g id="Canvas">
    <rect id="Brand_Icon_Asset_Canvas" data-name="Brand/Icon/Asset/Canvas" width="24" height="24" fill="rgba(0,0,0,0)"/>
  </g>
  <path id="Icon" d="M18,14a4,4,0,0,0-3.33,1.78L7.76,12.32a3.75,3.75,0,0,0,0-2.64l6.91-3.45A4,4,0,1,0,14,4a3.91,3.91,0,0,0,.24,1.32L7.33,8.78a4,4,0,1,0,0,4.44l6.91,3.45A3.91,3.91,0,0,0,14,18a4,4,0,1,0,4-4ZM18,1a3,3,0,1,1-3,3A3,3,0,0,1,18,1ZM4,14a3,3,0,1,1,2.121-.879A3,3,0,0,1,4,14Zm14,7a3,3,0,1,1,3-3A3,3,0,0,1,18,21Z" transform="translate(0.998 0.986)"/>
</svg>
