<svg xmlns="http://www.w3.org/2000/svg" width="17" height="24">
  <path d="M.005 16.3a.27.27 0 0 0 .155.199l1.383.61v4.513c0 .109.063.207.16.25l4.78 2.106.012.003c.03.011.06.02.093.02a.255.255 0 0 0 .092-.02c.004-.002.008-.001.011-.003l4.781-2.106a.272.272 0 0 0 .16-.25v-4.514l1.383-.61a.277.277 0 0 0 .083-.442v.001l-1.357-1.398 1.357-1.398a.277.277 0 0 0-.083-.442l-4.781-2.106a.258.258 0 0 0-.29.057l-1.356 1.398L5.23 10.77a.258.258 0 0 0-.29-.057L.16 12.819a.277.277 0 0 0-.083.442l1.357 1.398-1.357 1.398a.277.277 0 0 0-.072.244zm2.065 1.04 2.87 1.265c.1.044.215.021.29-.057l1.094-1.127v5.896L2.07 21.442V17.34zm4.518-4.492 4.11 1.811-4.11 1.812-4.111-1.812 4.11-1.811zm4.517 8.594-4.254 1.875v-5.896l1.093 1.127a.258.258 0 0 0 .29.057l2.871-1.265v4.102zm.161-4.763L8.19 18.034l-1.142-1.176 4.26-1.877 1.14 1.176-1.183.521zm-3.075-5.395 4.259 1.877-1.142 1.176L7.05 12.46l1.142-1.177zm-3.207 0 1.142 1.176-4.26 1.877-1.14-1.176 4.258-1.877zm-3.117 3.697 4.259 1.876-1.142 1.177-3.075-1.355-1.184-.522 1.142-1.176z" />
  <path d="M6.377 11.146h.12v.246h-.12a4.196 4.196 0 0 1 0-.246zM12.378 1.7c-.142.072-.285.148-.424.225l-.057-.107c.14-.08.284-.156.428-.228l.053.11zm-.632.346c-.138.082-.274.167-.408.255l-.065-.103c.136-.09.273-.175.413-.258l.06.106zM10.01 3.338c-.12.108-.236.22-.35.336l-.084-.09.36-.337.074.091zm.546-.469c-.126.101-.25.206-.37.31l-.078-.093c.12-.106.247-.212.375-.314l.073.097zm.582-.434c-.132.091-.264.187-.392.284l-.07-.1c.128-.097.26-.193.395-.286l.067.102zm1.892-1.04c-.146.06-.294.122-.437.194l-.05-.111c.145-.07.294-.136.442-.197l.045.113zm.671-.247c-.15.05-.3.106-.449.164l-.043-.115c.15-.059.303-.114.455-.165l.037.116zM9.488 3.853c-.112.117-.221.237-.327.359l-.09-.081c.108-.123.218-.246.33-.369l.087.09zm6.314-3.18c-.159.02-.318.041-.474.067L15.31.617c.158-.026.32-.048.48-.066l.012.123zM14.39.94c-.153.04-.309.085-.46.132l-.036-.117c.155-.048.311-.093.467-.134l.029.12zm.701-.16c-.156.03-.313.063-.469.1l-.026-.123c.159-.037.318-.07.479-.1l.016.123zm-8.26 7.432.12.036c-.047.156-.09.314-.13.472l-.12-.03c.039-.158.083-.32.13-.478zm.234-.707.113.043c-.056.154-.111.31-.16.465l-.12-.04.167-.468zM6.645 8.93l.12.029c-.036.159-.068.32-.096.48l-.12-.022c.027-.162.06-.326.096-.487zm-.139.732.12.02c-.025.162-.047.325-.065.491l-.12-.014c.018-.168.04-.334.065-.497zm-.087.739.12.01c-.015.164-.026.329-.033.493h-.12a7.08 7.08 0 0 1 .033-.503zm.93-3.585.11.051c-.068.15-.133.302-.193.452l-.11-.047c.06-.151.125-.305.193-.456zm1.207-1.848c-.095.132-.187.265-.277.4L8.18 5.3c.09-.135.184-.272.28-.406l.096.074zm-.407.606c-.087.138-.17.278-.25.42l-.103-.061c.08-.143.164-.285.251-.425l.102.066zm.854-1.183c-.106.123-.206.25-.302.382l-.095-.077c.098-.123.201-.26.306-.385l.09.08zM7.676 6.15l.105.06c-.076.143-.15.29-.22.436l-.108-.054c.071-.148.146-.295.223-.442zM17 .543c-.365.151-.704.363-1.002.627l.167-.532-.12.01-.01-.123.12-.01L15.95 0c.319.239.673.422 1.05.543z" fill="#000" />
</svg>
