<?xml version="1.0" encoding="UTF-8"?>
<svg width="24px" height="24px" viewBox="0 0 24 24" version="1.1" xmlns="http://www.w3.org/2000/svg" xmlns:xlink="http://www.w3.org/1999/xlink">
    <!-- Generator: Sketch 51.3 (57544) - http://www.bohemiancoding.com/sketch -->
    <title>icon-error-o-red</title>
    <desc>Created with Sketch.</desc>
    <defs></defs>
    <g id="icon-error-o-red" stroke="none" stroke-width="1" fill="none" fill-rule="evenodd">
        <g transform="translate(2.000000, 2.000000)" fill="#E01A2B" fill-rule="nonzero">
            <g id="error-o-red">
                <path d="M10,0.909090909 C15.0207705,0.909090909 19.0909091,4.97922955 19.0909091,10 C19.0909091,15.0207705 15.0207705,19.0909091 10,19.0909091 C4.97922955,19.0909091 0.909090909,15.0207705 0.909090909,10 C0.909090909,4.97922955 4.97922955,0.909090909 10,0.909090909 Z M10,4.03717464e-16 C4.4771525,8.07434927e-16 7.06505561e-16,4.4771525 0,10 C-7.06505561e-16,15.5228475 4.4771525,20 10,20 C15.5228475,20 20,15.5228475 20,10 C20,7.3478351 18.9464316,4.80429597 17.0710678,2.92893219 C15.195704,1.0535684 12.6521649,1.00929366e-16 10,4.03717464e-16 Z" id="Shape"></path>
            </g>
            <g id="error-o-bk" transform="translate(9.000000, 4.000000)">
                <circle id="Oval" cx="1" cy="10.61" r="1"></circle>
                <rect id="Rectangle" x="0.33" y="0.5" width="1.33" height="7.59" rx="0.665"></rect>
            </g>
        </g>
    </g>
</svg>