<svg xmlns="http://www.w3.org/2000/svg" width="20" height="20" viewBox="0 0 20 20">
  <g id="Group_1653" data-name="Group 1653" transform="translate(-964 -110)">
    <path id="Union_2" data-name="Union 2" d="M12531.541-4793.592h2.887a1.4,1.4,0,0,1-.354,1.126,1.414,1.414,0,0,1-1.087.463,1.413,1.413,0,0,1-1.089-.461,1.413,1.413,0,0,1-.358-1.128Zm1.479-.57H12526a1.086,1.086,0,0,1-.909-.628,1.089,1.089,0,0,1,.109-1.1c.771-1.111,2.285-1.75,2.285-6.694,0-5.071,2.056-7.107,3.981-7.6.18-.047.312-.12.312-.321v-.157A1.287,1.287,0,0,1,12533-4812a1.292,1.292,0,0,1,1.221,1.338v.157c0,.208.129.274.309.321,1.923.491,3.981,2.53,3.981,7.6,0,4.944,1.518,5.59,2.285,6.694a1.091,1.091,0,0,1,.111,1.1,1.088,1.088,0,0,1-.9.632Z" transform="translate(-11559.001 4922.001)"/>
    <rect id="Rectangle_165" data-name="Rectangle 165" width="20" height="20" transform="translate(964 110)" fill="none"/>
  </g>
</svg>
