<svg width="23" height="16" viewBox="0 0 23 16" fill="none" xmlns="http://www.w3.org/2000/svg">
<path d="M17.5514 9.87583C17.5797 9.84758 17.6021 9.8137 17.6176 9.77619C17.6331 9.73881 17.6412 9.69914 17.6412 9.65931C17.6412 9.61948 17.6331 9.57982 17.6176 9.54244C17.6021 9.50492 17.5797 9.47105 17.5514 9.44279L16.0481 7.93941C15.9286 7.8199 15.735 7.8199 15.6155 7.93941C15.496 8.05892 15.496 8.25253 15.6155 8.37204L16.5967 9.35337H12.8497C12.6806 9.35337 12.5438 9.49036 12.5438 9.65931C12.5438 9.82827 12.6806 9.96526 12.8497 9.96526H16.5968L15.6155 10.9467C15.496 11.0662 15.496 11.2599 15.6155 11.3794C15.735 11.4989 15.9286 11.4989 16.0481 11.3794L17.5514 9.87583Z" fill="black"/>
<path d="M22.6184 3.85788C22.615 3.84899 22.6111 3.84098 22.607 3.83252C22.6022 3.82268 22.5994 3.8122 22.5935 3.80281L20.3069 0.143711C20.251 0.0543771 20.1528 0 20.0474 0H9.93533C9.82987 0 9.73172 0.0543771 9.67585 0.143711L7.38917 3.80281C7.38331 3.8122 7.38051 3.82268 7.37576 3.83252C7.37164 3.84098 7.36768 3.84899 7.36434 3.85788C7.35169 3.89157 7.34372 3.92634 7.34337 3.96185C7.34335 3.96297 7.34271 3.96391 7.34271 3.96505V14.9913C7.34271 15.1605 7.4797 15.2973 7.64866 15.2973H22.3341C22.503 15.2973 22.64 15.1605 22.64 14.9913V3.96505C22.64 3.96391 22.6394 3.96297 22.6393 3.96185C22.639 3.92634 22.631 3.89157 22.6184 3.85788ZM10.1049 0.611892H19.8778L21.7821 3.6591H8.20065L10.1049 0.611892ZM22.0281 14.6854H7.9546V4.27099H22.0281V14.6854Z" fill="black"/>
<path d="M6.17311 7.95459H3.05958C2.89047 7.95459 2.75363 8.09158 2.75363 8.26054C2.75363 8.42949 2.89047 8.56648 3.05958 8.56648H6.17311C6.34222 8.56648 6.47906 8.42949 6.47906 8.26054C6.47906 8.09158 6.34222 7.95459 6.17311 7.95459Z" fill="black"/>
<path d="M5.97252 11.0139H2.85899C2.68988 11.0139 2.55304 11.1509 2.55304 11.3199C2.55304 11.4888 2.68988 11.6258 2.85899 11.6258H5.97252C6.14163 11.6258 6.27847 11.4888 6.27847 11.3199C6.27847 11.1509 6.14163 11.0139 5.97252 11.0139Z" fill="black"/>
<path d="M0.306007 10.1048H5.99319C6.1623 10.1048 6.29914 9.96782 6.29914 9.79887C6.29914 9.62991 6.1623 9.49292 5.99319 9.49292H0.306007C0.136901 9.49292 6.10352e-05 9.62991 6.10352e-05 9.79887C6.10352e-05 9.96782 0.136901 10.1048 0.306007 10.1048Z" fill="black"/>
</svg>