<svg id="Icon_Email_Fill" data-name="Icon Email Fill" xmlns="http://www.w3.org/2000/svg" width="24" height="24" viewBox="0 0 24 24">
  <g id="Canvas">
    <rect id="Brand_Icon_Asset_Canvas" data-name="Brand/Icon/Asset/Canvas" width="24" height="24" fill="rgba(0,0,0,0)"/>
  </g>
  <path id="Icon" d="M-6028,16a2,2,0,0,1-2-2V2a1.977,1.977,0,0,1,.281-1.006l10.406,8.394a.492.492,0,0,0,.313.11.5.5,0,0,0,.314-.11l10.4-8.394A1.977,1.977,0,0,1-6008,2V14a2,2,0,0,1-2,2ZM-6029.01.283A1.977,1.977,0,0,1-6028,0h18a1.994,1.994,0,0,1,1.009.281L-6019,8.357Z" transform="translate(6031 4)"/>
</svg>
