<svg xmlns="http://www.w3.org/2000/svg" data-name="Icon Phone Outline" width="24" height="24">
  <defs>
    <mask id="a">
      <path d="M18.272 23a2.915 2.915 0 0 0 1.233-.7 13.958 13.958 0 0 0 2.162-2.428 1.833 1.833 0 0 0 .244-.5 1.333 1.333 0 0 0-.571-1.635l-3.926-2.61a1.761 1.761 0 0 0-.508-.242 1.167 1.167 0 0 0-.344-.049 1.983 1.983 0 0 0-.967.282 31.59 31.59 0 0 0-.749.416l-.867.5-.321.184-.27-.253c-.274-.258-.56-.505-.99-.863l-.717-.637c-.494-.441-.858-.78-1.2-1.126a20.24 20.24 0 0 1-.749-.793 47.793 47.793 0 0 1-.446-.505l-.465-.537-1.089-1.224.193-.315c.153-.251.3-.511.508-.881.048-.087.218-.394.267-.48a4.11 4.11 0 0 0 .342-.661 1.225 1.225 0 0 0-.1-1.156 282.605 282.605 0 0 1-2.814-4.281A1.08 1.08 0 0 0 5.363 2h-.3a1.7 1.7 0 0 0-1.112.413l-.135.087c-.559.449-.858.7-1.187.991a7.267 7.267 0 0 0-1.361 1.561 1.4 1.4 0 0 0-.263.926L1 6.087a11.587 11.587 0 0 0 .313 1.477 13.7 13.7 0 0 0 2.049 4.076 37.28 37.28 0 0 0 5.416 6.11 27.362 27.362 0 0 0 4.766 3.673 11.248 11.248 0 0 0 3.751 1.5c.184.037.368.065.5.08z" stroke="#fff"/>
    </mask>
  </defs>
  <path mask="url(#a)" d="M0 0h24v24H0z"/>
</svg>
