<svg xmlns="http://www.w3.org/2000/svg" width="22" height="22" viewBox="0 0 22 22"><defs><style>.a{fill:rgba(0,0,0,0);}.b{fill:#fff;}.c{fill:none;stroke:#fff;stroke-linecap:round;}</style></defs><g transform="translate(-75 -168.045)"><g transform="translate(75 168.045)"><rect class="a" width="22" height="22"/></g><g transform="translate(76.783 169.236)"><path class="b" d="M.941,20.1A.928.928,0,0,1,0,19.184V7.524a.884.884,0,0,1,.1-.408L3.505.5A.942.942,0,0,1,4.346,0H14.477a.942.942,0,0,1,.842.505l3.405,6.61a.892.892,0,0,1,.1.408v11.66a.928.928,0,0,1-.942.913Zm0-12.574V19.184H17.882V7.524l-.111-.216H1.052ZM17.3,6.394,14.477.913h-4.6V6.394Zm-8.359,0V.913H4.346L1.523,6.394Z"/></g><line class="c" x2="4.456" y2="4.456" transform="translate(83.978 180.392)"/><line class="c" x1="4.456" y2="4.456" transform="translate(83.978 180.392)"/></g></svg>
