<svg id="Icon_Profile_Outline" data-name="Icon Profile Outline" xmlns="http://www.w3.org/2000/svg" width="24" height="24" viewBox="0 0 24 24">
  <g id="Canvas">
    <rect id="Brand_Icon_Asset_Canvas" data-name="Brand/Icon/Asset/Canvas" width="24" height="24" fill="rgba(0,0,0,0)"/>
  </g>
  <path id="Icon" d="M-6030,20l.05-.95A7.659,7.659,0,0,1-6022.339,12h6.658v.05a7.658,7.658,0,0,1,7.611,7l.071.95Zm1.05-1h19.87a6.661,6.661,0,0,0-6.6-6h-6.658A6.671,6.671,0,0,0-6028.95,19ZM-6024,5a5,5,0,0,1,5-5,5,5,0,0,1,5,5,5,5,0,0,1-5,5A5,5,0,0,1-6024,5Zm1,0a4,4,0,0,0,4,4,4,4,0,0,0,4-4,4,4,0,0,0-4-4A4,4,0,0,0-6023,5Z" transform="translate(6031 2)"/>
</svg>
