<?xml version="1.0" encoding="utf-8"?>
<svg xmlns="http://www.w3.org/2000/svg" width="20.002" height="20.001" viewBox="0 0 20.002 20.001">
  <g id="home_ico" transform="translate(0.001 0)">
    <path id="Path_2028" data-name="Path 2028" d="M19.545,20.025H11.364a.43.43,0,0,1-.455-.455V14.564H9.091V19.57a.43.43,0,0,1-.455.455H.455A.43.43,0,0,1,0,19.57V6.828a.473.473,0,0,1,.182-.364L9.727.093a.579.579,0,0,1,.545,0l9.545,6.371A.473.473,0,0,1,20,6.828V19.57a.43.43,0,0,1-.455.455Zm-7.727-.91h7.273V7.1L10,1,.909,7.1V19.115H8.182V14.109a.43.43,0,0,1,.455-.455h2.727a.43.43,0,0,1,.455.455Z" transform="translate(0 -0.025)"/>
  </g>
</svg>
