<svg xmlns="http://www.w3.org/2000/svg" width="20" height="20" viewBox="0 0 20 20">
  <g id="tools-and-utensils_1_" data-name="tools-and-utensils (1)" transform="translate(0.741 3.5)">
    <path id="Path_2119" data-name="Path 2119" d="M100.628,3H88.372A.374.374,0,0,1,88,2.625V1.65A1.643,1.643,0,0,1,89.637,0h9.726A1.643,1.643,0,0,1,101,1.65v.975A.374.374,0,0,1,100.628,3Z" transform="translate(-85.241 -3)" fill="none" stroke="#7e7e7e" stroke-width="1"/>
    <path id="Path_2120" data-name="Path 2120" d="M17,112H2a2.008,2.008,0,0,0-2,2.007v6.986A2.008,2.008,0,0,0,2,123H3.266v-2.973a2.677,2.677,0,0,1,2.672-2.676h7.125a2.677,2.677,0,0,1,2.672,2.676V123H17a2.008,2.008,0,0,0,2-2.007v-6.986A2.008,2.008,0,0,0,17,112ZM3.563,116.459a.892.892,0,1,1,0-1.784h0a.892.892,0,1,1,0,1.784Z" transform="translate(-0.241 -110)" fill="none" stroke="#7e7e7e" stroke-width="1"/>
    <path id="Path_2121" data-name="Path 2121" d="M144.1,304h-6.2a.9.9,0,0,0-.9.9v4.2a.9.9,0,0,0,.9.9h6.2a.9.9,0,0,0,.9-.9v-4.2a.9.9,0,0,0-.9-.9Z" transform="translate(-131.741 -294)" fill="none" stroke="#7e7e7e" stroke-width="1"/>
  </g>
</svg>
