<svg xmlns="http://www.w3.org/2000/svg" width="20.002" height="20.002" viewBox="0 0 20.002 20.002">
  <g id="Group_1654" data-name="Group 1654" transform="translate(-1115.998 -115)">
    <path id="Path_1832" data-name="Path 1832" d="M0,0H20V20H0Z" transform="translate(1116 115)" fill="rgba(255,255,255,0)"/>
    <path id="Union_3" data-name="Union 3" d="M12528.486-4792a3.609,3.609,0,0,1-3.487-3.712v-12.574a3.612,3.612,0,0,1,3.487-3.715h4.978a.554.554,0,0,1,.389.177.555.555,0,0,1,.147.4.553.553,0,0,1-.536.569h-4.978a2.5,2.5,0,0,0-2.411,2.569v12.574a2.5,2.5,0,0,0,2.411,2.566h4.9a.558.558,0,0,1,.539.573.553.553,0,0,1-.15.4.552.552,0,0,1-.388.175Zm10.943-5.179a.641.641,0,0,1,0-.866l2.638-2.843h-11.5a.591.591,0,0,1-.411-.189.593.593,0,0,1-.156-.425.589.589,0,0,1,.567-.609h11.5l-2.638-2.843a.641.641,0,0,1,0-.866.541.541,0,0,1,.4-.177.539.539,0,0,1,.4.177l3.6,3.885a.648.648,0,0,1,0,.872l-3.6,3.885a.537.537,0,0,1-.4.179.557.557,0,0,1-.4-.181Z" transform="translate(-11408.999 4927.002)"/>
  </g>
</svg>
