<svg id="Icon_Tooltip_Outline_Large" data-name="Icon Tooltip Outline Large" xmlns="http://www.w3.org/2000/svg" width="24" height="24" viewBox="0 0 24 24">
  <g id="Canvas">
    <rect id="Brand_Icon_Asset_Canvas" data-name="Brand/Icon/Asset/Canvas" width="24" height="24" fill="rgba(0,0,0,0)"/>
  </g>
  <path id="Icon" d="M-6030,10a10,10,0,0,1,10-10,10,10,0,0,1,10,10,10,10,0,0,1-10,10A10,10,0,0,1-6030,10Zm1,0a9.01,9.01,0,0,0,9,9,9.01,9.01,0,0,0,9-9,9.009,9.009,0,0,0-9-9A9.009,9.009,0,0,0-6029,10Zm7.754,5.342a.5.5,0,0,1-.5-.5.5.5,0,0,1,.5-.5h1V8.711h-1a.5.5,0,0,1-.5-.5.5.5,0,0,1,.5-.5h1.5a.5.5,0,0,1,.5.5v6.131h1a.5.5,0,0,1,.5.5.5.5,0,0,1-.5.5Zm.052-9.92a1,1,0,0,1,1-1,1,1,0,0,1,1,1,1,1,0,0,1-1,1A1,1,0,0,1-6021.194,5.422Z" transform="translate(6032 2)"/>
</svg>
