<svg id="Icon_Wedding_Registry_Outline" data-name="Icon Wedding Registry Outline" xmlns="http://www.w3.org/2000/svg" width="24" height="24" viewBox="0 0 24 24">
  <g id="Canvas">
    <rect id="Brand_Icon_Asset_Canvas" data-name="Brand/Icon/Asset/Canvas" width="24" height="24" fill="rgba(0,0,0,0)"/>
  </g>
  <path id="Icon" d="M-6030,22V18a2,2,0,0,1,2-2h1V13a2,2,0,0,1,2-2h1.5V8.5a1.446,1.446,0,0,1,.38-1.037,1.437,1.437,0,0,1,1-.463h6.241a1.437,1.437,0,0,1,1,.463A1.438,1.438,0,0,1-6014.5,8.5V11h1.5a2,2,0,0,1,2,2v3h1a2,2,0,0,1,2,2v4Zm1-4v3h20V18a1,1,0,0,0-1-1h-18A1,1,0,0,0-6029,18Zm17-2V13a1,1,0,0,0-1-1h-12a1,1,0,0,0-1,1v3Zm-3.5-5V8.5c0-.271-.171-.5-.38-.5h-6.241c-.21,0-.38.23-.38.5V11Zm-3.5-6.421-1.84,1.41.7-2.279L-6022,2.29h2.3L-6019,0l.709,2.29h2.29l-1.85,1.41.71,2.3Z" transform="translate(6031 1)"/>
</svg>
