<svg id="Shape" xmlns="http://www.w3.org/2000/svg" width="15" height="15" viewBox="0 0 15 15">
  <path id="Path_51" data-name="Path 51" d="M.58,5.592l2.345-.6a.251.251,0,0,1,.294.235.22.22,0,0,1,.007.066V15h8.548V5.3a.283.283,0,0,1,.25-.309.187.187,0,0,1,.07.009l2.325.594L15,2.305,10.242,0a3.683,3.683,0,0,1-.79,1.93A2.54,2.54,0,0,1,7.5,2.916,2.534,2.534,0,0,1,5.548,1.93,3.629,3.629,0,0,1,4.758,0L0,2.305Z" fill="none"/>
  <path id="Path_52" data-name="Path 52" d="M10.9,1.431a4.424,4.424,0,0,1-.677,1.135A3.51,3.51,0,0,1,7.5,3.916,3.5,3.5,0,0,1,4.779,2.569,4.386,4.386,0,0,1,4.1,1.432L1.116,2.876l.262,1.481,1.3-.33a1.2,1.2,0,0,1,.306-.04A1.255,1.255,0,0,1,4.2,5.015a1.223,1.223,0,0,1,.03.28V14h6.548V5.3a1.282,1.282,0,0,1,1.25-1.309,1.2,1.2,0,0,1,.353.052l1.245.318.261-1.481L10.9,1.431M4.758,0a3.629,3.629,0,0,0,.79,1.93A2.534,2.534,0,0,0,7.5,2.916,2.54,2.54,0,0,0,9.452,1.93,3.683,3.683,0,0,0,10.242,0L15,2.305l-.58,3.287L12.094,5a.187.187,0,0,0-.071-.012.283.283,0,0,0-.25.309V15H3.226V5.3a.22.22,0,0,0-.007-.066.264.264,0,0,0-.24-.242.2.2,0,0,0-.054.007l-2.345.6L0,2.305Z" fill="#7e7e7e"/>
</svg>
