<svg version="1.1" id="Layer_1" xmlns="http://www.w3.org/2000/svg" xmlns:xlink="http://www.w3.org/1999/xlink" x="0px" y="0px"
	 viewBox="0 0 24 24" style="enable-background:new 0 0 24 24;" xml:space="preserve">
<g id="surface1">
	<path d="M17.1,10.3h-3.9V4.5c0-0.1,0-0.1,0-0.2c0-0.1-0.1-0.1-0.1-0.1c0,0-0.1-0.1-0.1-0.1c-0.1,0-0.1,0-0.2,0H5
		c-0.1,0-0.1,0-0.2,0c-0.1,0-0.1,0.1-0.1,0.1c0,0-0.1,0.1-0.1,0.1c0,0.1,0,0.1,0,0.2v5.8h-2c-0.7,0-1.3,0.3-1.8,0.8
		C0.3,11.6,0,12.3,0,12.9v5.7c0,0.1,0,0.1,0,0.2c0,0.1,0.1,0.1,0.1,0.1c0,0,0.1,0.1,0.1,0.1c0.1,0,0.1,0,0.2,0h2.6v4.5
		c0,0.1,0,0.1,0,0.2c0,0.1,0.1,0.1,0.1,0.2c0,0,0.1,0.1,0.1,0.1c0.1,0,0.1,0,0.2,0h12.2c0.1,0,0.1,0,0.2,0c0.1,0,0.1-0.1,0.1-0.1
		c0,0,0.1-0.1,0.1-0.2c0-0.1,0-0.1,0-0.2v-4.5h3.1c0.1,0,0.1,0,0.2,0c0.1,0,0.1-0.1,0.1-0.1c0,0,0.1-0.1,0.1-0.1c0-0.1,0-0.1,0-0.2
		v-5.7c0-0.7-0.3-1.4-0.8-1.9C18.4,10.6,17.8,10.3,17.1,10.3z M5.4,4.9h6.9v5.4H5.4V4.9z M15.3,23.1H4v-7.2h11.3V23.1z M18.8,18.2
		h-2.6v-2.7c0-0.1,0-0.1,0-0.2c0-0.1-0.1-0.1-0.1-0.1c0,0-0.1-0.1-0.1-0.1c-0.1,0-0.1,0-0.2,0H3.5c-0.1,0-0.1,0-0.2,0
		c-0.1,0-0.1,0.1-0.1,0.1c0,0-0.1,0.1-0.1,0.1c0,0.1,0,0.1,0,0.2v2.7H0.9v-5.2c0-0.5,0.2-0.9,0.5-1.2c0.3-0.3,0.7-0.5-0.8-0.5h14.6
		c2.4,0,2.9,0.2,3.2,0.5c0.3,0.3,0.5,0.8,0.5,1.2V18.2z"/>
	<path d="M13.4,17H6.2c-0.1,0-0.2,0-0.3,0.1c-0.1,0.1-0.1,0.2-0.1,0.3s0,0.2,0.1,0.3C6,17.9,6.1,18,6.2,18h7.2c0.1,0,0.2,0,0.3-0.1
		c0.1-0.1,0.1-0.2,0.1-0.3s0-0.2-0.1-0.3C13.7,17.1,13.5,17,13.4,17z"/>
	<path d="M13.4,19.1H6.2c-0.1,0-0.2,0-0.3,0.1c-0.1,0.1-0.1,0.2-0.1,0.3c0,0.1,0,0.2,0.1,0.3C6,19.9,6.1,20,6.2,20h7.2
		c0.1,0,0.2,0,0.3-0.1c0.1-0.1,0.1-0.2,0.1-0.3c0-0.1,0-0.2-0.1-0.3C13.7,19.1,13.5,19.1,13.4,19.1z"/>
	<path d="M13.4,21.1H6.2c-0.1,0-0.2,0-0.3,0.1c-0.1,0.1-0.1,0.2-0.1,0.3s0,0.2,0.1,0.3C6,21.9,6.1,22,6.2,22h7.2
		c0.1,0,0.2,0,0.3-0.1c0.1-0.1,0.1-0.2,0.1-0.3s0-0.2-0.1-0.3C13.7,21.1,13.5,21.1,13.4,21.1z"/>
	<path d="M3.1,11.7c-0.2,0-0.4,0.1-0.6,0.2c-0.2,0.1-0.3,0.3-0.4,0.5c-0.1,0.2-0.1,0.4-0.1,0.6c0,0.2,0.1,0.4,0.3,0.5
		c0.1,0.1,0.3,0.2,0.5,0.3c0.2,0,0.4,0,0.6-0.1c0.2-0.1,0.3-0.2,0.5-0.4c0.1-0.2,0.2-0.4,0.2-0.6c0-0.3-0.1-0.5-0.3-0.7
		C3.6,11.8,3.3,11.7,3.1,11.7z M2.9,12.7C2.9,12.7,3,12.7,2.9,12.7C3,12.6,3,12.6,3.1,12.6c0,0,0.1,0,0.1,0c0,0,0,0.1,0,0.1
		C3.2,12.9,2.9,12.9,2.9,12.7z"/>
	<path d="M17.8,0c-3.4,0-6.2,2.8-6.2,6.3s2.8,6.3,6.2,6.3c3.4,0,6.2-2.8,6.2-6.3S21.2,0,17.8,0z M17.9,9.1c-0.5,0-1-0.1-1.4-0.4
		c-0.1-0.1-0.1-0.2-0.1-0.3c0.1-0.1,0.2-0.2,0.3-0.1c0.3,0.2,0.8,0.3,1.2,0.3c1.2,0,2.2-1,2.2-2.3c0-0.7-0.3-1.3-0.8-1.7
		c-0.4-0.3-0.9-0.5-1.4-0.5c-1.2,0-2.2,1-2.2,2.3h0.5l-0.7,1l-0.7-1h0.5c0-1.5,1.2-2.8,2.7-2.8c0.6,0,1.3,0.2,1.7,0.7
		c0.6,0.5,1,1.3,1,2.1C20.7,7.9,19.4,9.1,17.9,9.1z"/>
</g>
</svg>