<svg id="Icon_Wifi" data-name="Icon Wifi" xmlns="http://www.w3.org/2000/svg" width="24" height="24" viewBox="0 0 24 24">
  <g id="Canvas">
    <rect id="Brand_Icon_Asset_Canvas" data-name="Brand/Icon/Asset/Canvas" width="24" height="24" fill="rgba(0,0,0,0)"/>
  </g>
  <path id="Icon" d="M-6019.982,15.571a1,1,0,0,1,1-1,1,1,0,0,1,1,1,1,1,0,0,1-1,1A1,1,0,0,1-6019.982,15.571Zm-2.536-3.14a.445.445,0,0,1-.3-.191.478.478,0,0,1,.089-.649,6.238,6.238,0,0,1,7.5,0,.452.452,0,0,1,.186.3.451.451,0,0,1-.1.345.468.468,0,0,1-.37.191.435.435,0,0,1-.28-.091,5.339,5.339,0,0,0-6.38,0,.448.448,0,0,1-.277.1A.436.436,0,0,1-6022.518,12.431Zm10.5-3.68h0Zm.045,0,.019,0,.026,0Zm-.256-.12a10.18,10.18,0,0,0-13.43,0,.51.51,0,0,1-.66-.091.47.47,0,0,1,0-.61,11.1,11.1,0,0,1,14.651,0,.483.483,0,0,1,0,.66.411.411,0,0,1-.287.159A.47.47,0,0,1-6012.232,8.631ZM-6029.876,4.9a.464.464,0,0,1,.024-.655,16,16,0,0,1,21.721,0,.467.467,0,0,1,.139.33.468.468,0,0,1-.139.331.427.427,0,0,1-.31.139.448.448,0,0,1-.3-.12,15.072,15.072,0,0,0-20.481,0,.457.457,0,0,1-.313.123A.463.463,0,0,1-6029.876,4.9Z" transform="translate(6031 4)"/>
</svg>
