<svg xmlns="http://www.w3.org/2000/svg" width="24" height="24">
  <path d="M23.255 15.254h-3.322v-7.15a.476.476 0 0 0-.475-.477h-3.322V.477A.476.476 0 0 0 15.661 0H8.068a.476.476 0 0 0-.475.477v7.15H4.272a.476.476 0 0 0-.475.477v7.15H.475a.475.475 0 0 0-.475.477v7.627c0 .263.212.477.475.477h22.78a.476.476 0 0 0 .474-.477v-7.627a.475.475 0 0 0-.474-.477zm-4.558.954H20.22v1.802l-.416-.445a.473.473 0 0 0-.692 0l-.415.445v-1.802zm.287-.954h-6.645V8.581h1.612v3.009a.473.473 0 0 0 .82.326l.89-.955.89.955a.472.472 0 0 0 .52.117.477.477 0 0 0 .301-.443V8.58h1.612v6.674zm-7.88.954h1.522v1.802l-.415-.445a.473.473 0 0 0-.692 0l-.416.445v-1.802zm5.319-5.825-.415-.445a.473.473 0 0 0-.693 0l-.415.445V8.581H16.423v1.802zM12.626.953v1.803l-.415-.445a.473.473 0 0 0-.692 0l-.416.445V.953h1.523zm-4.083 0h1.611v3.01a.473.473 0 0 0 .82.326l.89-.955.89.954a.472.472 0 0 0 .521.118.477.477 0 0 0 .3-.443V.953h1.612v6.674H8.543V.953zm-.475 7.628h.761v1.802l-.415-.445a.473.473 0 0 0-.692 0l-.415.445V8.581h.761zm-3.322 0h1.611v3.009a.473.473 0 0 0 .82.326h.001l.89-.955.89.955a.472.472 0 0 0 .52.117.477.477 0 0 0 .3-.443V8.58h1.612v6.674H4.746V8.581zm-.475 7.627h.762v1.802l-.416-.445a.473.473 0 0 0-.692 0l-.415.445v-1.802h.761zm-3.322 0h1.612v3.009c0 .196.119.371.3.443a.472.472 0 0 0 .52-.117l.89-.955.89.955a.472.472 0 0 0 .52.117.477.477 0 0 0 .3-.443v-3.01h1.612v6.674H.95v-6.673zm7.594 0h1.611v3.009a.472.472 0 0 0 .82.326l.89-.955.89.955a.472.472 0 0 0 .521.117.477.477 0 0 0 .3-.443v-3.01h1.612v6.674H8.543v-6.673zM22.78 22.88h-6.644v-6.673h1.612v3.009a.472.472 0 0 0 .82.326l.89-.955.89.955a.472.472 0 0 0 .82-.326v-3.01h1.612v6.674z" />
</svg>
