<svg id="Icon_Link" data-name="Icon Link" xmlns="http://www.w3.org/2000/svg" width="24" height="24" viewBox="0 0 24 24">
  <g id="Canvas">
    <rect id="Brand_Icon_Asset_Canvas" data-name="Brand/Icon/Asset/Canvas" width="24" height="24" fill="rgba(0,0,0,0)"/>
  </g>
  <path id="Icon" d="M3.708,16.346A5,5,0,0,1,2.5,7.187l3.459-2a5,5,0,0,1,3.8-.5,4.9,4.9,0,0,1,3,2.329.5.5,0,0,1-.86.5,4.111,4.111,0,0,0-5.44-1.471L3,8.047a4,4,0,0,0,4,6.93l3.461-2a.519.519,0,0,1,.688.189.5.5,0,0,1-.189.68l-3.459,2a5,5,0,0,1-3.791.5Zm7.791-4.5a4.945,4.945,0,0,1-3-2.331.5.5,0,0,1,.861-.5,4.1,4.1,0,0,0,5.47,1.46l3.459-2a4,4,0,0,0-4-6.93l-3.459,2a.511.511,0,0,1-.69-.179.5.5,0,0,1,.191-.681l3.459-2a5,5,0,1,1,5,8.66l-3.46,2a5,5,0,0,1-3.83.5Z" transform="translate(1 4)"/>
</svg>
