<svg xmlns="http://www.w3.org/2000/svg" width="22.008" height="20" viewBox="0 0 22.008 20">
  <g id="Group_1" data-name="Group 1" transform="translate(-635.996 -2219)">
    <path id="Path_2032" data-name="Path 2032" d="M20.686,1.108v14.4H3.1V1.108H20.686M21.785,0H2V15.506a1.1,1.1,0,0,0,1.1,1.108H20.686a1.1,1.1,0,0,0,1.1-1.108Z" transform="translate(635.108 2219)"/>
    <path id="Path_2033" data-name="Path 2033" d="M21.45,1.108H.55A.554.554,0,0,1,.55,0h20.9a.554.554,0,1,1,0,1.108Z" transform="translate(636 2219)"/>
    <path id="Path_2034" data-name="Path 2034" d="M19.554,32.323A.554.554,0,0,1,19,31.769V29.554a.554.554,0,0,1,1.108,0v2.215A.554.554,0,0,1,19.554,32.323Z" transform="translate(627.446 2206.124)"/>
    <path id="Path_2035" data-name="Path 2035" d="M19.984,35.108h-4.43a.554.554,0,1,1,0-1.108h4.43a.554.554,0,0,1,0,1.108Z" transform="translate(629.231 2203.892)"/>
    <path id="Path_2036" data-name="Path 2036" d="M13.8,7.876l2.769,1.567,2.713,1.523-2.713,1.528L13.8,14.056V7.876m-.371-1.4a.714.714,0,0,0-.714.714v7.53a.714.714,0,0,0,.714.714.692.692,0,0,0,.354-.094l3.361-1.894,3.323-1.866a.714.714,0,0,0,0-1.246L17.14,8.462,13.757,6.574a.692.692,0,0,0-.333-.094Z" transform="translate(630.756 2216.129)"/>
  </g>
</svg>
