<svg width="20" height="20" viewBox="0 0 20 20" fill="none" xmlns="http://www.w3.org/2000/svg">
<rect width="20" height="20" fill="black" fill-opacity="0.01"/>
<g clip-path="url(#clip0_1099_8912)">
<g clip-path="url(#clip1_1099_8912)">
<mask id="mask0_1099_8912" style="mask-type:alpha" maskUnits="userSpaceOnUse" x="0" y="0" width="20" height="20">
<rect x="0.415009" y="0.410004" width="19.1596" height="18.9859" fill="black"/>
</mask>
<g mask="url(#mask0_1099_8912)">
<path fill-rule="evenodd" clip-rule="evenodd" d="M0.415009 19.3801V18.9019C0.582021 16.7822 2.35686 15.1491 4.48642 15.1557H7.99901C10.1005 15.1456 11.8644 16.734 12.0704 18.8221V19.3004L0.415009 19.3801ZM1.53265 18.5033H11.0326C10.7912 16.9888 9.45408 15.8933 7.91918 15.9527H4.72592C3.18434 15.9217 1.84072 16.9949 1.53265 18.5033ZM3.60827 11.4892C3.60827 10.0366 4.78775 8.85895 6.24271 8.85895C7.69768 8.85895 8.87715 10.0366 8.87715 11.4892C8.87715 12.9419 7.69768 14.1195 6.24271 14.1195C4.78775 14.1195 3.60827 12.9419 3.60827 11.4892ZM4.48642 11.4892C4.48642 12.4577 5.27274 13.2427 6.24271 13.2427C7.21269 13.2427 7.999 12.4577 7.999 11.4892C7.999 10.5208 7.21269 9.7357 6.24271 9.7357C5.27274 9.7357 4.48642 10.5208 4.48642 11.4892Z" fill="#040504"/>
<path d="M9.35632 8.77884C9.98005 7.9897 10.9068 7.49812 11.9109 7.42384H15.5832C17.0436 7.52179 18.2716 8.55426 18.6168 9.97442H10.0748L10.2345 10.8512H19.5748V10.3729C19.3687 8.28485 17.6048 6.69637 15.5033 6.70648H11.9109C10.6575 6.71873 9.47954 7.30677 8.71765 8.30059L9.35631 8.77883" fill="#040504"/>
<path fill-rule="evenodd" clip-rule="evenodd" d="M13.7471 0.410004C12.2921 0.410004 11.1126 1.58762 11.1126 3.04029C11.1126 4.49296 12.2921 5.67057 13.7471 5.67057C15.202 5.67057 16.3815 4.49296 16.3815 3.04029C16.3815 1.58762 15.202 0.410004 13.7471 0.410004ZM13.7471 4.87352C12.7771 4.87352 11.9908 4.08844 11.9908 3.12C11.9918 2.16215 12.7624 1.38233 13.7217 1.36847C14.6809 1.35461 15.4738 2.11186 15.5026 3.06927C15.5313 4.02669 14.7853 4.82999 13.8269 4.87353" fill="#040504"/>
<path d="M16.7005 13.1631C16.6791 13.5971 16.5985 14.0262 16.461 14.4384L17.0199 14.6776C17.193 14.2166 17.3005 13.7337 17.3392 13.2429L16.7005 13.1631Z" fill="#040504"/>
<path d="M16.5409 11.4893H16.461C16.5466 11.8019 16.6001 12.1223 16.6207 12.4458H17.1795C17.16 12.096 17.1065 11.749 17.0199 11.4096L16.5409 11.4893Z" fill="#040504"/>
<path d="M16.2215 14.9167L15.6627 15.7935L16.0618 16.192C16.3142 15.8724 16.5285 15.5247 16.7005 15.1558L16.2215 14.9167Z" fill="#040504"/>
<path d="M15.2635 16.2713L14.2257 16.9886L14.4652 17.4669C14.9033 17.2317 15.3063 16.9365 15.6627 16.5901L15.2635 16.2713Z" fill="#040504"/>
<path d="M12.3896 18.105L13.8265 17.7862L13.587 17.3079L12.1501 17.6267L12.3097 18.105" fill="#040504"/>
</g>
</g>
</g>
<defs>
<clipPath id="clip0_1099_8912">
<rect width="20" height="19.8438" fill="white"/>
</clipPath>

<clipPath id="clip1_1099_8912">
<rect width="19.1596" height="18.9859" fill="white" transform="translate(0.415009 0.410004)"/>
</clipPath>
</defs>
</svg>
