<svg xmlns="http://www.w3.org/2000/svg" width="19" height="19">
  <defs>
    <mask id="a">
      <path d="M9.5 0A9.5 9.5 0 1 0 19 9.5 9.5 9.5 0 0 0 9.5 0z" fill="#fff"/>
      <path d="M7.804 15.39a.678.678 0 0 1-.679-.679.7.7 0 0 1 .68-.679h1.356V9.106H7.804a.678.678 0 0 1-.679-.679.691.691 0 0 1 .679-.679h2.037a.678.678 0 0 1 .677.679v5.6h1.358a.678.678 0 0 1 .679.679.678.678 0 0 1-.679.679zm.083-10.749a1.356 1.356 0 0 1 1.357-1.357A1.357 1.357 0 0 1 10.6 4.641a1.356 1.356 0 0 1-1.356 1.357 1.358 1.358 0 0 1-1.357-1.357z" fill="#0"/>
    </mask>
  </defs>
  <path mask="url(#a)" d="M0 0h19v19H0z"/>
</svg>
