<svg id="Icon_Thumbs_Down_Outline" data-name="Icon Thumbs Down Outline" xmlns="http://www.w3.org/2000/svg" width="24" height="24" viewBox="0 0 24 24">
  <g id="Canvas">
    <rect id="Brand_Icon_Asset_Canvas" data-name="Brand/Icon/Asset/Canvas" width="24" height="24" fill="rgba(0,0,0,0)"/>
  </g>
  <path id="Icon" d="M1.033,11.127v-9.3a.247.247,0,0,1,.259-.258H5.431a.247.247,0,0,1,.259.258v9.3a.247.247,0,0,1-.259.258H1.292a.247.247,0,0,1-.259-.258Zm11.084,8.139c-.487,1.009-1.883,1.445-2.229-.138a13.681,13.681,0,0,0-3.165-8.8V2.269A12.311,12.311,0,0,1,7.814,1.43a2.446,2.446,0,0,1,1.138-.324C10.069.991,12.3,1.066,17.1,1.05A3.064,3.064,0,0,1,18.221,2.6H17.053a.538.538,0,0,0-.525.517.541.541,0,0,0,.525.517h1.791A2.538,2.538,0,0,1,19.319,5.7h-1.75a.517.517,0,1,0,0,1.033h2.308A2.532,2.532,0,0,1,20.353,8.8H18.086a.517.517,0,1,0,0,1.034h2.332a1.755,1.755,0,0,1,.541,1.356,1.227,1.227,0,0,1-.687.969H13.183a.541.541,0,0,0-.508.614,10.34,10.34,0,0,1-.558,6.492ZM10.809,21.2a1.837,1.837,0,0,0,.339-.015,2.656,2.656,0,0,0,1.865-1.414,10.638,10.638,0,0,0,.751-6.58h6.654a2.209,2.209,0,0,0,1.566-1.89,2.73,2.73,0,0,0-.678-2.067,3.592,3.592,0,0,0-.743-3.342.536.536,0,0,0-.185-.146,3.7,3.7,0,0,0-.849-2.955.509.509,0,0,0-.25-.169A4.268,4.268,0,0,0,17.64.138a.516.516,0,0,0-.323-.121c-4.99.021-7.152-.08-8.47.056A3.645,3.645,0,0,0,7.281.549a6.95,6.95,0,0,0-.775.566A1.3,1.3,0,0,0,5.431.533H1.292A1.3,1.3,0,0,0,0,1.825v9.3a1.3,1.3,0,0,0,1.292,1.292H5.431A1.292,1.292,0,0,0,6.522,11.8a11.75,11.75,0,0,1,2.333,7.364,2.113,2.113,0,0,0,1.616,1.994,2.014,2.014,0,0,0,.338.041Z" transform="translate(1 1)" fill-rule="evenodd"/>
</svg>
