<?xml version="1.0" encoding="UTF-8"?>
<svg width="24px" height="24px" viewBox="0 0 24 24" version="1.1" xmlns="http://www.w3.org/2000/svg" xmlns:xlink="http://www.w3.org/1999/xlink">
    <!-- Generator: Sketch 51.3 (57544) - http://www.bohemiancoding.com/sketch -->
    <title>icon-chat-o-bk</title>
    <desc>Created with Sketch.</desc>
    <defs></defs>
    <g id="icon-chat-o-bk" stroke="none" stroke-width="1" fill="none" fill-rule="evenodd">
        <g transform="translate(1.000000, 2.000000)" fill="#000000" fill-rule="nonzero">
            <path d="M20,6 L18,6 L18,2 C18,0.8954305 17.1045695,0 16,0 L2,0 C0.8954305,0 2.22044605e-16,0.8954305 0,2 L0,11 C2.22044605e-16,12.1045695 0.8954305,13 2,13 L3,13 L3,15 C3,15.5522847 3.44771525,16 4,16 C4.2129454,15.997856 4.41964583,15.9277881 4.59,15.8 C4.74,15.7 8,13 8,13 L9,13 L9,15 C9,16.1045695 9.8954305,17 11,17 L14,17 C14,17 17.26,19.7 17.4,19.8 C17.5730962,19.9298221 17.7836298,20 18,20 C18.5522847,20 19,19.5522847 19,19 L19,17 L20,17 C21.1045695,17 22,16.1045695 22,15 L22,8 C22,6.8954305 21.1045695,6 20,6 Z M7.64,12 L7.36,12.23 C6.09,13.28 4.15,14.89 4,15 L4,12 L2,12 C1.44771525,12 1,11.5522847 1,11 L1,2 C1,1.44771525 1.44771525,1 2,1 L16,1 C16.5522847,1 17,1.44771525 17,2 L17,11 C17,11.5522847 16.5522847,12 16,12 L7.64,12 Z M21,15 C21,15.5522847 20.5522847,16 20,16 L18,16 L18,19 C17.84,18.88 15.9,17.27 14.63,16.22 L14.36,16 L11,16 C10.4477153,16 10,15.5522847 10,15 L10,13 L16,13 C17.1045695,13 18,12.1045695 18,11 L18,7 L20,7 C20.5522847,7 21,7.44771525 21,8 L21,15 Z" id="Shape"></path>
            <path d="M11.5,5 L3.5,5 C3.22385763,5 3,4.77614237 3,4.5 C3,4.22385763 3.22385763,4 3.5,4 L11.5,4 C11.7761424,4 12,4.22385763 12,4.5 C12,4.77614237 11.7761424,5 11.5,5 Z" id="Path"></path>
            <path d="M7.5,8 L3.5,8 C3.22385763,8 3,7.77614237 3,7.5 C3,7.22385763 3.22385763,7 3.5,7 L7.5,7 C7.77614237,7 8,7.22385763 8,7.5 C8,7.77614237 7.77614237,8 7.5,8 Z" id="Path"></path>
        </g>
    </g>
</svg>