<svg width="24" height="24" viewBox="0 0 90 90" fill="none" xmlns="http://www.w3.org/2000/svg">
<path opacity="0.2" fill-rule="evenodd" clip-rule="evenodd" d="M45 0C20.1472 0 0 20.1472 0 45C0 69.8529 20.1472 90 45 90C69.8529 90 90 69.8529 90 45C90 20.1472 69.8529 0 45 0ZM5.625 45C5.625 23.2538 23.2538 5.625 45 5.625C66.7462 5.625 84.375 23.2538 84.375 45C84.375 66.7462 66.7462 84.375 45 84.375C23.2538 84.375 5.625 66.7462 5.625 45ZM41.3637 23.0825C42.462 21.9841 42.462 20.2034 41.3637 19.105C40.2654 18.0067 38.4846 18.0067 37.3863 19.105L24.73 31.7613C23.6317 32.8596 23.6317 34.6404 24.73 35.7387L37.3863 48.395C38.4846 49.4932 40.2654 49.4932 41.3637 48.395C42.462 47.2967 42.462 45.5158 41.3637 44.4175L33.5087 36.5625H55.5469C61.3718 36.5625 66.0938 41.2844 66.0938 47.1094C66.0938 52.9343 61.3718 57.6562 55.5469 57.6562H26.7188C25.1654 57.6562 23.9062 58.9154 23.9062 60.4688C23.9062 62.0221 25.1654 63.2812 26.7188 63.2812H55.5469C64.4782 63.2812 71.7188 56.0407 71.7188 47.1094C71.7188 38.178 64.4782 30.9375 55.5469 30.9375H33.5087L41.3637 23.0825Z" fill="white"/>
</svg>
