<svg id="Icon_Thumbs_Down_Fill" data-name="Icon Thumbs Down Fill" xmlns="http://www.w3.org/2000/svg" width="24" height="24" viewBox="0 0 24 24">
  <g id="Canvas">
    <rect id="Brand_Icon_Asset_Canvas" data-name="Brand/Icon/Asset/Canvas" width="24" height="24" fill="rgba(0,0,0,0)"/>
  </g>
  <path id="Icon" d="M1.292,9.82h4.14a.247.247,0,0,1,.258.258v9.3a.247.247,0,0,1-.258.258H1.292a.247.247,0,0,1-.258-.258v-9.3a.247.247,0,0,1,.258-.258ZM12.118,1.94a10.337,10.337,0,0,1,.557,6.491.54.54,0,0,0,.509.614h7.088a1.226,1.226,0,0,1,.687.969,1.759,1.759,0,0,1-.541,1.356H18.086a.517.517,0,1,0,0,1.034h2.268a2.539,2.539,0,0,1-.477,2.067H17.57a.517.517,0,1,0,0,1.034h1.75a2.534,2.534,0,0,1-.477,2.066h-1.79a.517.517,0,1,0,0,1.034h1.169a3.06,3.06,0,0,1-1.122,1.55c-4.8-.016-7.03.06-8.147-.056a2.448,2.448,0,0,1-1.139-.323,12.285,12.285,0,0,1-1.09-.84V10.878a13.69,13.69,0,0,0,3.165-8.8C10.235.494,11.63.93,12.118,1.94ZM10.81,0a1.936,1.936,0,0,0-.34.04,2.115,2.115,0,0,0-1.615,2A11.743,11.743,0,0,1,6.522,9.4a1.289,1.289,0,0,0-1.09-.613H1.292A1.3,1.3,0,0,0,0,10.078v9.3a1.3,1.3,0,0,0,1.292,1.292h4.14a1.3,1.3,0,0,0,1.074-.581,6.936,6.936,0,0,0,.775.565,3.645,3.645,0,0,0,1.567.476c1.317.137,3.479.036,8.469.057a.526.526,0,0,0,.323-.121,4.269,4.269,0,0,0,1.639-2.487.53.53,0,0,0,.251-.17,3.694,3.694,0,0,0,.847-2.955.5.5,0,0,0,.186-.145,3.594,3.594,0,0,0,.743-3.343A2.728,2.728,0,0,0,21.984,9.9a2.209,2.209,0,0,0-1.566-1.89H13.765a10.639,10.639,0,0,0-.751-6.58A2.658,2.658,0,0,0,11.148.018,1.827,1.827,0,0,0,10.81,0Z" transform="translate(1 1)" fill-rule="evenodd"/>
</svg>
