<svg id="Icon_Accessibility_2" data-name="Icon Accessibility 2" xmlns="http://www.w3.org/2000/svg" width="24" height="24" viewBox="0 0 24 24">
  <g id="Canvas">
    <rect id="Brand_Icon_Asset_Canvas" data-name="Brand/Icon/Asset/Canvas" width="24" height="24" fill="rgba(0,0,0,0)"/>
  </g>
  <path id="Icon" d="M-6030,9.759a4.2,4.2,0,0,1,.89-2.62L-6028,8.21a2.74,2.74,0,0,0-.164,2.806,2.739,2.739,0,0,0,2.394,1.474,2.716,2.716,0,0,0,1.56-.469l1.09,1.09a4.31,4.31,0,0,1-2.63.9A4.25,4.25,0,0,1-6030,9.759Zm6.23,1.84a2.737,2.737,0,0,0,.48-2.936,2.74,2.74,0,0,0-2.48-1.643,2.666,2.666,0,0,0-1.83.72l-1.031-1.091a4.219,4.219,0,0,1,2.231-1.1l2-2.34-1.189-.67L-6027,3.8a.849.849,0,0,1-1.15-.07.831.831,0,0,1,.069-1.17L-6026.25.9a.83.83,0,0,1,1-.1l3.779,2.209a.892.892,0,0,1,.371.53,1,1,0,0,1-.21.911L-6022.9,6.27l2.9-.16a.85.85,0,0,1,.679.251.819.819,0,0,1,.23.69l-.35,4.3a.83.83,0,0,1-.831.76h-.059a.849.849,0,0,1-.77-.9l.25-3.39-1.12.071a4.315,4.315,0,0,1,.43,1.869,4.205,4.205,0,0,1-1.161,2.91Zm2.91-8.8a1.4,1.4,0,0,1-1.391-1.4,1.4,1.4,0,0,1,.867-1.294,1.4,1.4,0,0,1,1.527.307,1.4,1.4,0,0,1,.3,1.53,1.4,1.4,0,0,1-1.289.857Z" transform="translate(6037 5)"/>
</svg>
