<svg id="Icon_Settings_Outline" data-name="Icon Settings Outline" xmlns="http://www.w3.org/2000/svg" width="24" height="24" viewBox="0 0 24 24">
  <g id="Canvas">
    <rect id="Brand_Icon_Asset_Canvas" data-name="Brand/Icon/Asset/Canvas" width="24" height="24" fill="rgba(0,0,0,0)"/>
  </g>
  <path id="Icon" d="M-6017.47,22.011h-3.14a.77.77,0,0,1-.769-.63l-.44-2.19a7.3,7.3,0,0,1-1-.43L-6024.68,20a.842.842,0,0,1-.44.13.793.793,0,0,1-.56-.23l-2.22-2.22a.8.8,0,0,1-.1-1l1.25-1.94a7.231,7.231,0,0,1-.43-1l-2.19-.44a.771.771,0,0,1-.631-.77V9.392a.771.771,0,0,1,.631-.77l2.19-.439a7.172,7.172,0,0,1,.43-1l-1.241-1.851a.8.8,0,0,1,.1-1l2.22-2.229a.784.784,0,0,1,.56-.23.838.838,0,0,1,.43.13l1.9,1.25a7.211,7.211,0,0,1,1-.43l.44-2.19a.77.77,0,0,1,.77-.631h3.141a.772.772,0,0,1,.81.631l.44,2.19a7.282,7.282,0,0,1,1,.43l1.861-1.241a.813.813,0,0,1,.43-.129.791.791,0,0,1,.56.229l2.229,2.211a.8.8,0,0,1,.1,1l-1.25,1.9a7.5,7.5,0,0,1,.431,1l2.19.44a.769.769,0,0,1,.629.769v3.181a.772.772,0,0,1-.629.77l-2.19.439a7.5,7.5,0,0,1-.431,1l1.241,1.86a.8.8,0,0,1-.1,1l-2.22,2.22a.793.793,0,0,1-.56.23.745.745,0,0,1-.43-.13l-1.94-1.239a7.28,7.28,0,0,1-1,.43l-.44,2.19a.77.77,0,0,1-.757.63Zm-4.859-4.21a7.155,7.155,0,0,0,.9.371l.6.21.13.619.391,1.931h2.619L-6017.3,19l.159-.649.6-.21a7.146,7.146,0,0,0,.9-.369l.57-.291.53.36,1.641,1.09,1.86-1.86-1.09-1.64-.36-.53.289-.571a6.986,6.986,0,0,0,.371-.9l.21-.6.62-.13,1.9-.389V9.691l-1.93-.389-.62-.13-.21-.6a7.087,7.087,0,0,0-.369-.9l-.291-.569.36-.53,1.09-1.671-1.86-1.86-1.639,1.09-.531.36-.569-.289a7.175,7.175,0,0,0-.9-.371l-.6-.21L-6017.3,3l-.391-1.9v-.03h-2.619L-6020.7,3l-.13.649-.6.21a7.146,7.146,0,0,0-.9.369l-.57.291-.53-.36-1.641-1.09-1.86,1.86,1.06,1.64.361.53-.291.569a7.318,7.318,0,0,0-.371.9l-.209.6-.62.13-1.9.389v2.621l1.9.389.649.13.21.6a7.2,7.2,0,0,0,.371.9l.289.571-.36.53-1.09,1.64,1.86,1.86,1.641-1.059.53-.36ZM-6023,11a4,4,0,0,1,4-4,4,4,0,0,1,4,4,4,4,0,0,1-4,4A4,4,0,0,1-6023,11Zm1.1,0a2.9,2.9,0,0,0,2.9,2.9,2.9,2.9,0,0,0,2.9-2.9,2.9,2.9,0,0,0-2.9-2.9A2.9,2.9,0,0,0-6021.9,11Z" transform="translate(6031 1)"/>
</svg>
