<svg width="22" height="24" fill="none" xmlns="http://www.w3.org/2000/svg">
  <path d="M19.552 13.986l-4.514 2.17a1.654 1.654 0 00-1.187-1.301L7.658 12.51c-.405-.145-.868-.174-1.302 0l-3.097 1.07-.52-1.476c-.059-.144-.232-.231-.377-.173l-2.17.781c-.145.058-.232.232-.174.376.058.145.232.232.376.174l1.852-.666 3.328 9.29-1.823.665c-.144.058-.231.232-.173.377.057.116.173.202.289.202.029 0 .058 0 .087-.029l2.141-.752a.296.296 0 00.174-.145c.029-.058.029-.144 0-.231l-.579-1.62 1.534-.55 3.01 1.649c.231.087.492.145.752.145.29 0 .55-.058.81-.174l9.232-4.399a1.69 1.69 0 00-1.476-3.038zm1.216 2.49l-9.232 4.398a1.197 1.197 0 01-1.042.029l-3.096-1.707c-.087-.03-.174-.058-.232-.03l-1.678.58-2.026-5.586 3.096-1.1c.29-.086.608-.086.897 0l6.222 2.345c.492.144.84.607.81 1.1 0 .057 0 .144-.028.202a1.083 1.083 0 01-1.303.781l-4.283-1.302c-.144-.058-.318.029-.376.202-.058.145.03.319.203.377l4.283 1.33c.145.03.29.059.434.059.752 0 1.418-.492 1.62-1.245v-.057l4.776-2.287a1.09 1.09 0 011.447.492c.26.521.028 1.158-.492 1.418zM9.308 2.295a5.885 5.885 0 017.012-1c.199.109.454-.029.454-.255 0-.101-.053-.195-.142-.243-2.47-1.353-5.657-.98-7.73 1.093-2.43 2.43-2.517 6.338-.289 8.884h-.8a.1.1 0 00-.07.171l.407.408a.1.1 0 00.07.03h1.306a.1.1 0 00.1-.1V9.976a.1.1 0 00-.03-.071l-.407-.408a.1.1 0 00-.17.07v.743c-1.997-2.315-1.91-5.816.289-8.016zM18.076 11.064c2.431-2.431 2.518-6.338.29-8.885h.8a.1.1 0 00.071-.17l-.408-.408a.1.1 0 00-.07-.03h-1.306a.1.1 0 00-.1.1v1.306a.1.1 0 00.03.07l.407.409a.1.1 0 00.17-.071v-.743c1.969 2.315 1.882 5.817-.318 8.017-1.894 1.894-4.777 2.22-7.013.998-.198-.108-.453.03-.453.255 0 .102.054.196.144.244a6.592 6.592 0 003.126.818c1.708 0 3.386-.637 4.63-1.91z" fill="#010101"/>
  <path d="M11.97 6.752l-.29 1.65a.275.275 0 00.117.288.31.31 0 00.318.03l1.505-.782 1.505.781c.086.058.202.03.318-.029a.275.275 0 00.116-.289l-.29-1.65 1.216-1.186c.087-.087.116-.203.087-.29-.03-.115-.116-.173-.232-.202l-1.678-.231-.753-1.505c-.087-.203-.434-.203-.52 0l-.753 1.505-1.678.231c-.116.029-.203.087-.232.203-.029.115 0 .231.087.289l1.157 1.187zm.84-1.36c.086 0 .173-.087.231-.145l.55-1.158.55 1.129c.029.087.116.144.231.144l1.245.203-.897.868c-.058.058-.087.174-.087.26l.202 1.245-1.1-.579c-.028-.029-.086-.029-.144-.029-.058 0-.087 0-.145.03l-1.1.578.203-1.244c.03-.087-.029-.203-.087-.26l-.897-.869 1.245-.174z" fill="#010101"/>
</svg>