<svg xmlns="http://www.w3.org/2000/svg" width="15" height="15.001" viewBox="0 0 15 15.001">
  <g id="refresh_ico" transform="translate(-583 -662.999)">
    <g id="refresh_ico-2" data-name="refresh_ico" transform="translate(584 663)">
      <path id="Icon" d="M28.354,19.734a.294.294,0,0,0-.429,0,.338.338,0,0,0,0,.468h0A5.981,5.981,0,0,1,29.1,26.455,5.462,5.462,0,0,1,24.107,30a5.462,5.462,0,0,1-4.992-3.543A5.982,5.982,0,0,1,20.286,20.2a5.22,5.22,0,0,1,3.693-1.679l-.686.734a.337.337,0,0,0-.086.323.291.291,0,0,0,.485.108l1.433-1.511-1.416-1.5a.287.287,0,0,0-.429,0,.334.334,0,0,0,0,.444h0l.691.734A6.132,6.132,0,0,0,18.2,23.1a6.457,6.457,0,0,0,3.671,7.062,5.821,5.821,0,0,0,7.248-2.4,6.681,6.681,0,0,0-.763-8.026Z" transform="translate(-17.606 -16.132)" fill="#c00"/>
      <path id="Path_1838" data-name="Path 1838" d="M24.115,31.132a6.212,6.212,0,0,1-2.435-.484,6.914,6.914,0,0,1-3.974-7.58,6.7,6.7,0,0,1,5.741-5.6l-.354-.373a.62.62,0,0,1-.161-.421.58.58,0,0,1,.333-.5.508.508,0,0,1,.564.1L25.492,18l-1.646,1.743a.524.524,0,0,1-.87-.189.594.594,0,0,1,.117-.624l.283-.3a5.269,5.269,0,0,0-3.113,1.622,5.94,5.94,0,0,0-1.175,6.206,5.421,5.421,0,0,0,4.974,3.519h.067a5.43,5.43,0,0,0,4.983-3.524,5.934,5.934,0,0,0-1.18-6.2h0a.61.61,0,0,1,0-.784.514.514,0,0,1,.753,0h0a7.084,7.084,0,0,1,.839,8.616,6.434,6.434,0,0,1-5.409,3.045Z" transform="translate(-17.606 -16.132)" fill="#c00"/>
    </g>
    <rect id="Rectangle_163" data-name="Rectangle 163" width="15" height="15" transform="translate(583 663)" fill="none"/>
  </g>
</svg>
