<svg xmlns="http://www.w3.org/2000/svg" width="20" height="19.501">
  <defs>
    <mask id="a">
      <g data-name="Group 1658">
        <path d="M10 .001a9.877 9.877 0 0 0-10 9.75 9.877 9.877 0 0 0 10 9.75 9.877 9.877 0 0 0 10-9.75 9.877 9.877 0 0 0-10-9.75z" fill="#fff"/>
        <path data-name="Path 2118" d="M8.379 8.047c-.028-1.554.726-2.746 2.247-2.746a1.974 1.974 0 0 1 1.436.591 1.974 1.974 0 0 1 .564 1.446 2.775 2.775 0 0 1-.907 1.947c-1.172 1.177-1.647 1.66-1.6 3.516h.879c.042-1.841.112-1.66 1.3-2.942a3.462 3.462 0 0 0 1.214-2.565 2.7 2.7 0 0 0-.805-2.022 2.7 2.7 0 0 0-2.035-.771c-2.023 0-3.153 1.4-3.167 3.546zm1.593 7.454h1.17v-1.6h-1.17z"/>
      </g>
    </mask>
  </defs>
  <path mask="url(#a)" d="M0 0h20v19.501H0z"/>
</svg>
