<svg id="Icon_Error_Fill" data-name="Icon Error Fill" xmlns="http://www.w3.org/2000/svg" width="24" height="24" viewBox="0 0 24 24">
  <g id="Canvas">
    <rect id="Brand_Icon_Asset_Canvas" data-name="Brand/Icon/Asset/Canvas" width="24" height="24" fill="rgba(0,0,0,0)"/>
  </g>
  <path id="Icon" d="M10,0A10,10,0,1,1,0,10,10,10,0,0,1,10,0Zm0,15.5a.89.89,0,1,0-.89-.89A.89.89,0,0,0,10,15.5Zm-.005-11a.665.665,0,0,0-.665.665v6.26a.665.665,0,0,0,1.33,0V5.165A.665.665,0,0,0,9.995,4.5Z" transform="translate(2 2)"/>
</svg>
