<svg id="Icon_Camera_Fill" data-name="Icon Camera Fill" xmlns="http://www.w3.org/2000/svg" width="24" height="24" viewBox="0 0 24 24">
  <g id="Canvas">
    <rect id="Brand_Icon_Asset_Canvas" data-name="Brand/Icon/Asset/Canvas" width="24" height="24" fill="rgba(0,0,0,0)"/>
  </g>
  <path id="Icon" d="M-6028,18a2,2,0,0,1-2-1.949V4a2,2,0,0,1,2-2h4.259l.991-1.3a2,2,0,0,1,1.509-.7h4.491a1.924,1.924,0,0,1,1.5.7l1,1.3h4.3A2,2,0,0,1-6008,4V16.05A2,2,0,0,1-6009.95,18Zm4-8a5,5,0,0,0,5,5,5,5,0,0,0,5-5,5,5,0,0,0-5-5A5,5,0,0,0-6024,10Zm12.5-5h1V4h-1Zm-10.5,5a3,3,0,0,1,3-3,3,3,0,0,1,3,3,3,3,0,0,1-3,3A3,3,0,0,1-6022,10Z" transform="translate(6031 3)"/>
</svg>
