<?xml version="1.0" encoding="utf-8"?>
<!-- Generator: Adobe Illustrator 25.0.1, SVG Export Plug-In . SVG Version: 6.00 Build 0)  -->
<svg xmlns="http://www.w3.org/2000/svg" width="19.083" height="24.501" viewBox="0 0 19.083 24.501">
<style type="text/css">
	.st0{fill:none;stroke:#FFFFFF;}
	.st1{fill:#FFFFFF;}
	.st2{display:none;fill:#FFFFFF;}
</style>
<path class="st0" d="M7.9,21.8h3.3c0.1,0.5-0.1,0.9-0.4,1.2c-0.3,0.3-0.8,0.5-1.2,0.5c-0.5,0-0.9-0.2-1.2-0.5
	C8,22.7,7.8,22.3,7.9,21.8L7.9,21.8z"/>
<g>
	<path class="st1" d="M13.6,20.7l-4,0l-7.9,0c-0.3,0-0.5-0.2-0.6-0.4C1,20.1,1,19.8,1.2,19.6c0.1-0.2,0.3-0.4,0.5-0.6
		c0.9-1,2.2-2.4,2.2-7.1c0-1.5,0.2-2.6,0.4-3.6l-0.7-1C3.1,8.5,2.8,10,2.8,11.9c0,4.3-1.1,5.5-1.9,6.4c-0.2,0.2-0.4,0.4-0.6,0.7
		c-0.4,0.5-0.4,1.2-0.2,1.7c0.3,0.6,0.8,0.9,1.5,1l12.7,0L13.6,20.7z"/>
	<path class="st1" d="M18.7,19c-0.2-0.2-0.4-0.4-0.6-0.7c-0.9-0.9-1.9-2.1-1.9-6.4c0-6.8-3.3-8.4-4.8-8.9v0c0-1.1-0.8-1.9-1.9-2
		C8.5,1.1,7.6,2,7.7,3v0C6.9,3.3,5.6,3.8,4.5,5.3l0.6,0.8c0.9-1.4,2.1-2,2.8-2.1c0.6-0.2,0.7-0.6,0.7-0.8V3c0-0.5,0.4-0.9,0.9-1
		c0.5,0,0.9,0.5,0.9,1v0.2c0,0.3,0.1,0.7,0.7,0.8c1.2,0.3,4.1,1.7,4.1,7.9c0,4.7,1.3,6.1,2.2,7.1c0.2,0.2,0.3,0.4,0.5,0.6
		c0.2,0.2,0.2,0.5,0.1,0.7c-0.1,0.2-0.3,0.4-0.6,0.4l-1.3,0l0.8,1l0.6,0c0.6,0,1.2-0.4,1.4-1C19.2,20.2,19.1,19.5,18.7,19z"/>
</g>
<path class="st1" d="M2.1,3.8C1.9,4,1.9,4.3,2,4.6l14.5,19.2c0.1,0.1,0.2,0.2,0.3,0.2c0.1,0,0.3,0,0.4-0.1c0.2-0.2,0.3-0.5,0.1-0.7
	L2.9,3.9C2.8,3.8,2.7,3.8,2.5,3.7C2.4,3.7,2.3,3.8,2.1,3.8L2.1,3.8"/>
<path class="st2" d="M32.7,1.7c0.7-0.5,1.6-0.4,2.1,0.3l14.5,19.2c0.5,0.7,0.4,1.6-0.3,2.1c0,0,0,0,0,0c-0.7,0.5-1.6,0.4-2.1-0.3
	L32.4,3.8C31.9,3.1,32,2.2,32.7,1.7C32.7,1.7,32.7,1.7,32.7,1.7z"/>
</svg>
